;TYPE=PLATED
;Layer: PTH_Through
;EasyEDA Pro Client v2.1.64.d1969c9c.217bcf, 2024-10-29 15:11:35
;Gerber Generator version 0.3
M48
METRIC,LZ,000.00000
;Hole size 1 = 0.80000 METRIC
T01C0.80000
;Hole size 2 = 0.91440 METRIC
T02C0.91440
;Hole size 3 = 1.00000 METRIC
T03C1.00000
;Hole size 4 = 1.02001 METRIC
T04C1.02001
;Hole size 5 = 1.10002 METRIC
T05C1.10002
;Hole size 6 = 1.20000 METRIC
T06C1.20000
;Hole size 7 = 1.24998 METRIC
T07C1.24998
%
G05
G90
T01
X00050800Y00368300
X00812800Y00368300
X00050800Y00114300
X00812800Y00114300
X00050800Y-00139700
X00812800Y-00139700
X00050800Y-00393700
X00812800Y-00393700
X00181801Y00736600
X00681800Y00736600
X00181801Y01498600
X00681800Y01498600
X05838000Y01041400
X05338001Y01041400
X03513900Y02146300
X03013901Y02146300
X04931601Y02082800
X05431600Y02082800
X01270000Y-00046799
X01270000Y00453200
T02
X02461509Y00419100
X03761501Y00419100
X03469391Y-00850900
X02169399Y-00850900
X03494791Y01104900
X02194799Y01104900
X03482091Y-00406400
X02182099Y-00406400
T03
X00866805Y01130300
X-00003205Y01130300
X02371695Y01536700
X03241705Y01536700
X02346295Y-01295400
X03216305Y-01295400
X04953000Y-00161895
X04953000Y-01031905
X04940300Y00993805
X04940300Y00123795
T04
X01701800Y02413000
X01955800Y02413000
X02209800Y02413000
T05
X-00279400Y-00393700
X-00279400Y-00139700
X-00279400Y00114300
X-00279400Y00368300
T06
X01765300Y-00131300
X01765300Y00918700
T07
X04242290Y01079503
X04496278Y01078502
X03988290Y01079503
X04229095Y-00672602
X04483082Y-00673603
X03975095Y-00672602
M30