G04 Layer: TopPasteMaskLayer*
G04 EasyEDA Pro v2.1.64.d1969c9c.217bcf, 2024-10-29 15:11:35*
G04 Gerber Generator version 0.3*
G04 Scale: 100 percent, Rotated: No, Reflected: No*
G04 Dimensions in millimeters*
G04 Leading zeros omitted, absolute positions, 3 integers and 5 decimals*
%FSLAX35Y35*%
%MOMM*%
%ADD10R,2.69999X0.91001*%
%ADD11R,2.04749X2.24099*%
G75*


G04 PolygonModel Start*
G36*
G01X4888301Y-1285001D02*
G01X4888301Y-1379047D01*
G01X4878301Y-1389047D01*
G01X4854694D01*
G01X4844694Y-1399047D01*
G01Y-1496553D01*
G01X4854694Y-1506553D01*
G01X4878301D01*
G01X4888301Y-1516553D01*
G01Y-1610599D01*
G01X4878301Y-1620599D01*
G01X4770046D01*
G01X4760046Y-1610599D01*
G01Y-1285001D01*
G01X4770046Y-1275001D01*
G01X4878301D01*
G01X4888301Y-1285001D01*
G37*
G36*
G01X5373299Y-1285001D02*
G01X5373299Y-1379047D01*
G01X5383299Y-1389047D01*
G01X5406906D01*
G01X5416906Y-1399047D01*
G01Y-1496553D01*
G01X5406906Y-1506553D01*
G01X5383299D01*
G01X5373299Y-1516553D01*
G01Y-1610599D01*
G01X5383299Y-1620599D01*
G01X5491554D01*
G01X5501554Y-1610599D01*
G01Y-1285001D01*
G01X5491554Y-1275001D01*
G01X5383299D01*
G01X5373299Y-1285001D01*
G37*
G36*
G01X3984772Y2319970D02*
G01X3984772Y2225924D01*
G01X3974772Y2215924D01*
G01X3951166D01*
G01X3941166Y2205924D01*
G01Y2108418D01*
G01X3951166Y2098418D01*
G01X3974772D01*
G01X3984772Y2088418D01*
G01Y1994372D01*
G01X3974772Y1984372D01*
G01X3866518D01*
G01X3856518Y1994372D01*
G01Y2319970D01*
G01X3866518Y2329970D01*
G01X3974772D01*
G01X3984772Y2319970D01*
G37*
G36*
G01X4469770Y2319970D02*
G01X4469770Y2225924D01*
G01X4479770Y2215924D01*
G01X4503377D01*
G01X4513377Y2205924D01*
G01Y2108418D01*
G01X4503377Y2098418D01*
G01X4479770D01*
G01X4469770Y2088418D01*
G01Y1994372D01*
G01X4479770Y1984372D01*
G01X4588025D01*
G01X4598025Y1994372D01*
G01Y2319970D01*
G01X4588025Y2329970D01*
G01X4479770D01*
G01X4469770Y2319970D01*
G37*
G36*
G01X5443444Y162799D02*
G01X5443444Y68753D01*
G01X5433444Y58753D01*
G01X5409837D01*
G01X5399837Y48753D01*
G01Y-48753D01*
G01X5409837Y-58753D01*
G01X5433444D01*
G01X5443444Y-68753D01*
G01Y-162799D01*
G01X5433444Y-172799D01*
G01X5325189D01*
G01X5315189Y-162799D01*
G01Y162799D01*
G01X5325189Y172799D01*
G01X5433444D01*
G01X5443444Y162799D01*
G37*
G36*
G01X5928441Y162799D02*
G01X5928441Y68753D01*
G01X5938441Y58753D01*
G01X5962048D01*
G01X5972048Y48753D01*
G01Y-48753D01*
G01X5962048Y-58753D01*
G01X5938441D01*
G01X5928441Y-68753D01*
G01Y-162799D01*
G01X5938441Y-172799D01*
G01X6046696D01*
G01X6056696Y-162799D01*
G01Y162799D01*
G01X6046696Y172799D01*
G01X5938441D01*
G01X5928441Y162799D01*
G37*
G04 PolygonModel End*

G04 Pad Start*
G54D10*
G01X5081295Y1511300D03*
G01X5561305Y1511300D03*
G54D11*
G01X5443169Y596900D03*
G01X5961431Y596900D03*
G04 Pad End*

M02*
