G04 Layer: TopLayer*
G04 EasyEDA Pro v2.1.64.d1969c9c.217bcf, 2024-10-29 15:11:35*
G04 Gerber Generator version 0.3*
G04 Scale: 100 percent, Rotated: No, Reflected: No*
G04 Dimensions in millimeters*
G04 Leading zeros omitted, absolute positions, 3 integers and 5 decimals*
%FSLAX35Y35*%
%MOMM*%
%ADD10C,0.2032*%
%ADD11O,1.97X1.524*%
%ADD12R,2.69999X0.91001*%
%ADD13R,1.28252X3.456*%
%ADD14C,1.8*%
%ADD15R,2.04749X2.24099*%
%ADD16C,1.524*%
%ADD17C,1.6*%
%ADD18R,1.7X1.7*%
%ADD19C,1.7*%
%ADD20O,1.8X2.59999*%
%ADD21R,1.8X2.59999*%
%ADD22C,1.5748*%
%ADD23R,1.5748X1.5748*%
%ADD24C,1.778*%
%ADD25C,2.032*%
%ADD26C,1.016*%
G75*


G04 Text Start*
G54D10*
G01X16510Y-1191260D02*
G01X16510Y-1449070D01*
G01X52070Y-1191260D02*
G01X52070Y-1449070D01*
G01X96520Y-1253490D02*
G01X78740Y-1235710D01*
G01X52070Y-1226820D01*
G01X16510D01*
G01X-10160Y-1235710D01*
G01X-27940Y-1253490D01*
G01Y-1271270D01*
G01X-19050Y-1289050D01*
G01X-10160Y-1297940D01*
G01X7620Y-1306830D01*
G01X60960Y-1324610D01*
G01X78740Y-1333500D01*
G01X87630Y-1342390D01*
G01X96520Y-1360170D01*
G01Y-1386840D01*
G01X78740Y-1404620D01*
G01X52070Y-1413510D01*
G01X16510D01*
G01X-10160Y-1404620D01*
G01X-27940Y-1386840D01*
G01X203962Y-1191260D02*
G01X203962Y-1449070D01*
G01X239522Y-1191260D02*
G01X239522Y-1449070D01*
G01X283972Y-1253490D02*
G01X266192Y-1235710D01*
G01X239522Y-1226820D01*
G01X203962D01*
G01X177292Y-1235710D01*
G01X159512Y-1253490D01*
G01Y-1271270D01*
G01X168402Y-1289050D01*
G01X177292Y-1297940D01*
G01X195072Y-1306830D01*
G01X248412Y-1324610D01*
G01X266192Y-1333500D01*
G01X275082Y-1342390D01*
G01X283972Y-1360170D01*
G01Y-1386840D01*
G01X266192Y-1404620D01*
G01X239522Y-1413510D01*
G01X203962D01*
G01X177292Y-1404620D01*
G01X159512Y-1386840D01*
G01X391414Y-1191260D02*
G01X391414Y-1449070D01*
G01X426974Y-1191260D02*
G01X426974Y-1449070D01*
G01X471424Y-1253490D02*
G01X453644Y-1235710D01*
G01X426974Y-1226820D01*
G01X391414D01*
G01X364744Y-1235710D01*
G01X346964Y-1253490D01*
G01Y-1271270D01*
G01X355854Y-1289050D01*
G01X364744Y-1297940D01*
G01X382524Y-1306830D01*
G01X435864Y-1324610D01*
G01X453644Y-1333500D01*
G01X462534Y-1342390D01*
G01X471424Y-1360170D01*
G01Y-1386840D01*
G01X453644Y-1404620D01*
G01X426974Y-1413510D01*
G01X391414D01*
G01X364744Y-1404620D01*
G01X346964Y-1386840D01*
G04 Text End*

G04 Pad Start*
G54D11*
G01X50800Y368300D03*
G01X812800Y368300D03*
G01X50800Y114300D03*
G01X812800Y114300D03*
G01X50800Y-139700D03*
G01X812800Y-139700D03*
G01X50800Y-393700D03*
G01X812800Y-393700D03*
G54D12*
G01X5081295Y1511300D03*
G01X5561305Y1511300D03*
G54D13*
G01X4824171Y-1447800D03*
G01X5437429Y-1447800D03*
G01X3920642Y2157171D03*
G01X4533900Y2157171D03*
G54D14*
G01X866800Y1130300D03*
G01X-3200Y1130300D03*
G01X2371700Y1536700D03*
G01X3241700Y1536700D03*
G01X2346300Y-1295400D03*
G01X3216300Y-1295400D03*
G01X4953000Y-161900D03*
G01X4953000Y-1031900D03*
G01X4940300Y993800D03*
G01X4940300Y123800D03*
G54D13*
G01X5379314Y0D03*
G01X5992571Y0D03*
G54D15*
G01X5443169Y596900D03*
G01X5961431Y596900D03*
G54D16*
G01X2461501Y419100D03*
G01X3761499Y419100D03*
G54D14*
G01X1765300Y-131293D03*
G01X1765300Y918693D03*
G54D16*
G01X3469399Y-850900D03*
G01X2169401Y-850900D03*
G01X3494799Y1104900D03*
G01X2194801Y1104900D03*
G01X3482099Y-406400D03*
G01X2182101Y-406400D03*
G54D17*
G01X181801Y736600D03*
G01X681800Y736600D03*
G01X181801Y1498600D03*
G01X681800Y1498600D03*
G01X5838000Y1041400D03*
G01X5338001Y1041400D03*
G54D18*
G01X-279400Y-393700D03*
G54D19*
G01X-279400Y-139700D03*
G01X-279400Y114300D03*
G01X-279400Y368300D03*
G54D17*
G01X3513900Y2146300D03*
G01X3013901Y2146300D03*
G01X4931601Y2082800D03*
G01X5431600Y2082800D03*
G54D20*
G01X4242295Y1079500D03*
G01X4496295Y1078509D03*
G54D21*
G01X3988295Y1079500D03*
G54D20*
G01X4229100Y-672605D03*
G01X4483100Y-673595D03*
G54D21*
G01X3975100Y-672605D03*
G54D22*
G01X1701800Y2413000D03*
G01X1955800Y2413000D03*
G54D23*
G01X2209800Y2413000D03*
G54D17*
G01X1270000Y-46799D03*
G01X1270000Y453200D03*
G04 Pad End*

G04 Track Start*
G54D24*
G01X3241700Y1536700D02*
G01X3469399Y1309002D01*
G01Y1104900D01*
G01Y685800D01*
G01X3482099Y673100D01*
G01X3743968Y411231D01*
G01X3987808D01*
G54D25*
G01X4533900Y2157171D02*
G01X4533900Y1760471D01*
G54D24*
G01X5081295Y1511300D02*
G01X4284729Y1511300D01*
G01X5081295Y1511300D02*
G01X5081295Y1313696D01*
G01X4940300Y1172700D01*
G01Y993800D01*
G01X5290401D01*
G01X5338001Y1041400D01*
G01X5561305Y1511300D02*
G01X5838000Y1234605D01*
G01Y1041400D01*
G01X5443169Y596900D02*
G01X5838000Y991730D01*
G01Y1041400D01*
G01X4953000Y111100D02*
G01X4940300Y123800D01*
G54D26*
G01X681800Y736600D02*
G01X444500Y499301D01*
G01Y-152400D01*
G01X203200Y-393700D01*
G01X50800D01*
G01X181801Y1498600D02*
G01X181801Y1315301D01*
G01X-3200Y1130300D01*
G01X181801Y945299D01*
G01Y736600D01*
G01Y499301D01*
G01X50800Y368300D01*
G54D25*
G01X571500Y1388301D02*
G01X571500Y846900D01*
G54D26*
G01X2346300Y-1295400D02*
G01X2346300Y-1027798D01*
G01X2169401Y-850900D01*
G01X3216300Y-1295400D02*
G01X3469399Y-1042302D01*
G01Y-850900D01*
G01X3482099Y-406400D02*
G01X3482099Y-838200D01*
G01X4824171Y-1447800D02*
G01X4953000Y-1318971D01*
G01Y-1031900D01*
G54D25*
G01X5437429Y-1447800D02*
G01X5094529Y-1790700D01*
G01X4931601Y2082800D02*
G01X4931601Y2205800D01*
G01X3524771Y2157171D02*
G01X3513900Y2146300D01*
G54D26*
G01X2734501Y1866900D02*
G01X3013901Y2146300D01*
G01X5431600Y2082800D02*
G01X5561305Y1953095D01*
G01Y1511300D01*
G54D25*
G01X681800Y1498600D02*
G01X1329500Y2146300D01*
G54D26*
G01X3120381Y-1790700D02*
G01X2743200Y-1413519D01*
G01Y-1016000D01*
G01X2182101Y-454901D01*
G01Y-406400D01*
G54D25*
G01X5094529Y-1790700D02*
G01X3120381Y-1790700D01*
G01X5443169Y453216D02*
G01X5443169Y596900D01*
G54D26*
G01X-279400Y368300D02*
G01X50800Y368300D01*
G01X-279400Y114300D02*
G01X50800Y114300D01*
G01X-279400Y-139700D02*
G01X50800Y-139700D01*
G01X-279400Y-393700D02*
G01X50800Y-393700D01*
G54D25*
G01X4931601Y2205800D02*
G01X4635500Y2501900D01*
G01X4265371D01*
G01X3920642Y2157171D01*
G01X571500Y846900D02*
G01X681800Y736600D01*
G01X681800Y1498600D02*
G01X571500Y1388301D01*
G54D26*
G01X1775701Y266700D02*
G01X1724901Y215900D01*
G01X1101800D01*
G01X2349500Y1866900D02*
G01X2734501Y1866900D01*
G54D16*
G01X3469399Y1104900D02*
G01X3962895Y1104900D01*
G01X3988295Y1079500D01*
G01X3647694Y-672605D02*
G01X3975100Y-672605D01*
G01X3469399Y-850900D02*
G01X3482099Y-838200D01*
G01X3647694Y-672605D01*
G01X4242295Y1468867D02*
G01X4242295Y1079500D01*
G54D25*
G01X4284729Y1511300D02*
G01X4242295Y1468867D01*
G54D24*
G01X4241808Y1468379D01*
G54D25*
G01X4284729Y1511300D02*
G01X4533900Y1760471D01*
G54D16*
G01X4496295Y1078509D02*
G01X4496295Y567804D01*
G54D25*
G01X4940300Y123800D01*
G54D16*
G01X4953000Y-161900D02*
G01X4511700Y-161900D01*
G01X4229100Y-444500D01*
G01Y-672605D01*
G54D25*
G01X4935093Y-143993D02*
G01X4953000Y-161900D01*
G54D16*
G01X4483100Y-673595D02*
G01X4594695Y-673595D01*
G01X4953000Y-1031900D01*
G54D25*
G01X3120381Y-1790700D02*
G01X1384300Y-1790700D01*
G01X203200Y-609600D01*
G01Y-393700D01*
G54D26*
G01X812800Y-393700D02*
G01X939800Y-520700D01*
G01X1839201D01*
G01X2169401Y-850900D01*
G01X1515707Y-59499D02*
G01X1261301Y-59499D01*
G54D24*
G01X1515707Y-59499D02*
G01X1600200Y-143993D01*
G54D26*
G01X1101800Y215900D02*
G01X1000200Y114300D01*
G01X812800D01*
G01X1261301Y-59499D02*
G01X1181100Y-139700D01*
G01X812800D01*
G01X812800Y368300D02*
G01X850900Y368300D01*
G01X965200Y482600D01*
G01X1240600D01*
G01X1270000Y453200D01*
G01X1735493Y918693D01*
G01X1765300D01*
G01X866800Y1130300D02*
G01X1553693Y1130300D01*
G01X1765300Y918693D01*
G54D24*
G01X4953000Y-161900D02*
G01X4953000Y-50800D01*
G01X5003800Y0D01*
G01X5379314D01*
G01X4953000Y-50800D02*
G01X4953000Y111100D01*
G54D25*
G01X5437429Y-1447800D02*
G01X5676900Y-1208329D01*
G01Y219485D01*
G01X5443169Y453216D01*
G54D24*
G01X5961431Y596900D02*
G01X5992571Y565760D01*
G01Y0D01*
G54D26*
G01X2235200Y2146300D02*
G01X2217420Y2128520D01*
G01Y1998980D01*
G01X2349500Y1866900D01*
G01X2209800Y2413000D02*
G01X2209800Y2171700D01*
G01X2235200Y2146300D01*
G54D25*
G01X3920642Y2157171D02*
G01X3757287Y2157171D01*
G01X3524771D01*
G54D16*
G01X1955800Y2413000D02*
G01X1955800Y2755900D01*
G01X1701800Y2413000D02*
G01X1546860Y2567940D01*
G01X980440D01*
G01X177800Y1765300D01*
G01Y1502601D01*
G01X181801Y1498600D01*
G54D25*
G01X1955800Y2755900D02*
G01X2247900Y3048000D01*
G01X2866458D01*
G01X3757287Y2157171D01*
G54D16*
G01X1329500Y2146300D02*
G01X2235200Y2146300D01*
G54D24*
G01X2371700Y1536700D02*
G01X2197100Y1362100D01*
G01Y688099D01*
G01X1775701Y266700D01*
G54D25*
G01X1990916Y-143993D02*
G01X2461501Y326593D01*
G01Y419100D01*
G01X1600200Y-143993D02*
G01X1990916Y-143993D01*
G01X4935093D01*
G04 Track End*

M02*
