G04 Layer: TopSilkscreenLayer*
G04 EasyEDA Pro v2.1.64.d1969c9c.217bcf, 2024-10-29 15:11:35*
G04 Gerber Generator version 0.3*
G04 Scale: 100 percent, Rotated: No, Reflected: No*
G04 Dimensions in millimeters*
G04 Leading zeros omitted, absolute positions, 3 integers and 5 decimals*
%FSLAX35Y35*%
%MOMM*%
%ADD10C,0.1524*%
%ADD11C,0.254*%
%ADD12C,0.3*%
G75*


G04 Text Start*
G54D10*
G01X1018234Y517691D02*
G01X971752Y517691D01*
G01X962608Y514643D01*
G01X956258Y508293D01*
G01X953210Y499149D01*
G01Y492799D01*
G01X956258Y483655D01*
G01X962608Y477559D01*
G01X971752Y474257D01*
G01X1018234D01*
G01X1018234Y437935D02*
G01X1018234Y403899D01*
G01X993596Y422441D01*
G01Y413297D01*
G01X990548Y406947D01*
G01X987246Y403899D01*
G01X978102Y400851D01*
G01X971752D01*
G01X962608Y403899D01*
G01X956258Y409995D01*
G01X953210Y419393D01*
G01Y428791D01*
G01X956258Y437935D01*
G01X959560Y440983D01*
G01X965656Y444031D01*
G01X5000398Y1875282D02*
G01X4997350Y1881632D01*
G01X4991000Y1887728D01*
G01X4984904Y1890776D01*
G01X4972458D01*
G01X4966362Y1887728D01*
G01X4960012Y1881632D01*
G01X4956964Y1875282D01*
G01X4953916Y1866138D01*
G01Y1850644D01*
G01X4956964Y1841246D01*
G01X4960012Y1835150D01*
G01X4966362Y1828800D01*
G01X4972458Y1825752D01*
G01X4984904D01*
G01X4991000Y1828800D01*
G01X4997350Y1835150D01*
G01X5000398Y1841246D01*
G01X5033672Y1875282D02*
G01X5033672Y1878330D01*
G01X5036720Y1884680D01*
G01X5039768Y1887728D01*
G01X5045864Y1890776D01*
G01X5058310D01*
G01X5064660Y1887728D01*
G01X5067708Y1884680D01*
G01X5070756Y1878330D01*
G01Y1872234D01*
G01X5067708Y1866138D01*
G01X5061358Y1856740D01*
G01X5030624Y1825752D01*
G01X5073804D01*
G01X5141114Y1890776D02*
G01X5110126Y1890776D01*
G01X5107078Y1863090D01*
G01X5110126Y1866138D01*
G01X5119270Y1869186D01*
G01X5128668D01*
G01X5138066Y1866138D01*
G01X5144162Y1859788D01*
G01X5147210Y1850644D01*
G01Y1844294D01*
G01X5144162Y1835150D01*
G01X5138066Y1828800D01*
G01X5128668Y1825752D01*
G01X5119270D01*
G01X5110126Y1828800D01*
G01X5107078Y1832102D01*
G01X5104030Y1838198D01*
G01X5524414Y-1758013D02*
G01X5524414Y-1692989D01*
G01X5524414Y-1758013D02*
G01X5496474Y-1758013D01*
G01X5487330Y-1754965D01*
G01X5484282Y-1751917D01*
G01X5480980Y-1745567D01*
G01Y-1739471D01*
G01X5484282Y-1733375D01*
G01X5487330Y-1730327D01*
G01X5496474Y-1727025D01*
G01X5524414D01*
G01X5502824Y-1727025D02*
G01X5480980Y-1692989D01*
G01X5450754Y-1745567D02*
G01X5444658Y-1748869D01*
G01X5435514Y-1758013D01*
G01Y-1692989D01*
G01X5399192Y-1758013D02*
G01X5365156Y-1758013D01*
G01X5383698Y-1733375D01*
G01X5374554D01*
G01X5368204Y-1730327D01*
G01X5365156Y-1727025D01*
G01X5362108Y-1717881D01*
G01Y-1711531D01*
G01X5365156Y-1702387D01*
G01X5371252Y-1696037D01*
G01X5380650Y-1692989D01*
G01X5390048D01*
G01X5399192Y-1696037D01*
G01X5402240Y-1699339D01*
G01X5405288Y-1705435D01*
G01X4427220Y2507234D02*
G01X4427220Y2442210D01*
G01X4427220Y2507234D02*
G01X4455160Y2507234D01*
G01X4464304Y2504186D01*
G01X4467352Y2501138D01*
G01X4470654Y2494788D01*
G01Y2488692D01*
G01X4467352Y2482596D01*
G01X4464304Y2479548D01*
G01X4455160Y2476246D01*
G01X4427220D01*
G01X4448810Y2476246D02*
G01X4470654Y2442210D01*
G01X4500880Y2494788D02*
G01X4506976Y2498090D01*
G01X4516120Y2507234D01*
G01Y2442210D01*
G01X4577080Y2507234D02*
G01X4546346Y2464054D01*
G01X4592574D01*
G01X4577080Y2507234D02*
G01X4577080Y2442210D01*
G01X949180Y786044D02*
G01X949180Y851068D01*
G01X949180Y786044D02*
G01X927590Y786044D01*
G01X918192Y789092D01*
G01X912096Y795188D01*
G01X909048Y801538D01*
G01X905746Y810682D01*
G01Y826176D01*
G01X909048Y835574D01*
G01X912096Y841670D01*
G01X918192Y848020D01*
G01X927590Y851068D01*
G01X949180D01*
G01X835388Y807634D02*
G01X838436Y817032D01*
G01X844786Y823128D01*
G01X853930Y826176D01*
G01X856978D01*
G01X866376Y823128D01*
G01X872472Y817032D01*
G01X875520Y807634D01*
G01Y804586D01*
G01X872472Y795188D01*
G01X866376Y789092D01*
G01X856978Y786044D01*
G01X853930D01*
G01X844786Y789092D01*
G01X838436Y795188D01*
G01X835388Y807634D01*
G01Y823128D01*
G01X838436Y838622D01*
G01X844786Y848020D01*
G01X853930Y851068D01*
G01X860280D01*
G01X869424Y848020D01*
G01X872472Y841670D01*
G01X3423920Y1757934D02*
G01X3423920Y1692910D01*
G01X3423920Y1757934D02*
G01X3445510Y1757934D01*
G01X3454908Y1754886D01*
G01X3461004Y1748790D01*
G01X3464052Y1742440D01*
G01X3467354Y1733296D01*
G01Y1717802D01*
G01X3464052Y1708404D01*
G01X3461004Y1702308D01*
G01X3454908Y1695958D01*
G01X3445510Y1692910D01*
G01X3423920D01*
G01X3497580Y1745488D02*
G01X3503676Y1748790D01*
G01X3512820Y1757934D01*
G01Y1692910D01*
G01X3561588Y1757934D02*
G01X3552190Y1754886D01*
G01X3546094Y1745488D01*
G01X3543046Y1730248D01*
G01Y1720850D01*
G01X3546094Y1705356D01*
G01X3552190Y1695958D01*
G01X3561588Y1692910D01*
G01X3567684D01*
G01X3577082Y1695958D01*
G01X3583178Y1705356D01*
G01X3586226Y1720850D01*
G01Y1730248D01*
G01X3583178Y1745488D01*
G01X3577082Y1754886D01*
G01X3567684Y1757934D01*
G01X3561588D01*
G01X2738120Y-972566D02*
G01X2738120Y-1037590D01*
G01X2738120Y-972566D02*
G01X2759710Y-972566D01*
G01X2769108Y-975614D01*
G01X2775204Y-981710D01*
G01X2778252Y-988060D01*
G01X2781554Y-997204D01*
G01Y-1012698D01*
G01X2778252Y-1022096D01*
G01X2775204Y-1028192D01*
G01X2769108Y-1034542D01*
G01X2759710Y-1037590D01*
G01X2738120D01*
G01X2811780Y-985012D02*
G01X2817876Y-981710D01*
G01X2827020Y-972566D01*
G01Y-1037590D01*
G01X2857246Y-985012D02*
G01X2863342Y-981710D01*
G01X2872486Y-972566D01*
G01Y-1037590D01*
G01X5297256Y-79520D02*
G01X5232232Y-79520D01*
G01X5297256Y-79520D02*
G01X5297256Y-101110D01*
G01X5294208Y-110508D01*
G01X5288112Y-116604D01*
G01X5281762Y-119652D01*
G01X5272618Y-122954D01*
G01X5257124D01*
G01X5247726Y-119652D01*
G01X5241630Y-116604D01*
G01X5235280Y-110508D01*
G01X5232232Y-101110D01*
G01Y-79520D01*
G01X5284810Y-153180D02*
G01X5288112Y-159276D01*
G01X5297256Y-168420D01*
G01X5232232D01*
G01X5281762Y-201694D02*
G01X5284810Y-201694D01*
G01X5291160Y-204742D01*
G01X5294208Y-207790D01*
G01X5297256Y-213886D01*
G01Y-226332D01*
G01X5294208Y-232682D01*
G01X5291160Y-235730D01*
G01X5284810Y-238778D01*
G01X5278714D01*
G01X5272618Y-235730D01*
G01X5263220Y-229380D01*
G01X5232232Y-198646D01*
G01Y-241826D01*
G01X5284556Y1076180D02*
G01X5219532Y1076180D01*
G01X5284556Y1076180D02*
G01X5284556Y1054590D01*
G01X5281508Y1045192D01*
G01X5275412Y1039096D01*
G01X5269062Y1036048D01*
G01X5259918Y1032746D01*
G01X5244424D01*
G01X5235026Y1036048D01*
G01X5228930Y1039096D01*
G01X5222580Y1045192D01*
G01X5219532Y1054590D01*
G01Y1076180D01*
G01X5272110Y1002520D02*
G01X5275412Y996424D01*
G01X5284556Y987280D01*
G01X5219532D01*
G01X5284556Y950958D02*
G01X5284556Y916922D01*
G01X5259918Y935464D01*
G01Y926320D01*
G01X5256870Y919970D01*
G01X5253568Y916922D01*
G01X5244424Y913874D01*
G01X5238074D01*
G01X5228930Y916922D01*
G01X5222580Y923018D01*
G01X5219532Y932416D01*
G01Y941814D01*
G01X5222580Y950958D01*
G01X5225882Y954006D01*
G01X5231978Y957054D01*
G01X6079556Y-310213D02*
G01X6079556Y-245189D01*
G01X6079556Y-310213D02*
G01X6051616Y-310213D01*
G01X6042472Y-307165D01*
G01X6039424Y-304117D01*
G01X6036122Y-297767D01*
G01Y-291671D01*
G01X6039424Y-285575D01*
G01X6042472Y-282527D01*
G01X6051616Y-279225D01*
G01X6079556D01*
G01X6057966Y-279225D02*
G01X6036122Y-245189D01*
G01X6002848Y-294719D02*
G01X6002848Y-297767D01*
G01X5999800Y-304117D01*
G01X5996752Y-307165D01*
G01X5990656Y-310213D01*
G01X5978210D01*
G01X5971860Y-307165D01*
G01X5968812Y-304117D01*
G01X5965764Y-297767D01*
G01Y-291671D01*
G01X5968812Y-285575D01*
G01X5975162Y-276177D01*
G01X6005896Y-245189D01*
G01X5962716D01*
G01X5926394Y-310213D02*
G01X5892358Y-310213D01*
G01X5910900Y-285575D01*
G01X5901756D01*
G01X5895406Y-282527D01*
G01X5892358Y-279225D01*
G01X5889310Y-270081D01*
G01Y-263731D01*
G01X5892358Y-254587D01*
G01X5898454Y-248237D01*
G01X5907852Y-245189D01*
G01X5917250D01*
G01X5926394Y-248237D01*
G01X5929442Y-251539D01*
G01X5932490Y-257635D01*
G01X5798820Y907034D02*
G01X5798820Y842010D01*
G01X5798820Y907034D02*
G01X5820410Y907034D01*
G01X5829808Y903986D01*
G01X5835904Y897890D01*
G01X5838952Y891540D01*
G01X5842254Y882396D01*
G01Y866902D01*
G01X5838952Y857504D01*
G01X5835904Y851408D01*
G01X5829808Y845058D01*
G01X5820410Y842010D01*
G01X5798820D01*
G01X5909564Y897890D02*
G01X5906516Y903986D01*
G01X5897118Y907034D01*
G01X5891022D01*
G01X5881624Y903986D01*
G01X5875528Y894588D01*
G01X5872480Y879348D01*
G01Y863854D01*
G01X5875528Y851408D01*
G01X5881624Y845058D01*
G01X5891022Y842010D01*
G01X5894070D01*
G01X5903214Y845058D01*
G01X5909564Y851408D01*
G01X5912612Y860552D01*
G01Y863854D01*
G01X5909564Y872998D01*
G01X5903214Y879348D01*
G01X5894070Y882396D01*
G01X5891022D01*
G01X5881624Y879348D01*
G01X5875528Y872998D01*
G01X5872480Y863854D01*
G01X113208Y965733D02*
G01X110160Y972083D01*
G01X103810Y978179D01*
G01X97714Y981227D01*
G01X85268D01*
G01X79172Y978179D01*
G01X72822Y972083D01*
G01X69774Y965733D01*
G01X66726Y956589D01*
G01Y941095D01*
G01X69774Y931697D01*
G01X72822Y925601D01*
G01X79172Y919251D01*
G01X85268Y916203D01*
G01X97714D01*
G01X103810Y919251D01*
G01X110160Y925601D01*
G01X113208Y931697D01*
G01X174168Y981227D02*
G01X143434Y938047D01*
G01X189662D01*
G01X174168Y981227D02*
G01X174168Y916203D01*
G01X219888Y968781D02*
G01X225984Y972083D01*
G01X235128Y981227D01*
G01Y916203D01*
G01X113208Y1727733D02*
G01X110160Y1734083D01*
G01X103810Y1740179D01*
G01X97714Y1743227D01*
G01X85268D01*
G01X79172Y1740179D01*
G01X72822Y1734083D01*
G01X69774Y1727733D01*
G01X66726Y1718589D01*
G01Y1703095D01*
G01X69774Y1693697D01*
G01X72822Y1687601D01*
G01X79172Y1681251D01*
G01X85268Y1678203D01*
G01X97714D01*
G01X103810Y1681251D01*
G01X110160Y1687601D01*
G01X113208Y1693697D01*
G01X174168Y1743227D02*
G01X143434Y1700047D01*
G01X189662D01*
G01X174168Y1743227D02*
G01X174168Y1678203D01*
G01X222936Y1727733D02*
G01X222936Y1730781D01*
G01X225984Y1737131D01*
G01X229032Y1740179D01*
G01X235128Y1743227D01*
G01X247574D01*
G01X253924Y1740179D01*
G01X256972Y1737131D01*
G01X260020Y1730781D01*
G01Y1724685D01*
G01X256972Y1718589D01*
G01X250622Y1709191D01*
G01X219888Y1678203D01*
G01X263068D01*
G01X5737878Y851980D02*
G01X5740926Y845630D01*
G01X5747276Y839534D01*
G01X5753372Y836486D01*
G01X5765818D01*
G01X5771914Y839534D01*
G01X5778264Y845630D01*
G01X5781312Y851980D01*
G01X5784360Y861124D01*
G01Y876618D01*
G01X5781312Y886016D01*
G01X5778264Y892112D01*
G01X5771914Y898462D01*
G01X5765818Y901510D01*
G01X5753372D01*
G01X5747276Y898462D01*
G01X5740926Y892112D01*
G01X5737878Y886016D01*
G01X5676918Y836486D02*
G01X5707652Y879666D01*
G01X5661424D01*
G01X5676918Y836486D02*
G01X5676918Y901510D01*
G01X5625102Y836486D02*
G01X5591066Y836486D01*
G01X5609608Y861124D01*
G01X5600464D01*
G01X5594114Y864172D01*
G01X5591066Y867474D01*
G01X5588018Y876618D01*
G01Y882968D01*
G01X5591066Y892112D01*
G01X5597162Y898462D01*
G01X5606560Y901510D01*
G01X5615958D01*
G01X5625102Y898462D01*
G01X5628150Y895160D01*
G01X5631198Y889064D01*
G01X-526034Y-546781D02*
G01X-461010Y-546781D01*
G01X-526034Y-503347D02*
G01X-461010Y-503347D01*
G01X-495046Y-546781D02*
G01X-495046Y-503347D01*
G01X-513588Y-473121D02*
G01X-516890Y-467025D01*
G01X-526034Y-457881D01*
G01X-461010D01*
G01X3582492Y1917167D02*
G01X3585540Y1910817D01*
G01X3591890Y1904721D01*
G01X3597986Y1901673D01*
G01X3610432D01*
G01X3616528Y1904721D01*
G01X3622878Y1910817D01*
G01X3625926Y1917167D01*
G01X3628974Y1926311D01*
G01Y1941805D01*
G01X3625926Y1951203D01*
G01X3622878Y1957299D01*
G01X3616528Y1963649D01*
G01X3610432Y1966697D01*
G01X3597986D01*
G01X3591890Y1963649D01*
G01X3585540Y1957299D01*
G01X3582492Y1951203D01*
G01X3521532Y1901673D02*
G01X3552266Y1944853D01*
G01X3506038D01*
G01X3521532Y1901673D02*
G01X3521532Y1966697D01*
G01X3445078Y1901673D02*
G01X3475812Y1944853D01*
G01X3429584D01*
G01X3445078Y1901673D02*
G01X3445078Y1966697D01*
G01X4863008Y2311933D02*
G01X4859960Y2318283D01*
G01X4853610Y2324379D01*
G01X4847514Y2327427D01*
G01X4835068D01*
G01X4828972Y2324379D01*
G01X4822622Y2318283D01*
G01X4819574Y2311933D01*
G01X4816526Y2302789D01*
G01Y2287295D01*
G01X4819574Y2277897D01*
G01X4822622Y2271801D01*
G01X4828972Y2265451D01*
G01X4835068Y2262403D01*
G01X4847514D01*
G01X4853610Y2265451D01*
G01X4859960Y2271801D01*
G01X4863008Y2277897D01*
G01X4923968Y2327427D02*
G01X4893234Y2284247D01*
G01X4939462D01*
G01X4923968Y2327427D02*
G01X4923968Y2262403D01*
G01X5006772Y2327427D02*
G01X4975784Y2327427D01*
G01X4972736Y2299741D01*
G01X4975784Y2302789D01*
G01X4984928Y2305837D01*
G01X4994326D01*
G01X5003724Y2302789D01*
G01X5009820Y2296439D01*
G01X5012868Y2287295D01*
G01Y2280945D01*
G01X5009820Y2271801D01*
G01X5003724Y2265451D01*
G01X4994326Y2262403D01*
G01X4984928D01*
G01X4975784Y2265451D01*
G01X4972736Y2268753D01*
G01X4969688Y2274849D01*
G01X3362310Y1714266D02*
G01X3362310Y1667784D01*
G01X3365358Y1658640D01*
G01X3371708Y1652290D01*
G01X3380852Y1649242D01*
G01X3387202D01*
G01X3396346Y1652290D01*
G01X3402442Y1658640D01*
G01X3405744Y1667784D01*
G01Y1714266D01*
G01X3466704Y1714266D02*
G01X3435970Y1671086D01*
G01X3482198D01*
G01X3466704Y1714266D02*
G01X3466704Y1649242D01*
G01X3349114Y-37838D02*
G01X3349114Y-84320D01*
G01X3352162Y-93464D01*
G01X3358512Y-99814D01*
G01X3367656Y-102862D01*
G01X3374006D01*
G01X3383150Y-99814D01*
G01X3389246Y-93464D01*
G01X3392548Y-84320D01*
G01Y-37838D01*
G01X3459858Y-37838D02*
G01X3428870Y-37838D01*
G01X3425822Y-65524D01*
G01X3428870Y-62476D01*
G01X3438014Y-59428D01*
G01X3447412D01*
G01X3456810Y-62476D01*
G01X3462906Y-68826D01*
G01X3465954Y-77970D01*
G01Y-84320D01*
G01X3462906Y-93464D01*
G01X3456810Y-99814D01*
G01X3447412Y-102862D01*
G01X3438014D01*
G01X3428870Y-99814D01*
G01X3425822Y-96512D01*
G01X3422774Y-90416D01*
G01X2214880Y2166366D02*
G01X2214880Y2231390D01*
G01X2171446Y2166366D02*
G01X2171446Y2231390D01*
G01X2214880Y2197354D02*
G01X2171446Y2197354D01*
G01X2138172Y2181860D02*
G01X2138172Y2178812D01*
G01X2135124Y2172462D01*
G01X2132076Y2169414D01*
G01X2125980Y2166366D01*
G01X2113534D01*
G01X2107184Y2169414D01*
G01X2104136Y2172462D01*
G01X2101088Y2178812D01*
G01Y2184908D01*
G01X2104136Y2191004D01*
G01X2110486Y2200402D01*
G01X2141220Y2231390D01*
G01X2098040D01*
G01X1502979Y209070D02*
G01X1496629Y206022D01*
G01X1490533Y199672D01*
G01X1487485Y193576D01*
G01Y181130D01*
G01X1490533Y175034D01*
G01X1496629Y168684D01*
G01X1502979Y165636D01*
G01X1512123Y162588D01*
G01X1527617D01*
G01X1537015Y165636D01*
G01X1543111Y168684D01*
G01X1549461Y175034D01*
G01X1552509Y181130D01*
G01Y193576D01*
G01X1549461Y199672D01*
G01X1543111Y206022D01*
G01X1537015Y209070D01*
G01X1487485Y245392D02*
G01X1487485Y279428D01*
G01X1512123Y260886D01*
G01Y270030D01*
G01X1515171Y276380D01*
G01X1518473Y279428D01*
G01X1527617Y282476D01*
G01X1533967D01*
G01X1543111Y279428D01*
G01X1549461Y273332D01*
G01X1552509Y263934D01*
G01Y254536D01*
G01X1549461Y245392D01*
G01X1546159Y242344D01*
G01X1540063Y239296D01*
G01X1509075Y352834D02*
G01X1518473Y349786D01*
G01X1524569Y343436D01*
G01X1527617Y334292D01*
G01Y331244D01*
G01X1524569Y321846D01*
G01X1518473Y315750D01*
G01X1509075Y312702D01*
G01X1506027D01*
G01X1496629Y315750D01*
G01X1490533Y321846D01*
G01X1487485Y331244D01*
G01Y334292D01*
G01X1490533Y343436D01*
G01X1496629Y349786D01*
G01X1509075Y352834D01*
G01X1524569D01*
G01X1540063Y349786D01*
G01X1549461Y343436D01*
G01X1552509Y334292D01*
G01Y327942D01*
G01X1549461Y318798D01*
G01X1543111Y315750D01*
G01X2467021Y-161768D02*
G01X2467021Y-226792D01*
G01X2467021Y-161768D02*
G01X2494961Y-161768D01*
G01X2504105Y-164816D01*
G01X2507153Y-167864D01*
G01X2510455Y-174214D01*
G01Y-180310D01*
G01X2507153Y-186406D01*
G01X2504105Y-189454D01*
G01X2494961Y-192756D01*
G01X2467021D01*
G01X2488611Y-192756D02*
G01X2510455Y-226792D01*
G01X2543729Y-177262D02*
G01X2543729Y-174214D01*
G01X2546777Y-167864D01*
G01X2549825Y-164816D01*
G01X2555921Y-161768D01*
G01X2568367D01*
G01X2574717Y-164816D01*
G01X2577765Y-167864D01*
G01X2580813Y-174214D01*
G01Y-180310D01*
G01X2577765Y-186406D01*
G01X2571415Y-195804D01*
G01X2540681Y-226792D01*
G01X2583861D01*
G01X2657267Y-161768D02*
G01X2626279Y-226792D01*
G01X2614087Y-161768D02*
G01X2657267Y-161768D01*
G01X3703320Y640334D02*
G01X3703320Y575310D01*
G01X3703320Y640334D02*
G01X3731260Y640334D01*
G01X3740404Y637286D01*
G01X3743452Y634238D01*
G01X3746754Y627888D01*
G01Y621792D01*
G01X3743452Y615696D01*
G01X3740404Y612648D01*
G01X3731260Y609346D01*
G01X3703320D01*
G01X3724910Y609346D02*
G01X3746754Y575310D01*
G01X3780028Y624840D02*
G01X3780028Y627888D01*
G01X3783076Y634238D01*
G01X3786124Y637286D01*
G01X3792220Y640334D01*
G01X3804666D01*
G01X3811016Y637286D01*
G01X3814064Y634238D01*
G01X3817112Y627888D01*
G01Y621792D01*
G01X3814064Y615696D01*
G01X3807714Y606298D01*
G01X3776980Y575310D01*
G01X3820160D01*
G01X3887470Y631190D02*
G01X3884422Y637286D01*
G01X3875024Y640334D01*
G01X3868928D01*
G01X3859530Y637286D01*
G01X3853434Y627888D01*
G01X3850386Y612648D01*
G01Y597154D01*
G01X3853434Y584708D01*
G01X3859530Y578358D01*
G01X3868928Y575310D01*
G01X3871976D01*
G01X3881120Y578358D01*
G01X3887470Y584708D01*
G01X3890518Y593852D01*
G01Y597154D01*
G01X3887470Y606298D01*
G01X3881120Y612648D01*
G01X3871976Y615696D01*
G01X3868928D01*
G01X3859530Y612648D01*
G01X3853434Y606298D01*
G01X3850386Y597154D01*
G01X3423920Y1415034D02*
G01X3423920Y1350010D01*
G01X3423920Y1415034D02*
G01X3451860Y1415034D01*
G01X3461004Y1411986D01*
G01X3464052Y1408938D01*
G01X3467354Y1402588D01*
G01Y1396492D01*
G01X3464052Y1390396D01*
G01X3461004Y1387348D01*
G01X3451860Y1384046D01*
G01X3423920D01*
G01X3445510Y1384046D02*
G01X3467354Y1350010D01*
G01X3500628Y1399540D02*
G01X3500628Y1402588D01*
G01X3503676Y1408938D01*
G01X3506724Y1411986D01*
G01X3512820Y1415034D01*
G01X3525266D01*
G01X3531616Y1411986D01*
G01X3534664Y1408938D01*
G01X3537712Y1402588D01*
G01Y1396492D01*
G01X3534664Y1390396D01*
G01X3528314Y1380998D01*
G01X3497580Y1350010D01*
G01X3540760D01*
G01X3608070Y1415034D02*
G01X3577082Y1415034D01*
G01X3574034Y1387348D01*
G01X3577082Y1390396D01*
G01X3586226Y1393444D01*
G01X3595624D01*
G01X3605022Y1390396D01*
G01X3611118Y1384046D01*
G01X3614166Y1374902D01*
G01Y1368552D01*
G01X3611118Y1359408D01*
G01X3605022Y1353058D01*
G01X3595624Y1350010D01*
G01X3586226D01*
G01X3577082Y1353058D01*
G01X3574034Y1356360D01*
G01X3570986Y1362456D01*
G01X2588288Y-573085D02*
G01X2588288Y-638109D01*
G01X2588288Y-573085D02*
G01X2616228Y-573085D01*
G01X2625372Y-576133D01*
G01X2628420Y-579181D01*
G01X2631722Y-585531D01*
G01Y-591627D01*
G01X2628420Y-597723D01*
G01X2625372Y-600771D01*
G01X2616228Y-604073D01*
G01X2588288D01*
G01X2609878Y-604073D02*
G01X2631722Y-638109D01*
G01X2664996Y-588579D02*
G01X2664996Y-585531D01*
G01X2668044Y-579181D01*
G01X2671092Y-576133D01*
G01X2677188Y-573085D01*
G01X2689634D01*
G01X2695984Y-576133D01*
G01X2699032Y-579181D01*
G01X2702080Y-585531D01*
G01Y-591627D01*
G01X2699032Y-597723D01*
G01X2692682Y-607121D01*
G01X2661948Y-638109D01*
G01X2705128D01*
G01X2766088Y-573085D02*
G01X2735354Y-616265D01*
G01X2781582D01*
G01X2766088Y-573085D02*
G01X2766088Y-638109D01*
G01X1007679Y18570D02*
G01X1001329Y15522D01*
G01X995233Y9172D01*
G01X992185Y3076D01*
G01Y-9370D01*
G01X995233Y-15466D01*
G01X1001329Y-21816D01*
G01X1007679Y-24864D01*
G01X1016823Y-27912D01*
G01X1032317D01*
G01X1041715Y-24864D01*
G01X1047811Y-21816D01*
G01X1054161Y-15466D01*
G01X1057209Y-9370D01*
G01Y3076D01*
G01X1054161Y9172D01*
G01X1047811Y15522D01*
G01X1041715Y18570D01*
G01X992185Y79530D02*
G01X1035365Y48796D01*
G01Y95024D01*
G01X992185Y79530D02*
G01X1057209Y79530D01*
G01X992185Y143792D02*
G01X995233Y134394D01*
G01X1004631Y128298D01*
G01X1019871Y125250D01*
G01X1029269D01*
G01X1044763Y128298D01*
G01X1054161Y134394D01*
G01X1057209Y143792D01*
G01Y149888D01*
G01X1054161Y159286D01*
G01X1044763Y165382D01*
G01X1029269Y168430D01*
G01X1019871D01*
G01X1004631Y165382D01*
G01X995233Y159286D01*
G01X992185Y149888D01*
G01Y143792D01*
G04 Text End*

G04 PolygonModel Start*
G01X349301Y489918D02*
G01X172161Y489918D01*
G01X172161Y489918D02*
G01X172161Y-515320D01*
G01X172161Y-515320D02*
G01X691439Y-515320D01*
G01X691439Y-515320D02*
G01X691439Y489918D01*
G01X691439Y489918D02*
G01X514299Y489918D01*
G01X349301Y489920D02*
G03X514299Y489920I82499J0D01*
G01X5587238Y1572006D02*
G01X5587238Y1776222D01*
G01X5587238Y1776222D02*
G01X5186426Y1776222D01*
G01X5186426Y1776222D02*
G01X5055362Y1645412D01*
G01X5055362Y1645412D02*
G01X5055362Y1572006D01*
G01X5586222Y1450594D02*
G01X5586222Y1249426D01*
G01X5586222Y1249426D02*
G01X5184140Y1249426D01*
G01X5184140Y1249426D02*
G01X5055362Y1378204D01*
G01X5055362Y1378204D02*
G01X5055362Y1450594D01*
G36*
G01X5546900Y1408100D02*
G01X5546900Y1393701D01*
G01X5489301D01*
G01Y1408100D01*
G01X5546900D01*
G37*
G36*
G01X5095700Y1408100D02*
G01X5095700Y1393701D01*
G01X5153299D01*
G01Y1408100D01*
G01X5095700D01*
G37*
G36*
G01X5117300Y1448900D02*
G01X5117300Y1352901D01*
G01X5131699D01*
G01Y1448900D01*
G01X5117300D01*
G37*
G01X4880681Y-1252141D02*
G01X4737186Y-1252141D01*
G01X4737186Y-1252141D02*
G01X4737186Y-1643459D01*
G01X4737186Y-1643459D02*
G01X4880681Y-1643459D01*
G01X5380919Y-1252141D02*
G01X5524414Y-1252141D01*
G01X5524414Y-1252141D02*
G01X5524414Y-1643459D01*
G01X5524414Y-1643459D02*
G01X5380919Y-1643459D01*
G01X3977152Y2352830D02*
G01X3833658Y2352830D01*
G01X3833658Y2352830D02*
G01X3833658Y1961512D01*
G01X3833658Y1961512D02*
G01X3977152Y1961512D01*
G01X4477390Y2352830D02*
G01X4620885Y2352830D01*
G01X4620885Y2352830D02*
G01X4620885Y1961512D01*
G01X4620885Y1961512D02*
G01X4477390Y1961512D01*
G54D11*
G01X691799Y990300D02*
G01X171801Y990300D01*
G01X171801Y990300D02*
G01X171801Y1270300D01*
G01X691799Y1270300D02*
G01X171801Y1270300D01*
G01X691799Y990300D02*
G01X691799Y1270300D01*
G01X595874Y990300D02*
G01X595874Y1270300D01*
G01X2546701Y1676700D02*
G01X3066699Y1676700D01*
G01X3066699Y1676700D02*
G01X3066699Y1396700D01*
G01X2546701Y1396700D02*
G01X3066699Y1396700D01*
G01X2546701Y1676700D02*
G01X2546701Y1396700D01*
G01X2642626Y1676700D02*
G01X2642626Y1396700D01*
G01X2521301Y-1155400D02*
G01X3041299Y-1155400D01*
G01X3041299Y-1155400D02*
G01X3041299Y-1435400D01*
G01X2521301Y-1435400D02*
G01X3041299Y-1435400D01*
G01X2521301Y-1155400D02*
G01X2521301Y-1435400D01*
G01X2617226Y-1155400D02*
G01X2617226Y-1435400D01*
G01X5093000Y-336901D02*
G01X5093000Y-856899D01*
G01X5093000Y-856899D02*
G01X4813000Y-856899D01*
G01X4813000Y-336901D02*
G01X4813000Y-856899D01*
G01X5093000Y-336901D02*
G01X4813000Y-336901D01*
G01X5093000Y-432826D02*
G01X4813000Y-432826D01*
G01X5080300Y818799D02*
G01X5080300Y298801D01*
G01X5080300Y298801D02*
G01X4800300Y298801D01*
G01X4800300Y818799D02*
G01X4800300Y298801D01*
G01X5080300Y818799D02*
G01X4800300Y818799D01*
G01X5080300Y722874D02*
G01X4800300Y722874D01*
G54D10*
G01X5435824Y195659D02*
G01X5292329Y195659D01*
G01X5292329Y195659D02*
G01X5292329Y-195659D01*
G01X5292329Y-195659D02*
G01X5435824Y-195659D01*
G01X5936061Y195659D02*
G01X6079556Y195659D01*
G01X6079556Y195659D02*
G01X6079556Y-195659D01*
G01X6079556Y-195659D02*
G01X5936061Y-195659D01*
G01X5969000Y406400D02*
G01X5442367Y407863D01*
G01X5968573Y787400D02*
G01X5443220Y785622D01*
G36*
G01X5930900Y406400D02*
G01X5930900Y475351D01*
G01X5976620D01*
G01Y406400D01*
G01X5930900D01*
G37*
G36*
G01X5930900Y787400D02*
G01X5930900Y718449D01*
G01X5976620D01*
G01Y787400D01*
G01X5930900D01*
G37*
G36*
G01X5435600Y787400D02*
G01X5435600Y718449D01*
G01X5481320D01*
G01Y787400D01*
G01X5435600D01*
G37*
G36*
G01X5435600Y406400D02*
G01X5435600Y475351D01*
G01X5481320D01*
G01Y406400D01*
G01X5435600D01*
G37*
G36*
G01X5765800Y533400D02*
G01X5702300Y596900D01*
G01X5765800Y660400D01*
G01Y533400D01*
G37*
G36*
G01X5638800Y533400D02*
G01X5638800Y660400D01*
G01X5702300Y596900D01*
G01X5638800Y533400D01*
G37*
G54D11*
G01X2654313Y419100D02*
G01X2578113Y419100D01*
G01X3568713Y419100D02*
G01X3644913Y419100D01*
G01X1465301Y-281297D02*
G01X1465301Y1068697D01*
G01X1465301Y1068697D02*
G01X2065299Y1068697D01*
G01X2065299Y1068697D02*
G01X2065299Y-281297D01*
G01X2065299Y-281297D02*
G01X1465301Y-281297D01*
G01X3276587Y-850900D02*
G01X3352787Y-850900D01*
G01X2362187Y-850900D02*
G01X2285987Y-850900D01*
G01X3301987Y1104900D02*
G01X3378187Y1104900D01*
G01X2387587Y1104900D02*
G01X2311387Y1104900D01*
G01X3289287Y-406400D02*
G01X3365487Y-406400D01*
G01X2374887Y-406400D02*
G01X2298687Y-406400D01*
G01X71806Y861593D02*
G01X71806Y611607D01*
G01X71806Y861593D02*
G01X791794Y861593D01*
G01X791794Y611607D02*
G01X791794Y861593D01*
G01X791794Y611607D02*
G01X71806Y611607D01*
G01X71806Y1623593D02*
G01X71806Y1373607D01*
G01X71806Y1623593D02*
G01X791794Y1623593D01*
G01X791794Y1373607D02*
G01X791794Y1623593D01*
G01X791794Y1373607D02*
G01X71806Y1373607D01*
G01X5947994Y916407D02*
G01X5947994Y1166393D01*
G01X5947994Y916407D02*
G01X5228006Y916407D01*
G01X5228006Y1166393D02*
G01X5228006Y916407D01*
G01X5228006Y1166393D02*
G01X5947994Y1166393D01*
G01X-406400Y516301D02*
G01X-152400Y516301D01*
G01X-406400Y-541701D02*
G01X-406400Y516301D01*
G01X-406400Y-264348D02*
G01X-152400Y-264348D01*
G01X-152400Y-541701D02*
G01X-152400Y516301D01*
G01X-406400Y-541701D02*
G01X-152400Y-541701D01*
G01X3623894Y2021307D02*
G01X3623894Y2271293D01*
G01X3623894Y2021307D02*
G01X2903906Y2021307D01*
G01X2903906Y2271293D02*
G01X2903906Y2021307D01*
G01X2903906Y2271293D02*
G01X3623894Y2271293D01*
G01X4821606Y2207793D02*
G01X4821606Y1957807D01*
G01X4821606Y2207793D02*
G01X5541594Y2207793D01*
G01X5541594Y1957807D02*
G01X5541594Y2207793D01*
G01X5541594Y1957807D02*
G01X4821606Y1957807D01*
G01X3739363Y1248598D02*
G01X4733290Y1248598D01*
G01X3739004Y1318430D02*
G01X3741290Y873003D01*
G01X3741290Y873003D02*
G01X4733290Y873003D01*
G01X4733290Y873003D02*
G01X4733290Y1319002D01*
G01X4733290Y1319002D02*
G01X3738814Y1318748D01*
G01X3726167Y-503507D02*
G01X4720095Y-503507D01*
G01X3725809Y-433675D02*
G01X3728095Y-879102D01*
G01X3728095Y-879102D02*
G01X4720095Y-879102D01*
G01X4720095Y-879102D02*
G01X4720095Y-433103D01*
G01X4720095Y-433103D02*
G01X3725619Y-433357D01*
G01X2336800Y2286000D02*
G01X1574800Y2286000D01*
G01X1574800Y2286000D02*
G01X1574800Y2540000D01*
G01X2336800Y2540000D02*
G01X1574800Y2540000D01*
G01X2336800Y2286000D02*
G01X2336800Y2540000D01*
G01X2077956Y2286000D02*
G01X2077956Y2540000D01*
G01X1145007Y-156794D02*
G01X1394993Y-156794D01*
G01X1145007Y-156794D02*
G01X1145007Y563194D01*
G01X1394993Y563194D02*
G01X1145007Y563194D01*
G01X1394993Y563194D02*
G01X1394993Y-156794D01*
G04 PolygonModel End*

G04 Rect Start*
G01X3561499Y254102D02*
G01X3561499Y584098D01*
G01X2661501D01*
G01Y254102D01*
G01X3561499D01*
G01X2369401Y-685902D02*
G01X2369401Y-1015898D01*
G01X3269399D01*
G01Y-685902D01*
G01X2369401D01*
G01X2394801Y1269898D02*
G01X2394801Y939902D01*
G01X3294799D01*
G01Y1269898D01*
G01X2394801D01*
G01X2382101Y-241402D02*
G01X2382101Y-571398D01*
G01X3282099D01*
G01Y-241402D01*
G01X2382101D01*
G04 Rect End*

G04 Circle Start*
G54D12*
G01X111989Y495300D02*
G03X142011Y495300I15011J0D01*
G03X111989I-15011J0D01*
G04 Circle End*

M02*
