G04 Layer: TopSolderMaskLayer*
G04 EasyEDA Pro v2.1.64.d1969c9c.217bcf, 2024-10-29 15:11:35*
G04 Gerber Generator version 0.3*
G04 Scale: 100 percent, Rotated: No, Reflected: No*
G04 Dimensions in millimeters*
G04 Leading zeros omitted, absolute positions, 3 integers and 5 decimals*
%FSLAX35Y35*%
%MOMM*%
%AMRoundRect*1,1,$1,$2,$3*1,1,$1,$4,$5*1,1,$1,0-$2,0-$3*1,1,$1,0-$4,0-$5*20,1,$1,$2,$3,$4,$5,0*20,1,$1,$4,$5,0-$2,0-$3,0*20,1,$1,0-$2,0-$3,0-$4,0-$5,0*20,1,$1,0-$4,0-$5,$2,$3,0*4,1,4,$2,$3,$4,$5,0-$2,0-$3,0-$4,0-$5,$2,$3,0*%
%ADD10O,2.0716X1.6256*%
%ADD11RoundRect,0.09233X-1.35463X0.45964X1.35463X0.45964*%
%ADD12RoundRect,0.09465X0.64474X-1.73147X-0.64474X-1.73147*%
%ADD13C,1.9016*%
%ADD14RoundRect,0.09738X-1.02606X1.12281X1.02606X1.12281*%
%ADD15C,1.6256*%
%ADD16C,1.7*%
%ADD17RoundRect,0.09618X-0.85271X-0.85271X-0.85271X0.85271*%
%ADD18C,1.8016*%
%ADD19O,1.9016X2.70159*%
%ADD20RoundRect,0.09645X-0.90257X1.30257X0.90257X1.30257*%
%ADD21C,1.6768*%
%ADD22RoundRect,0.09615X0.79032X-0.79032X-0.79032X-0.79032*%
G75*


G04 Pad Start*
G54D10*
G01X50800Y368300D03*
G01X812800Y368300D03*
G01X50800Y114300D03*
G01X812800Y114300D03*
G01X50800Y-139700D03*
G01X812800Y-139700D03*
G01X50800Y-393700D03*
G01X812800Y-393700D03*
G54D11*
G01X5081295Y1511300D03*
G01X5561305Y1511300D03*
G54D12*
G01X4824171Y-1447800D03*
G01X5437429Y-1447800D03*
G01X3920642Y2157171D03*
G01X4533900Y2157171D03*
G54D13*
G01X866800Y1130300D03*
G01X-3200Y1130300D03*
G01X2371700Y1536700D03*
G01X3241700Y1536700D03*
G01X2346300Y-1295400D03*
G01X3216300Y-1295400D03*
G01X4953000Y-161900D03*
G01X4953000Y-1031900D03*
G01X4940300Y993800D03*
G01X4940300Y123800D03*
G54D12*
G01X5379314Y0D03*
G01X5992571Y0D03*
G54D14*
G01X5443169Y596900D03*
G01X5961431Y596900D03*
G54D15*
G01X2461501Y419100D03*
G01X3761499Y419100D03*
G54D13*
G01X1765300Y-131293D03*
G01X1765300Y918693D03*
G54D15*
G01X3469399Y-850900D03*
G01X2169401Y-850900D03*
G01X3494799Y1104900D03*
G01X2194801Y1104900D03*
G01X3482099Y-406400D03*
G01X2182101Y-406400D03*
G54D16*
G01X181801Y736600D03*
G01X681800Y736600D03*
G01X181801Y1498600D03*
G01X681800Y1498600D03*
G01X5838000Y1041400D03*
G01X5338001Y1041400D03*
G54D17*
G01X-279400Y-393700D03*
G54D18*
G01X-279400Y-139700D03*
G01X-279400Y114300D03*
G01X-279400Y368300D03*
G54D16*
G01X3513900Y2146300D03*
G01X3013901Y2146300D03*
G01X4931601Y2082800D03*
G01X5431600Y2082800D03*
G54D19*
G01X4242295Y1079500D03*
G01X4496295Y1078509D03*
G54D20*
G01X3988295Y1079500D03*
G54D19*
G01X4229100Y-672605D03*
G01X4483100Y-673595D03*
G54D20*
G01X3975100Y-672605D03*
G54D21*
G01X1701800Y2413000D03*
G01X1955800Y2413000D03*
G54D22*
G01X2209800Y2413000D03*
G54D16*
G01X1270000Y-46799D03*
G01X1270000Y453200D03*
G04 Pad End*

M02*
