;TYPE=PLATED
;Layer: PTH_Through
;EasyEDA Pro Client v2.1.64.d1969c9c.217bcf, 2024-09-26 22:54:29
;Gerber Generator version 0.3
M48
METRIC,LZ,000.00000
;Hole size 1 = 0.80000 METRIC
T01C0.80000
;Hole size 2 = 1.00000 METRIC
T02C1.00000
;Hole size 3 = 1.10002 METRIC
T03C1.10002
;Hole size 4 = 1.19990 METRIC
T04C1.19990
;Hole size 5 = 4.00000 METRIC
T05C4.00000
%
G05
G90
T01
X06612636Y01270000
X06112764Y01270000
T02
X08978900Y-01927195
X08978900Y-02797205
X08991600Y00028605
X08991600Y-00841405
X07162800Y-04394200
X07416800Y-04394200
T03
X07074200Y-04000500
X05524200Y-04000500
X07086900Y-03251200
X05536900Y-03251200
X07061500Y-01892300
X05511500Y-01892300
X05524200Y-02514600
X07074200Y-02514600
X07071030Y-01072401
X05521030Y-01072401
X05511500Y-00215900
X07061500Y-00215900
X04546600Y-02120900
X04546600Y-01866900
X04546600Y-01612900
X04546600Y-01358900
X07099600Y00571500
X05549600Y00571500
T04
X04927600Y01004001
X04927600Y-00496001
X08839901Y00952500
X07339899Y00952500
T05
X05632412Y01753489
X05010112Y-03823983
M30