G04 Layer: TopLayer*
G04 EasyEDA Pro v2.1.64.d1969c9c.217bcf, 2024-09-26 22:54:29*
G04 Gerber Generator version 0.3*
G04 Scale: 100 percent, Rotated: No, Reflected: No*
G04 Dimensions in millimeters*
G04 Leading zeros omitted, absolute positions, 3 integers and 5 decimals*
%FSLAX35Y35*%
%MOMM*%
%ADD10C,1.8*%
%ADD11R,1.13401X3.35854*%
%ADD12R,10.5664X7.18053*%
%ADD13C,1.6*%
%ADD14R,1.7X1.7*%
%ADD15C,1.7*%
%ADD16C,4.5*%
%ADD17R,1.8X1.8*%
%ADD18C,2.286*%
%ADD19C,1.4986*%
%ADD20C,2.54*%
%ADD21C,2.032*%
%ADD22C,1.524*%
%ADD23C,1.778*%
G75*


G04 Pad Start*
G54D10*
G01X8978900Y-1927200D03*
G01X8978900Y-2797200D03*
G01X8991600Y28600D03*
G01X8991600Y-841400D03*
G54D11*
G01X7818625Y-1102269D03*
G01X8326625Y-1102269D03*
G54D12*
G01X8072625Y-45121D03*
G54D11*
G01X7797808Y-3220969D03*
G01X8305808Y-3220969D03*
G54D12*
G01X8051808Y-2163821D03*
G54D13*
G01X7074205Y-4000500D03*
G01X5524195Y-4000500D03*
G01X7086905Y-3251200D03*
G01X5536895Y-3251200D03*
G01X7061505Y-1892300D03*
G01X5511495Y-1892300D03*
G01X5524195Y-2514600D03*
G01X7074205Y-2514600D03*
G01X7071035Y-1072401D03*
G01X5521025Y-1072401D03*
G01X5511495Y-215900D03*
G01X7061505Y-215900D03*
G54D10*
G01X6612636Y1270000D03*
G01X6112764Y1270000D03*
G01X4927600Y1004011D03*
G01X4927600Y-496011D03*
G01X8839911Y952500D03*
G01X7339889Y952500D03*
G54D14*
G01X4546600Y-2120900D03*
G54D15*
G01X4546600Y-1866900D03*
G01X4546600Y-1612900D03*
G01X4546600Y-1358900D03*
G54D13*
G01X7099605Y571500D03*
G01X5549595Y571500D03*
G54D16*
G01X5632412Y1753489D03*
G01X5010112Y-3823983D03*
G54D10*
G01X7162800Y-4394200D03*
G54D17*
G01X7416800Y-4394200D03*
G04 Pad End*

G04 Track Start*
G54D18*
G01X4546600Y-1358900D02*
G01X5234526Y-1358900D01*
G01X5521025Y-1072401D01*
G54D19*
G01X4546600Y-1866900D02*
G01X4305300Y-1866900D01*
G01X4140200Y-2032000D01*
G54D20*
G01X7797800Y-2895600D02*
G01X7797800Y-3220961D01*
G01X7797808Y-3220969D02*
G01X7797808Y-3505200D01*
G54D21*
G01X7818625Y-868175D02*
G01X7823200Y-863600D01*
G01X7818625Y-1102269D02*
G01X7818625Y-1354325D01*
G01X7835900Y-1371600D01*
G01X7071035Y-1072401D02*
G01X7788758Y-1072401D01*
G01X7818625Y-1102269D01*
G01Y-868175D01*
G54D20*
G01X7061505Y-215900D02*
G01X7061505Y-1062871D01*
G01X7071035Y-1072401D01*
G54D21*
G01X7099605Y571500D02*
G01X7339889Y811784D01*
G01X7339889Y687616D02*
G01X8072625Y-45121D01*
G01X7339889Y952500D02*
G01X7339889Y811784D01*
G01Y687616D01*
G01X6612636Y1270000D02*
G01X7022389Y1270000D01*
G01X7339889Y952500D01*
G01X4927600Y1004011D02*
G01X5846775Y1004011D01*
G01X6112764Y1270000D01*
G01X5549595Y571500D02*
G01X4102100Y-875995D01*
G54D22*
G01X4102100Y-1371600D02*
G01X4343400Y-1612900D01*
G01X4469306D01*
G01X4102100Y-1371600D02*
G01X4102100Y-875995D01*
G01X5511495Y-215900D02*
G01X6112764Y385369D01*
G01Y1270000D01*
G54D18*
G01X4927600Y-496011D02*
G01X6032094Y-496011D01*
G01X7099605Y571500D01*
G54D22*
G01X8331200Y-3246361D02*
G01X8305808Y-3220969D01*
G54D21*
G01X8991600Y28600D02*
G01X8146346Y28600D01*
G01X8072625Y-45121D01*
G54D18*
G01X4140200Y-2032000D02*
G01X3708400Y-1600200D01*
G54D21*
G01X6112764Y1270000D02*
G01X6646164Y1803400D01*
G01X7989011D01*
G01X8839911Y952500D01*
G54D19*
G01X4546600Y-2120900D02*
G01X5282895Y-2120900D01*
G01X5511495Y-1892300D01*
G01X5524195Y-2514600D02*
G01X5524195Y-3238500D01*
G01X5536895Y-3251200D01*
G54D20*
G01X7074205Y-2514600D02*
G01X7074205Y-1905000D01*
G01X7061505Y-1892300D01*
G54D18*
G01X5536895Y-3251200D02*
G01X4724400Y-3251200D01*
G01X4140200Y-2667000D02*
G01X4140200Y-2032000D01*
G01X4724400Y-3251200D02*
G01X4140200Y-2667000D01*
G54D20*
G01X7074205Y-2514600D02*
G01X7455205Y-2895600D01*
G01X7797800D01*
G54D18*
G01X3708400Y-1600200D02*
G01X3708400Y-165100D01*
G54D23*
G01X4877511Y1004011D02*
G01X4927600Y1004011D01*
G54D18*
G01X4877511Y1004011D02*
G01X3708400Y-165100D01*
G01X8978900Y-1927200D02*
G01X8288429Y-1927200D01*
G01X8051808Y-2163821D01*
G01X8166100Y-1993900D02*
G01X8326625Y-1833375D01*
G01Y-1102269D01*
G01X8730732D01*
G01X8991600Y-841400D01*
G54D20*
G01X7086905Y-3251200D02*
G01X7086905Y-3480105D01*
G01X7493000Y-3886200D01*
G01X7999787D01*
G01X8305808Y-3580179D01*
G54D21*
G01X8331200Y-3157243D02*
G01X8331200Y-3246361D01*
G54D20*
G01X8691243Y-2797200D02*
G01X8978900Y-2797200D01*
G01X8331200Y-3157243D02*
G01X8691243Y-2797200D01*
G01X8305808Y-3580179D02*
G01X8305808Y-3220969D01*
G54D21*
G01X8331200Y-2895600D02*
G01X8331200Y-3157243D01*
G54D20*
G01X5524195Y-4000500D02*
G01X6413500Y-3111195D01*
G01X7335787Y-1447800D02*
G01X8051808Y-2163821D01*
G01X6413500Y-3111195D02*
G01X6413500Y-1968500D01*
G01X6934200Y-1447800D01*
G01X7335787D01*
G01X7074205Y-4000500D02*
G01X7416800Y-4343095D01*
G01Y-4394200D01*
G01X7162800Y-4394200D02*
G01X7416800Y-4394200D01*
G04 Track End*

M02*
