G04 Layer: TopSilkscreenLayer*
G04 EasyEDA Pro v2.1.64.d1969c9c.217bcf, 2024-09-26 22:54:29*
G04 Gerber Generator version 0.3*
G04 Scale: 100 percent, Rotated: No, Reflected: No*
G04 Dimensions in millimeters*
G04 Leading zeros omitted, absolute positions, 3 integers and 5 decimals*
%FSLAX35Y35*%
%MOMM*%
%ADD10C,0.1524*%
%ADD11C,0.254*%
G75*


G04 Text Start*
G54D10*
G01X9323156Y-1844820D02*
G01X9258132Y-1844820D01*
G01X9323156Y-1844820D02*
G01X9323156Y-1866410D01*
G01X9320108Y-1875808D01*
G01X9314012Y-1881904D01*
G01X9307662Y-1884952D01*
G01X9298518Y-1888254D01*
G01X9283024D01*
G01X9273626Y-1884952D01*
G01X9267530Y-1881904D01*
G01X9261180Y-1875808D01*
G01X9258132Y-1866410D01*
G01Y-1844820D01*
G01X9310710Y-1918480D02*
G01X9314012Y-1924576D01*
G01X9323156Y-1933720D01*
G01X9258132D01*
G01X9307662Y-1966994D02*
G01X9310710Y-1966994D01*
G01X9317060Y-1970042D01*
G01X9320108Y-1973090D01*
G01X9323156Y-1979186D01*
G01Y-1991632D01*
G01X9320108Y-1997982D01*
G01X9317060Y-2001030D01*
G01X9310710Y-2004078D01*
G01X9304614D01*
G01X9298518Y-2001030D01*
G01X9289120Y-1994680D01*
G01X9258132Y-1963946D01*
G01Y-2007126D01*
G01X7146585Y-4345135D02*
G01X7146585Y-4280111D01*
G01X7146585Y-4345135D02*
G01X7118645Y-4345135D01*
G01X7109501Y-4342087D01*
G01X7106453Y-4339039D01*
G01X7103151Y-4332689D01*
G01Y-4326593D01*
G01X7106453Y-4320497D01*
G01X7109501Y-4317449D01*
G01X7118645Y-4314147D01*
G01X7146585D01*
G01X7124995Y-4314147D02*
G01X7103151Y-4280111D01*
G01X7069877Y-4329641D02*
G01X7069877Y-4332689D01*
G01X7066829Y-4339039D01*
G01X7063781Y-4342087D01*
G01X7057685Y-4345135D01*
G01X7045239D01*
G01X7038889Y-4342087D01*
G01X7035841Y-4339039D01*
G01X7032793Y-4332689D01*
G01Y-4326593D01*
G01X7035841Y-4320497D01*
G01X7042191Y-4311099D01*
G01X7072925Y-4280111D01*
G01X7029745D01*
G01X7159285Y-3595835D02*
G01X7159285Y-3530811D01*
G01X7159285Y-3595835D02*
G01X7131345Y-3595835D01*
G01X7122201Y-3592787D01*
G01X7119153Y-3589739D01*
G01X7115851Y-3583389D01*
G01Y-3577293D01*
G01X7119153Y-3571197D01*
G01X7122201Y-3568149D01*
G01X7131345Y-3564847D01*
G01X7159285D01*
G01X7137695Y-3564847D02*
G01X7115851Y-3530811D01*
G01X7079529Y-3595835D02*
G01X7045493Y-3595835D01*
G01X7064035Y-3571197D01*
G01X7054891D01*
G01X7048541Y-3568149D01*
G01X7045493Y-3564847D01*
G01X7042445Y-3555703D01*
G01Y-3549353D01*
G01X7045493Y-3540209D01*
G01X7051589Y-3533859D01*
G01X7060987Y-3530811D01*
G01X7070385D01*
G01X7079529Y-3533859D01*
G01X7082577Y-3537161D01*
G01X7085625Y-3543257D01*
G01X7133885Y-2236935D02*
G01X7133885Y-2171911D01*
G01X7133885Y-2236935D02*
G01X7105945Y-2236935D01*
G01X7096801Y-2233887D01*
G01X7093753Y-2230839D01*
G01X7090451Y-2224489D01*
G01Y-2218393D01*
G01X7093753Y-2212297D01*
G01X7096801Y-2209249D01*
G01X7105945Y-2205947D01*
G01X7133885D01*
G01X7112295Y-2205947D02*
G01X7090451Y-2171911D01*
G01X7029491Y-2236935D02*
G01X7060225Y-2193755D01*
G01X7013997D01*
G01X7029491Y-2236935D02*
G01X7029491Y-2171911D01*
G01X5451815Y-2169965D02*
G01X5451815Y-2234989D01*
G01X5451815Y-2169965D02*
G01X5479755Y-2169965D01*
G01X5488899Y-2173013D01*
G01X5491947Y-2176061D01*
G01X5495249Y-2182411D01*
G01Y-2188507D01*
G01X5491947Y-2194603D01*
G01X5488899Y-2197651D01*
G01X5479755Y-2200953D01*
G01X5451815D01*
G01X5473405Y-2200953D02*
G01X5495249Y-2234989D01*
G01X5562559Y-2169965D02*
G01X5531571Y-2169965D01*
G01X5528523Y-2197651D01*
G01X5531571Y-2194603D01*
G01X5540715Y-2191555D01*
G01X5550113D01*
G01X5559511Y-2194603D01*
G01X5565607Y-2200953D01*
G01X5568655Y-2210097D01*
G01Y-2216447D01*
G01X5565607Y-2225591D01*
G01X5559511Y-2231941D01*
G01X5550113Y-2234989D01*
G01X5540715D01*
G01X5531571Y-2231941D01*
G01X5528523Y-2228639D01*
G01X5525475Y-2222543D01*
G01X7142480Y-1465834D02*
G01X7142480Y-1400810D01*
G01X7142480Y-1465834D02*
G01X7114540Y-1465834D01*
G01X7105396Y-1462786D01*
G01X7102348Y-1459738D01*
G01X7099046Y-1453388D01*
G01Y-1447292D01*
G01X7102348Y-1441196D01*
G01X7105396Y-1438148D01*
G01X7114540Y-1434846D01*
G01X7142480D01*
G01X7120890Y-1434846D02*
G01X7099046Y-1400810D01*
G01X7031736Y-1456690D02*
G01X7034784Y-1462786D01*
G01X7044182Y-1465834D01*
G01X7050278D01*
G01X7059676Y-1462786D01*
G01X7065772Y-1453388D01*
G01X7068820Y-1438148D01*
G01Y-1422654D01*
G01X7065772Y-1410208D01*
G01X7059676Y-1403858D01*
G01X7050278Y-1400810D01*
G01X7047230D01*
G01X7038086Y-1403858D01*
G01X7031736Y-1410208D01*
G01X7028688Y-1419352D01*
G01Y-1422654D01*
G01X7031736Y-1431798D01*
G01X7038086Y-1438148D01*
G01X7047230Y-1441196D01*
G01X7050278D01*
G01X7059676Y-1438148D01*
G01X7065772Y-1431798D01*
G01X7068820Y-1422654D01*
G01X5439115Y128735D02*
G01X5439115Y63711D01*
G01X5439115Y128735D02*
G01X5467055Y128735D01*
G01X5476199Y125687D01*
G01X5479247Y122639D01*
G01X5482549Y116289D01*
G01Y110193D01*
G01X5479247Y104097D01*
G01X5476199Y101049D01*
G01X5467055Y97747D01*
G01X5439115D01*
G01X5460705Y97747D02*
G01X5482549Y63711D01*
G01X5555955Y128735D02*
G01X5524967Y63711D01*
G01X5512775Y128735D02*
G01X5555955Y128735D01*
G01X4299966Y-2252980D02*
G01X4364990Y-2252980D01*
G01X4299966Y-2209546D02*
G01X4364990Y-2209546D01*
G01X4330954Y-2252980D02*
G01X4330954Y-2209546D01*
G01X4312412Y-2179320D02*
G01X4309110Y-2173224D01*
G01X4299966Y-2164080D01*
G01X4364990D01*
G01X8914755Y420817D02*
G01X8917803Y414467D01*
G01X8924153Y408371D01*
G01X8930249Y405323D01*
G01X8942695D01*
G01X8948791Y408371D01*
G01X8955141Y414467D01*
G01X8958189Y420817D01*
G01X8961237Y429961D01*
G01Y445455D01*
G01X8958189Y454853D01*
G01X8955141Y460949D01*
G01X8948791Y467299D01*
G01X8942695Y470347D01*
G01X8930249D01*
G01X8924153Y467299D01*
G01X8917803Y460949D01*
G01X8914755Y454853D01*
G01X8878433Y405323D02*
G01X8844397Y405323D01*
G01X8862939Y429961D01*
G01X8853795D01*
G01X8847445Y433009D01*
G01X8844397Y436311D01*
G01X8841349Y445455D01*
G01Y451805D01*
G01X8844397Y460949D01*
G01X8850493Y467299D01*
G01X8859891Y470347D01*
G01X8869289D01*
G01X8878433Y467299D01*
G01X8881481Y463997D01*
G01X8884529Y457901D01*
G01X8792581Y405323D02*
G01X8801979Y408371D01*
G01X8808075Y417769D01*
G01X8811123Y433009D01*
G01Y442407D01*
G01X8808075Y457901D01*
G01X8801979Y467299D01*
G01X8792581Y470347D01*
G01X8786485D01*
G01X8777087Y467299D01*
G01X8770991Y457901D01*
G01X8767943Y442407D01*
G01Y433009D01*
G01X8770991Y417769D01*
G01X8777087Y408371D01*
G01X8786485Y405323D01*
G01X8792581D01*
G01X5459283Y1078855D02*
G01X5465633Y1081903D01*
G01X5471729Y1088253D01*
G01X5474777Y1094349D01*
G01Y1106795D01*
G01X5471729Y1112891D01*
G01X5465633Y1119241D01*
G01X5459283Y1122289D01*
G01X5450139Y1125337D01*
G01X5434645D01*
G01X5425247Y1122289D01*
G01X5419151Y1119241D01*
G01X5412801Y1112891D01*
G01X5409753Y1106795D01*
G01Y1094349D01*
G01X5412801Y1088253D01*
G01X5419151Y1081903D01*
G01X5425247Y1078855D01*
G01X5459283Y1045581D02*
G01X5462331Y1045581D01*
G01X5468681Y1042533D01*
G01X5471729Y1039485D01*
G01X5474777Y1033389D01*
G01Y1020943D01*
G01X5471729Y1014593D01*
G01X5468681Y1011545D01*
G01X5462331Y1008497D01*
G01X5456235D01*
G01X5450139Y1011545D01*
G01X5440741Y1017895D01*
G01X5409753Y1048629D01*
G01Y1005449D01*
G01X5453187Y935091D02*
G01X5443789Y938139D01*
G01X5437693Y944489D01*
G01X5434645Y953633D01*
G01Y956681D01*
G01X5437693Y966079D01*
G01X5443789Y972175D01*
G01X5453187Y975223D01*
G01X5456235D01*
G01X5465633Y972175D01*
G01X5471729Y966079D01*
G01X5474777Y956681D01*
G01Y953633D01*
G01X5471729Y944489D01*
G01X5465633Y938139D01*
G01X5453187Y935091D01*
G01X5437693D01*
G01X5422199Y938139D01*
G01X5412801Y944489D01*
G01X5409753Y953633D01*
G01Y959983D01*
G01X5412801Y969127D01*
G01X5419151Y972175D01*
G01X5869473Y-3092661D02*
G01X5866425Y-3086311D01*
G01X5860075Y-3080215D01*
G01X5853979Y-3077167D01*
G01X5841533D01*
G01X5835437Y-3080215D01*
G01X5829087Y-3086311D01*
G01X5826039Y-3092661D01*
G01X5822991Y-3101805D01*
G01Y-3117299D01*
G01X5826039Y-3126697D01*
G01X5829087Y-3132793D01*
G01X5835437Y-3139143D01*
G01X5841533Y-3142191D01*
G01X5853979D01*
G01X5860075Y-3139143D01*
G01X5866425Y-3132793D01*
G01X5869473Y-3126697D01*
G01X5902747Y-3092661D02*
G01X5902747Y-3089613D01*
G01X5905795Y-3083263D01*
G01X5908843Y-3080215D01*
G01X5914939Y-3077167D01*
G01X5927385D01*
G01X5933735Y-3080215D01*
G01X5936783Y-3083263D01*
G01X5939831Y-3089613D01*
G01Y-3095709D01*
G01X5936783Y-3101805D01*
G01X5930433Y-3111203D01*
G01X5899699Y-3142191D01*
G01X5942879D01*
G01X5988345Y-3077167D02*
G01X5979201Y-3080215D01*
G01X5976153Y-3086311D01*
G01Y-3092661D01*
G01X5979201Y-3098757D01*
G01X5985297Y-3101805D01*
G01X5997743Y-3104853D01*
G01X6007141Y-3108155D01*
G01X6013237Y-3114251D01*
G01X6016285Y-3120347D01*
G01Y-3129745D01*
G01X6013237Y-3135841D01*
G01X6010189Y-3139143D01*
G01X6000791Y-3142191D01*
G01X5988345D01*
G01X5979201Y-3139143D01*
G01X5976153Y-3135841D01*
G01X5973105Y-3129745D01*
G01Y-3120347D01*
G01X5976153Y-3114251D01*
G01X5982249Y-3108155D01*
G01X5991647Y-3104853D01*
G01X6003839Y-3101805D01*
G01X6010189Y-3098757D01*
G01X6013237Y-3092661D01*
G01Y-3086311D01*
G01X6010189Y-3080215D01*
G01X6000791Y-3077167D01*
G01X5988345D01*
G01X8707879Y287744D02*
G01X8704831Y293840D01*
G01X8698735Y300190D01*
G01X8692385Y303238D01*
G01X8683241Y306286D01*
G01X8667747D01*
G01X8658349Y303238D01*
G01X8652253Y300190D01*
G01X8645903Y293840D01*
G01X8642855Y287744D01*
G01Y275298D01*
G01X8645903Y269202D01*
G01X8652253Y262852D01*
G01X8658349Y259804D01*
G01X8667747Y256756D01*
G01X8683241D01*
G01X8692385Y259804D01*
G01X8698735Y262852D01*
G01X8704831Y269202D01*
G01X8707879Y275298D01*
G01Y287744D01*
G01X8655301Y278346D02*
G01X8636759Y259804D01*
G01X8686289Y186398D02*
G01X8676891Y189446D01*
G01X8670795Y195796D01*
G01X8667747Y204940D01*
G01Y207988D01*
G01X8670795Y217386D01*
G01X8676891Y223482D01*
G01X8686289Y226530D01*
G01X8689337D01*
G01X8698735Y223482D01*
G01X8704831Y217386D01*
G01X8707879Y207988D01*
G01Y204940D01*
G01X8704831Y195796D01*
G01X8698735Y189446D01*
G01X8686289Y186398D01*
G01X8670795D01*
G01X8655301Y189446D01*
G01X8645903Y195796D01*
G01X8642855Y204940D01*
G01Y211290D01*
G01X8645903Y220434D01*
G01X8652253Y223482D01*
G01X9335856Y110980D02*
G01X9270832Y110980D01*
G01X9335856Y110980D02*
G01X9335856Y89390D01*
G01X9332808Y79992D01*
G01X9326712Y73896D01*
G01X9320362Y70848D01*
G01X9311218Y67546D01*
G01X9295724D01*
G01X9286326Y70848D01*
G01X9280230Y73896D01*
G01X9273880Y79992D01*
G01X9270832Y89390D01*
G01Y110980D01*
G01X9323410Y37320D02*
G01X9326712Y31224D01*
G01X9335856Y22080D01*
G01X9270832D01*
G01X9335856Y-14242D02*
G01X9335856Y-48278D01*
G01X9311218Y-29736D01*
G01Y-38880D01*
G01X9308170Y-45230D01*
G01X9304868Y-48278D01*
G01X9295724Y-51326D01*
G01X9289374D01*
G01X9280230Y-48278D01*
G01X9273880Y-42182D01*
G01X9270832Y-32784D01*
G01Y-23386D01*
G01X9273880Y-14242D01*
G01X9277182Y-11194D01*
G01X9283278Y-8146D01*
G01X7171985Y226865D02*
G01X7171985Y291889D01*
G01X7171985Y226865D02*
G01X7144045Y226865D01*
G01X7134901Y229913D01*
G01X7131853Y232961D01*
G01X7128551Y239311D01*
G01Y245407D01*
G01X7131853Y251503D01*
G01X7134901Y254551D01*
G01X7144045Y257853D01*
G01X7171985D01*
G01X7150395Y257853D02*
G01X7128551Y291889D01*
G01X7098325Y239311D02*
G01X7092229Y236009D01*
G01X7083085Y226865D01*
G01Y291889D01*
G01X8687062Y-1830956D02*
G01X8684014Y-1824860D01*
G01X8677918Y-1818510D01*
G01X8671568Y-1815462D01*
G01X8662424Y-1812414D01*
G01X8646930D01*
G01X8637532Y-1815462D01*
G01X8631436Y-1818510D01*
G01X8625086Y-1824860D01*
G01X8622038Y-1830956D01*
G01Y-1843402D01*
G01X8625086Y-1849498D01*
G01X8631436Y-1855848D01*
G01X8637532Y-1858896D01*
G01X8646930Y-1861944D01*
G01X8662424D01*
G01X8671568Y-1858896D01*
G01X8677918Y-1855848D01*
G01X8684014Y-1849498D01*
G01X8687062Y-1843402D01*
G01Y-1830956D01*
G01X8634484Y-1840354D02*
G01X8615942Y-1858896D01*
G01X8674616Y-1892170D02*
G01X8677918Y-1898266D01*
G01X8687062Y-1907410D01*
G01X8622038D01*
G01X8687062Y-1956178D02*
G01X8684014Y-1946780D01*
G01X8674616Y-1940684D01*
G01X8659376Y-1937636D01*
G01X8649978D01*
G01X8634484Y-1940684D01*
G01X8625086Y-1946780D01*
G01X8622038Y-1956178D01*
G01Y-1962274D01*
G01X8625086Y-1971672D01*
G01X8634484Y-1977768D01*
G01X8649978Y-1980816D01*
G01X8659376D01*
G01X8674616Y-1977768D01*
G01X8684014Y-1971672D01*
G01X8687062Y-1962274D01*
G01Y-1956178D01*
G01X5320754Y2213991D02*
G01X5314404Y2220087D01*
G01X5305260Y2223135D01*
G01X5292814D01*
G01X5283416Y2220087D01*
G01X5277320Y2213991D01*
G01Y2207641D01*
G01X5280368Y2201545D01*
G01X5283416Y2198497D01*
G01X5289766Y2195449D01*
G01X5308308Y2189099D01*
G01X5314404Y2186051D01*
G01X5317452Y2183003D01*
G01X5320754Y2176653D01*
G01Y2167509D01*
G01X5314404Y2161159D01*
G01X5305260Y2158111D01*
G01X5292814D01*
G01X5283416Y2161159D01*
G01X5277320Y2167509D01*
G01X5397208Y2207641D02*
G01X5394160Y2213991D01*
G01X5388064Y2220087D01*
G01X5381714Y2223135D01*
G01X5369522D01*
G01X5363172Y2220087D01*
G01X5357076Y2213991D01*
G01X5354028Y2207641D01*
G01X5350980Y2198497D01*
G01Y2183003D01*
G01X5354028Y2173605D01*
G01X5357076Y2167509D01*
G01X5363172Y2161159D01*
G01X5369522Y2158111D01*
G01X5381714D01*
G01X5388064Y2161159D01*
G01X5394160Y2167509D01*
G01X5397208Y2173605D01*
G01X5427434Y2223135D02*
G01X5427434Y2158111D01*
G01X5427434Y2223135D02*
G01X5455120Y2223135D01*
G01X5464518Y2220087D01*
G01X5467566Y2217039D01*
G01X5470614Y2210689D01*
G01Y2204593D01*
G01X5467566Y2198497D01*
G01X5464518Y2195449D01*
G01X5455120Y2192147D01*
G01X5427434D01*
G01X5449024Y2192147D02*
G01X5470614Y2158111D01*
G01X5500840Y2223135D02*
G01X5500840Y2158111D01*
G01X5500840Y2223135D02*
G01X5540972Y2223135D01*
G01X5500840Y2192147D02*
G01X5525478Y2192147D01*
G01X5500840Y2158111D02*
G01X5540972Y2158111D01*
G01X5571198Y2223135D02*
G01X5586438Y2158111D01*
G01X5601932Y2223135D02*
G01X5586438Y2158111D01*
G01X5601932Y2223135D02*
G01X5617426Y2158111D01*
G01X5632920Y2223135D02*
G01X5617426Y2158111D01*
G01X5663146Y2210689D02*
G01X5669242Y2213991D01*
G01X5678386Y2223135D01*
G01Y2158111D01*
G01X4698454Y-3363481D02*
G01X4692104Y-3357385D01*
G01X4682960Y-3354337D01*
G01X4670514D01*
G01X4661116Y-3357385D01*
G01X4655020Y-3363481D01*
G01Y-3369831D01*
G01X4658068Y-3375927D01*
G01X4661116Y-3378975D01*
G01X4667466Y-3382023D01*
G01X4686008Y-3388373D01*
G01X4692104Y-3391421D01*
G01X4695152Y-3394469D01*
G01X4698454Y-3400819D01*
G01Y-3409963D01*
G01X4692104Y-3416313D01*
G01X4682960Y-3419361D01*
G01X4670514D01*
G01X4661116Y-3416313D01*
G01X4655020Y-3409963D01*
G01X4774908Y-3369831D02*
G01X4771860Y-3363481D01*
G01X4765764Y-3357385D01*
G01X4759414Y-3354337D01*
G01X4747222D01*
G01X4740872Y-3357385D01*
G01X4734776Y-3363481D01*
G01X4731728Y-3369831D01*
G01X4728680Y-3378975D01*
G01Y-3394469D01*
G01X4731728Y-3403867D01*
G01X4734776Y-3409963D01*
G01X4740872Y-3416313D01*
G01X4747222Y-3419361D01*
G01X4759414D01*
G01X4765764Y-3416313D01*
G01X4771860Y-3409963D01*
G01X4774908Y-3403867D01*
G01X4805134Y-3354337D02*
G01X4805134Y-3419361D01*
G01X4805134Y-3354337D02*
G01X4832820Y-3354337D01*
G01X4842218Y-3357385D01*
G01X4845266Y-3360433D01*
G01X4848314Y-3366783D01*
G01Y-3372879D01*
G01X4845266Y-3378975D01*
G01X4842218Y-3382023D01*
G01X4832820Y-3385325D01*
G01X4805134D01*
G01X4826724Y-3385325D02*
G01X4848314Y-3419361D01*
G01X4878540Y-3354337D02*
G01X4878540Y-3419361D01*
G01X4878540Y-3354337D02*
G01X4918672Y-3354337D01*
G01X4878540Y-3385325D02*
G01X4903178Y-3385325D01*
G01X4878540Y-3419361D02*
G01X4918672Y-3419361D01*
G01X4948898Y-3354337D02*
G01X4964138Y-3419361D01*
G01X4979632Y-3354337D02*
G01X4964138Y-3419361D01*
G01X4979632Y-3354337D02*
G01X4995126Y-3419361D01*
G01X5010620Y-3354337D02*
G01X4995126Y-3419361D01*
G01X5071580Y-3354337D02*
G01X5040846Y-3397517D01*
G01X5087074D01*
G01X5071580Y-3354337D02*
G01X5071580Y-3419361D01*
G01X7548880Y-4640834D02*
G01X7548880Y-4575810D01*
G01X7505446Y-4640834D02*
G01X7505446Y-4575810D01*
G01X7548880Y-4609846D02*
G01X7505446Y-4609846D01*
G01X7472172Y-4625340D02*
G01X7472172Y-4628388D01*
G01X7469124Y-4634738D01*
G01X7466076Y-4637786D01*
G01X7459980Y-4640834D01*
G01X7447534D01*
G01X7441184Y-4637786D01*
G01X7438136Y-4634738D01*
G01X7435088Y-4628388D01*
G01Y-4622292D01*
G01X7438136Y-4616196D01*
G01X7444486Y-4606798D01*
G01X7475220Y-4575810D01*
G01X7432040D01*
G04 Text End*

G04 PolygonModel Start*
G54D11*
G01X9118900Y-2102201D02*
G01X9118900Y-2622199D01*
G01X9118900Y-2622199D02*
G01X8838900Y-2622199D01*
G01X8838900Y-2102201D02*
G01X8838900Y-2622199D01*
G01X9118900Y-2102201D02*
G01X8838900Y-2102201D01*
G01X9118900Y-2198126D02*
G01X8838900Y-2198126D01*
G01X9131600Y-146401D02*
G01X9131600Y-666399D01*
G01X9131600Y-666399D02*
G01X8851600Y-666399D01*
G01X8851600Y-146401D02*
G01X8851600Y-666399D01*
G01X9131600Y-146401D02*
G01X8851600Y-146401D01*
G01X9131600Y-242326D02*
G01X8851600Y-242326D01*
G54D10*
G01X7556998Y-419387D02*
G01X7556998Y-721769D01*
G01X8588238Y-419387D02*
G01X8588238Y-721769D01*
G01X7556998Y-721769D02*
G01X8588238Y-721769D01*
G01X7536180Y-2538087D02*
G01X7536180Y-2840469D01*
G01X8567420Y-2538087D02*
G01X8567420Y-2840469D01*
G01X7536180Y-2840469D02*
G01X8567420Y-2840469D01*
G54D11*
G01X6874200Y-3775499D02*
G01X6874200Y-4225501D01*
G01X6874200Y-4225501D02*
G01X5724200Y-4225501D01*
G01X5724200Y-4225501D02*
G01X5724200Y-3775499D01*
G01X5725160Y-3774440D02*
G01X6873240Y-3774440D01*
G01X6886900Y-3026199D02*
G01X6886900Y-3476201D01*
G01X6886900Y-3476201D02*
G01X5736900Y-3476201D01*
G01X5736900Y-3476201D02*
G01X5736900Y-3026199D01*
G01X5737860Y-3025140D02*
G01X6885940Y-3025140D01*
G01X6861500Y-1667299D02*
G01X6861500Y-2117301D01*
G01X6861500Y-2117301D02*
G01X5711500Y-2117301D01*
G01X5711500Y-2117301D02*
G01X5711500Y-1667299D01*
G01X5712460Y-1666240D02*
G01X6860540Y-1666240D01*
G01X5724200Y-2739601D02*
G01X5724200Y-2289599D01*
G01X5724200Y-2289599D02*
G01X6874200Y-2289599D01*
G01X6874200Y-2289599D02*
G01X6874200Y-2739601D01*
G01X6873240Y-2740660D02*
G01X5725160Y-2740660D01*
G01X6871030Y-847400D02*
G01X6871030Y-1297402D01*
G01X6871030Y-1297402D02*
G01X5721030Y-1297402D01*
G01X5721030Y-1297402D02*
G01X5721030Y-847400D01*
G01X5721990Y-846341D02*
G01X6870070Y-846341D01*
G01X5711500Y-440901D02*
G01X5711500Y9101D01*
G01X5711500Y9101D02*
G01X6861500Y9101D01*
G01X6861500Y9101D02*
G01X6861500Y-440901D01*
G01X6860540Y-441960D02*
G01X5712460Y-441960D01*
G01X6722699Y1395001D02*
G01X6722699Y1145002D01*
G01X6722699Y1395001D02*
G01X6002701Y1395001D01*
G01X6722699Y1145002D02*
G01X6002701Y1145002D01*
G01X6002701Y1145002D02*
G01X6002701Y1395001D01*
G01X5352603Y1114001D02*
G01X5352603Y-606003D01*
G01X5352603Y-606003D02*
G01X4502600Y-606003D01*
G01X4502597Y1114003D02*
G01X5352600Y1114003D01*
G01X4502597Y-606003D02*
G01X4502600Y1114003D01*
G01X8949901Y527497D02*
G01X7229897Y527497D01*
G01X7229897Y527497D02*
G01X7229897Y1377500D01*
G01X8949903Y1377503D02*
G01X8949903Y527500D01*
G01X7229897Y1377503D02*
G01X8949903Y1377500D01*
G01X4419600Y-1991548D02*
G01X4419600Y-1231900D01*
G01X4419600Y-1231900D02*
G01X4673600Y-1231900D01*
G01X4673600Y-1231900D02*
G01X4673600Y-2247900D01*
G01X4673600Y-2247900D02*
G01X4419600Y-2247900D01*
G01X4419600Y-2247900D02*
G01X4419600Y-1991548D01*
G01X4419600Y-1991548D02*
G01X4673600Y-1991548D01*
G01X6899600Y796501D02*
G01X6899600Y346499D01*
G01X6899600Y346499D02*
G01X5749600Y346499D01*
G01X5749600Y346499D02*
G01X5749600Y796501D01*
G01X5750560Y797560D02*
G01X6898640Y797560D01*
G01X5385016Y2000885D02*
G01X5492712Y1893189D01*
G01X5772112Y1613789D02*
G01X5879808Y1506093D01*
G01X5879808Y2000885D02*
G01X5772112Y1893189D01*
G01X5492712Y1613789D02*
G01X5385016Y1506093D01*
G01X4762716Y-3576587D02*
G01X4870412Y-3684283D01*
G01X5149812Y-3963683D02*
G01X5257508Y-4071379D01*
G01X5257508Y-3576587D02*
G01X5149812Y-3684283D01*
G01X4870412Y-3963683D02*
G01X4762716Y-4071379D01*
G04 PolygonModel End*

G04 Rect Start*
G01X7543800Y-4521200D02*
G01X7543800Y-4267200D01*
G01X7035800D01*
G01Y-4521200D01*
G01X7543800D01*
G04 Rect End*

G04 Circle Start*
G01X7704325Y-1183295D02*
G03X7729725Y-1183295I12700J0D01*
G03X7704325I-12700J0D01*
G01X7683508Y-3301995D02*
G03X7708908Y-3301995I12700J0D01*
G03X7683508I-12700J0D01*
G01X5282400Y1753489D02*
G03X5982424Y1753489I350012J0D01*
G03X5282400I-350012J0D01*
G01X4660100Y-3823983D02*
G03X5360124Y-3823983I350012J0D01*
G03X4660100I-350012J0D01*
G04 Circle End*

M02*
