G04 Layer: DrillDrawingLayer*
G04 EasyEDA Pro v2.1.64.d1969c9c.217bcf, 2024-09-26 22:54:29*
G04 Gerber Generator version 0.3*
G04 Scale: 100 percent, Rotated: No, Reflected: No*
G04 Dimensions in millimeters*
G04 Leading zeros omitted, absolute positions, 3 integers and 5 decimals*
%FSLAX35Y35*%
%MOMM*%
%ADD10C,0.254*%
G75*


G04 Image Start*
G36*
G01X6592722Y1289964D02*
G01X6592722Y1286307D01*
G01X6596329D01*
G01X6628943D01*
G01Y1253693D01*
G01X6596329D01*
G01Y1286307D01*
G01X6592722D01*
G01Y1250086D01*
G01X6632600D01*
G01Y1289964D01*
G37*
G36*
G01X6092800Y1289964D02*
G01X6092800Y1286307D01*
G01X6096457D01*
G01X6129071D01*
G01Y1253693D01*
G01X6096457D01*
G01Y1286307D01*
G01X6092800D01*
G01Y1250036D01*
G01X6132678D01*
G01Y1289964D01*
G37*
G36*
G01X5632399Y1773428D02*
G01X5630367Y1773326D01*
G01X5628386Y1773022D01*
G01X5626506Y1772514D01*
G01X5624627Y1771853D01*
G01X5622900Y1771040D01*
G01X5621274Y1770024D01*
G01X5619750Y1768856D01*
G01X5618328Y1767586D01*
G01X5617007Y1766164D01*
G01X5615889Y1764640D01*
G01X5614873Y1763014D01*
G01X5614060Y1761236D01*
G01X5613349Y1759407D01*
G01X5612892Y1757528D01*
G01X5612587Y1755546D01*
G01X5612486Y1753514D01*
G01X5615788D01*
G01X5615889Y1755191D01*
G01X5616143Y1756816D01*
G01X5616550Y1758442D01*
G01X5617108Y1759966D01*
G01X5617820Y1761388D01*
G01X5618632Y1762760D01*
G01X5619598Y1764030D01*
G01X5620664Y1765249D01*
G01X5621833Y1766316D01*
G01X5623154Y1767281D01*
G01X5624474Y1768094D01*
G01X5625948Y1768805D01*
G01X5627472Y1769364D01*
G01X5629046Y1769770D01*
G01X5630723Y1770024D01*
G01X5632399Y1770126D01*
G01X5634126Y1770024D01*
G01X5635752Y1769770D01*
G01X5637327Y1769364D01*
G01X5638851Y1768805D01*
G01X5640324Y1768094D01*
G01X5641696Y1767281D01*
G01X5642966Y1766316D01*
G01X5644134Y1765249D01*
G01X5645252Y1764030D01*
G01X5646166Y1762760D01*
G01X5647030Y1761388D01*
G01X5647741Y1759966D01*
G01X5648300Y1758442D01*
G01X5648706Y1756816D01*
G01X5648960Y1755191D01*
G01X5649011Y1753514D01*
G01X5648960Y1751787D01*
G01X5648706Y1750162D01*
G01X5648300Y1748536D01*
G01X5647741Y1747012D01*
G01X5647030Y1745590D01*
G01X5646166Y1744218D01*
G01X5645252Y1742948D01*
G01X5644134Y1741729D01*
G01X5642966Y1740662D01*
G01X5641696Y1739697D01*
G01X5640324Y1738884D01*
G01X5638851Y1738173D01*
G01X5637327Y1737614D01*
G01X5635752Y1737208D01*
G01X5634126Y1736954D01*
G01X5632399Y1736852D01*
G01X5630723Y1736954D01*
G01X5629046Y1737208D01*
G01X5627472Y1737614D01*
G01X5625948Y1738173D01*
G01X5624474Y1738884D01*
G01X5623154Y1739697D01*
G01X5621833Y1740662D01*
G01X5620664Y1741729D01*
G01X5619598Y1742948D01*
G01X5618632Y1744218D01*
G01X5617820Y1745590D01*
G01X5617108Y1747012D01*
G01X5616550Y1748536D01*
G01X5616143Y1750162D01*
G01X5615889Y1751787D01*
G01X5615788Y1753514D01*
G01X5612486D01*
G01X5612587Y1751432D01*
G01X5612892Y1749450D01*
G01X5613349Y1747571D01*
G01X5614060Y1745742D01*
G01X5614873Y1743964D01*
G01X5615889Y1742338D01*
G01X5617007Y1740814D01*
G01X5618328Y1739392D01*
G01X5619750Y1738122D01*
G01X5621274Y1736954D01*
G01X5622900Y1735938D01*
G01X5624627Y1735125D01*
G01X5626506Y1734464D01*
G01X5628386Y1733956D01*
G01X5630367Y1733652D01*
G01X5632399Y1733550D01*
G01X5634431Y1733652D01*
G01X5636412Y1733956D01*
G01X5638343Y1734464D01*
G01X5640172Y1735125D01*
G01X5641899Y1735938D01*
G01X5643575Y1736954D01*
G01X5645099Y1738122D01*
G01X5646522Y1739392D01*
G01X5647792Y1740814D01*
G01X5648960Y1742338D01*
G01X5649925Y1743964D01*
G01X5650789Y1745742D01*
G01X5651449Y1747571D01*
G01X5651957Y1749450D01*
G01X5652262Y1751432D01*
G01X5652364Y1753514D01*
G01X5652262Y1755546D01*
G01X5651957Y1757528D01*
G01X5651449Y1759407D01*
G01X5650789Y1761236D01*
G01X5649925Y1763014D01*
G01X5648960Y1764640D01*
G01X5647792Y1766164D01*
G01X5646522Y1767586D01*
G01X5645099Y1768856D01*
G01X5643575Y1770024D01*
G01X5641899Y1771040D01*
G01X5640172Y1771853D01*
G01X5638343Y1772514D01*
G01X5636412Y1773022D01*
G01X5634431Y1773326D01*
G37*
G36*
G01X5010099Y-3804056D02*
G01X5008067Y-3804158D01*
G01X5006086Y-3804463D01*
G01X5004206Y-3804920D01*
G01X5002327Y-3805631D01*
G01X5000600Y-3806444D01*
G01X4998974Y-3807460D01*
G01X4997450Y-3808578D01*
G01X4996028Y-3809898D01*
G01X4994707Y-3811321D01*
G01X4993589Y-3812845D01*
G01X4992573Y-3814470D01*
G01X4991760Y-3816198D01*
G01X4991049Y-3818077D01*
G01X4990592Y-3819957D01*
G01X4990287Y-3821938D01*
G01X4990186Y-3823970D01*
G01X4993488D01*
G01X4993589Y-3822294D01*
G01X4993843Y-3820617D01*
G01X4994250Y-3819042D01*
G01X4994808Y-3817518D01*
G01X4995520Y-3816045D01*
G01X4996332Y-3814724D01*
G01X4997298Y-3813404D01*
G01X4998364Y-3812235D01*
G01X4999533Y-3811168D01*
G01X5000854Y-3810203D01*
G01X5002174Y-3809390D01*
G01X5003648Y-3808679D01*
G01X5005172Y-3808120D01*
G01X5006746Y-3807714D01*
G01X5008423Y-3807460D01*
G01X5010099Y-3807358D01*
G01X5011826Y-3807460D01*
G01X5013452Y-3807714D01*
G01X5015027Y-3808120D01*
G01X5016551Y-3808679D01*
G01X5018024Y-3809390D01*
G01X5019396Y-3810203D01*
G01X5020666Y-3811168D01*
G01X5021834Y-3812235D01*
G01X5022952Y-3813404D01*
G01X5023866Y-3814724D01*
G01X5024730Y-3816045D01*
G01X5025441Y-3817518D01*
G01X5026000Y-3819042D01*
G01X5026406Y-3820617D01*
G01X5026660Y-3822294D01*
G01X5026711Y-3823970D01*
G01X5026660Y-3825697D01*
G01X5026406Y-3827323D01*
G01X5026000Y-3828898D01*
G01X5025441Y-3830422D01*
G01X5024730Y-3831895D01*
G01X5023866Y-3833266D01*
G01X5022952Y-3834536D01*
G01X5021834Y-3835705D01*
G01X5020666Y-3836822D01*
G01X5019396Y-3837737D01*
G01X5018024Y-3838600D01*
G01X5016551Y-3839312D01*
G01X5015027Y-3839870D01*
G01X5013452Y-3840277D01*
G01X5011826Y-3840531D01*
G01X5010099Y-3840582D01*
G01X5008423Y-3840531D01*
G01X5006746Y-3840277D01*
G01X5005172Y-3839870D01*
G01X5003648Y-3839312D01*
G01X5002174Y-3838600D01*
G01X5000854Y-3837737D01*
G01X4999533Y-3836822D01*
G01X4998364Y-3835705D01*
G01X4997298Y-3834536D01*
G01X4996332Y-3833266D01*
G01X4995520Y-3831895D01*
G01X4994808Y-3830422D01*
G01X4994250Y-3828898D01*
G01X4993843Y-3827323D01*
G01X4993589Y-3825697D01*
G01X4993488Y-3823970D01*
G01X4990186D01*
G01X4990287Y-3826002D01*
G01X4990592Y-3827983D01*
G01X4991049Y-3829914D01*
G01X4991760Y-3831742D01*
G01X4992573Y-3833470D01*
G01X4993589Y-3835146D01*
G01X4994707Y-3836670D01*
G01X4996028Y-3838092D01*
G01X4997450Y-3839362D01*
G01X4998974Y-3840531D01*
G01X5000600Y-3841496D01*
G01X5002327Y-3842360D01*
G01X5004206Y-3843020D01*
G01X5006086Y-3843528D01*
G01X5008067Y-3843833D01*
G01X5010099Y-3843934D01*
G01X5012131Y-3843833D01*
G01X5014112Y-3843528D01*
G01X5016043Y-3843020D01*
G01X5017872Y-3842360D01*
G01X5019599Y-3841496D01*
G01X5021275Y-3840531D01*
G01X5022799Y-3839362D01*
G01X5024222Y-3838092D01*
G01X5025492Y-3836670D01*
G01X5026660Y-3835146D01*
G01X5027625Y-3833470D01*
G01X5028489Y-3831742D01*
G01X5029149Y-3829914D01*
G01X5029657Y-3827983D01*
G01X5029962Y-3826002D01*
G01X5030064Y-3823970D01*
G01X5029962Y-3821938D01*
G01X5029657Y-3819957D01*
G01X5029149Y-3818077D01*
G01X5028489Y-3816198D01*
G01X5027625Y-3814470D01*
G01X5026660Y-3812845D01*
G01X5025492Y-3811321D01*
G01X5024222Y-3809898D01*
G01X5022799Y-3808578D01*
G01X5021275Y-3807460D01*
G01X5019599Y-3806444D01*
G01X5017872Y-3805631D01*
G01X5016043Y-3804920D01*
G01X5014112Y-3804463D01*
G01X5012131Y-3804158D01*
G37*
G36*
G01X4907686Y1021283D02*
G01X4909617Y1017930D01*
G01X4913427D01*
G01X4941773D01*
G01X4934712Y1005688D01*
G01X4927600Y993394D01*
G01X4920488Y1005688D01*
G01X4913427Y1017930D01*
G01X4909617D01*
G01X4927600Y986739D01*
G01X4937557Y1004011D01*
G01X4947564Y1021283D01*
G37*
G36*
G01X4907686Y-478739D02*
G01X4909566Y-482041D01*
G01X4913427D01*
G01X4941773D01*
G01X4934712Y-494335D01*
G01X4927600Y-506628D01*
G01X4920488Y-494335D01*
G01X4913427Y-482041D01*
G01X4909566D01*
G01X4927600Y-513283D01*
G01X4937557Y-496011D01*
G01X4947564Y-478739D01*
G37*
G36*
G01X8819947Y969772D02*
G01X8821877Y966419D01*
G01X8825738D01*
G01X8854084D01*
G01X8846972Y954176D01*
G01X8839911Y941883D01*
G01X8832799Y954176D01*
G01X8825738Y966419D01*
G01X8821877D01*
G01X8829954Y952500D01*
G01X8839911Y935228D01*
G01X8859825Y969772D01*
G37*
G36*
G01X7319975Y969772D02*
G01X7321906Y966419D01*
G01X7325716D01*
G01X7354062D01*
G01X7347001Y954176D01*
G01X7339889Y941883D01*
G01X7332828Y954176D01*
G01X7325716Y966419D01*
G01X7321906D01*
G01X7339889Y935228D01*
G01X7349846Y952500D01*
G01X7359853Y969772D01*
G37*
G36*
G01X8978900Y-1904187D02*
G01X8973160Y-1917243D01*
G01X8958986Y-1915668D01*
G01X8967368Y-1927200D01*
G01X8962085Y-1934464D01*
G01X8966302D01*
G01X8970162Y-1929232D01*
G01X8971636Y-1927200D01*
G01X8970162Y-1925168D01*
G01X8966302Y-1919884D01*
G01X8972753Y-1920596D01*
G01X8975242Y-1920900D01*
G01X8976258Y-1918614D01*
G01X8978900Y-1912620D01*
G01X8981542Y-1918614D01*
G01X8982558Y-1920900D01*
G01X8985047Y-1920596D01*
G01X8991498Y-1919935D01*
G01X8987638Y-1925168D01*
G01X8986164Y-1927200D01*
G01X8987638Y-1929232D01*
G01X8991498Y-1934464D01*
G01X8985047Y-1933753D01*
G01X8982558Y-1933499D01*
G01X8981542Y-1935785D01*
G01X8978900Y-1941779D01*
G01X8976258Y-1935785D01*
G01X8975242Y-1933499D01*
G01X8972753Y-1933753D01*
G01X8966302Y-1934464D01*
G01X8962085D01*
G01X8958986Y-1938680D01*
G01X8973160Y-1937156D01*
G01X8978900Y-1950212D01*
G01X8984640Y-1937156D01*
G01X8998864Y-1938680D01*
G01X8990432Y-1927200D01*
G01X8998864Y-1915668D01*
G01X8984640Y-1917243D01*
G37*
G36*
G01X8978900Y-2774188D02*
G01X8973160Y-2787244D01*
G01X8958986Y-2785720D01*
G01X8967368Y-2797200D01*
G01X8962034Y-2804516D01*
G01X8966302D01*
G01X8970162Y-2799232D01*
G01X8971636Y-2797200D01*
G01X8970162Y-2795168D01*
G01X8966302Y-2789936D01*
G01X8972753Y-2790647D01*
G01X8975242Y-2790901D01*
G01X8976258Y-2788615D01*
G01X8978900Y-2782621D01*
G01X8981542Y-2788615D01*
G01X8982558Y-2790901D01*
G01X8985047Y-2790647D01*
G01X8991498Y-2789936D01*
G01X8987638Y-2795168D01*
G01X8986164Y-2797200D01*
G01X8987638Y-2799232D01*
G01X8991498Y-2804516D01*
G01X8985047Y-2803804D01*
G01X8982558Y-2803500D01*
G01X8981542Y-2805786D01*
G01X8978900Y-2811780D01*
G01X8976258Y-2805786D01*
G01X8975242Y-2803500D01*
G01X8972753Y-2803804D01*
G01X8966302Y-2804516D01*
G01X8962034D01*
G01X8958986Y-2808732D01*
G01X8973160Y-2807157D01*
G01X8978900Y-2820213D01*
G01X8984640Y-2807157D01*
G01X8998864Y-2808732D01*
G01X8990432Y-2797200D01*
G01X8998864Y-2785720D01*
G01X8984640Y-2787244D01*
G37*
G36*
G01X8991600Y51613D02*
G01X8985860Y38557D01*
G01X8971686Y40132D01*
G01X8980068Y28600D01*
G01X8974785Y21336D01*
G01X8979002D01*
G01X8982862Y26568D01*
G01X8984336Y28600D01*
G01X8982862Y30632D01*
G01X8979002Y35916D01*
G01X8985453Y35204D01*
G01X8987942Y34900D01*
G01X8988958Y37186D01*
G01X8991600Y43180D01*
G01X8994242Y37186D01*
G01X8995258Y34900D01*
G01X8997747Y35204D01*
G01X9004198Y35865D01*
G01X9000338Y30632D01*
G01X8998864Y28600D01*
G01X9000338Y26568D01*
G01X9004198Y21336D01*
G01X8997747Y22047D01*
G01X8995258Y22301D01*
G01X8994242Y20015D01*
G01X8991600Y14021D01*
G01X8988958Y20015D01*
G01X8987942Y22301D01*
G01X8985453Y22047D01*
G01X8979002Y21336D01*
G01X8974785D01*
G01X8971686Y17120D01*
G01X8985860Y18644D01*
G01X8991600Y5588D01*
G01X8997340Y18644D01*
G01X9011564Y17120D01*
G01X9003132Y28600D01*
G01X9011564Y40132D01*
G01X8997340Y38557D01*
G37*
G36*
G01X8991600Y-818388D02*
G01X8985860Y-831444D01*
G01X8971686Y-829920D01*
G01X8980068Y-841400D01*
G01X8974734Y-848716D01*
G01X8979002D01*
G01X8982862Y-843432D01*
G01X8984336Y-841400D01*
G01X8982862Y-839368D01*
G01X8979002Y-834136D01*
G01X8985453Y-834847D01*
G01X8987942Y-835101D01*
G01X8988958Y-832815D01*
G01X8991600Y-826821D01*
G01X8994242Y-832815D01*
G01X8995258Y-835101D01*
G01X8997747Y-834847D01*
G01X9004198Y-834136D01*
G01X9000338Y-839368D01*
G01X8998864Y-841400D01*
G01X9000338Y-843432D01*
G01X9004198Y-848716D01*
G01X8997747Y-848004D01*
G01X8995258Y-847700D01*
G01X8994242Y-849986D01*
G01X8991600Y-855980D01*
G01X8988958Y-849986D01*
G01X8987942Y-847700D01*
G01X8985453Y-848004D01*
G01X8979002Y-848716D01*
G01X8974734D01*
G01X8971686Y-852932D01*
G01X8985860Y-851357D01*
G01X8991600Y-864413D01*
G01X8997340Y-851357D01*
G01X9011564Y-852932D01*
G01X9003132Y-841400D01*
G01X9011564Y-829920D01*
G01X8997340Y-831444D01*
G37*
G36*
G01X7162800Y-4371188D02*
G01X7157060Y-4384243D01*
G01X7142886Y-4382668D01*
G01X7151268Y-4394200D01*
G01X7145985Y-4401464D01*
G01X7150202D01*
G01X7154062Y-4396232D01*
G01X7155536Y-4394200D01*
G01X7154062Y-4392168D01*
G01X7150202Y-4386936D01*
G01X7156653Y-4387596D01*
G01X7159142Y-4387901D01*
G01X7160158Y-4385615D01*
G01X7162800Y-4379620D01*
G01X7165442Y-4385615D01*
G01X7166458Y-4387901D01*
G01X7168947Y-4387647D01*
G01X7175398Y-4386936D01*
G01X7171538Y-4392168D01*
G01X7170064Y-4394200D01*
G01X7171538Y-4396232D01*
G01X7175398Y-4401464D01*
G01X7168947Y-4400804D01*
G01X7166458Y-4400499D01*
G01X7165442Y-4402785D01*
G01X7162800Y-4408780D01*
G01X7160158Y-4402785D01*
G01X7159142Y-4400499D01*
G01X7156653Y-4400804D01*
G01X7150202Y-4401464D01*
G01X7145985D01*
G01X7142886Y-4405732D01*
G01X7157060Y-4404157D01*
G01X7162800Y-4417212D01*
G01X7168540Y-4404157D01*
G01X7182764Y-4405732D01*
G01X7174332Y-4394200D01*
G01X7182764Y-4382668D01*
G01X7168540Y-4384243D01*
G37*
G36*
G01X7416800Y-4371188D02*
G01X7411060Y-4384243D01*
G01X7396886Y-4382668D01*
G01X7405268Y-4394200D01*
G01X7399985Y-4401464D01*
G01X7404202D01*
G01X7408062Y-4396232D01*
G01X7409536Y-4394200D01*
G01X7408062Y-4392168D01*
G01X7404202Y-4386936D01*
G01X7410653Y-4387596D01*
G01X7413142Y-4387901D01*
G01X7414158Y-4385615D01*
G01X7416800Y-4379620D01*
G01X7419442Y-4385615D01*
G01X7420458Y-4387901D01*
G01X7422947Y-4387647D01*
G01X7429398Y-4386936D01*
G01X7425538Y-4392168D01*
G01X7424064Y-4394200D01*
G01X7425538Y-4396232D01*
G01X7429398Y-4401464D01*
G01X7422947Y-4400804D01*
G01X7420458Y-4400499D01*
G01X7419442Y-4402785D01*
G01X7416800Y-4408780D01*
G01X7414158Y-4402785D01*
G01X7413142Y-4400499D01*
G01X7410653Y-4400804D01*
G01X7404202Y-4401464D01*
G01X7399985D01*
G01X7396886Y-4405732D01*
G01X7411060Y-4404157D01*
G01X7416800Y-4417212D01*
G01X7422540Y-4404157D01*
G01X7436764Y-4405732D01*
G01X7428332Y-4394200D01*
G01X7436764Y-4382668D01*
G01X7422540Y-4384243D01*
G37*
G36*
G01X7054240Y-3980536D02*
G01X7057390Y-3987343D01*
G01X7061048D01*
G01X7072833Y-3992728D01*
G01X7074205Y-3993388D01*
G01X7075576Y-3992728D01*
G01X7087362Y-3987343D01*
G01X7081977Y-3999128D01*
G01X7081317Y-4000500D01*
G01X7081977Y-4001872D01*
G01X7087362Y-4013657D01*
G01X7075576Y-4008272D01*
G01X7074205Y-4007612D01*
G01X7072833Y-4008272D01*
G01X7061048Y-4013657D01*
G01X7066432Y-4001872D01*
G01X7067093Y-4000500D01*
G01X7066432Y-3999128D01*
G01X7061048Y-3987343D01*
G01X7057390D01*
G01X7063435Y-4000500D01*
G01X7054240Y-4020464D01*
G01X7074205Y-4011270D01*
G01X7094118Y-4020464D01*
G01X7084974Y-4000500D01*
G01X7094118Y-3980536D01*
G01X7074205Y-3989730D01*
G37*
G36*
G01X5504282Y-3980536D02*
G01X5507380Y-3987343D01*
G01X5511038D01*
G01X5522824Y-3992728D01*
G01X5524195Y-3993388D01*
G01X5525567Y-3992728D01*
G01X5537352Y-3987343D01*
G01X5531968Y-3999128D01*
G01X5531307Y-4000500D01*
G01X5531968Y-4001872D01*
G01X5537352Y-4013657D01*
G01X5525567Y-4008272D01*
G01X5524195Y-4007612D01*
G01X5522824Y-4008272D01*
G01X5511038Y-4013657D01*
G01X5516423Y-4001872D01*
G01X5517083Y-4000500D01*
G01X5516423Y-3999128D01*
G01X5511038Y-3987343D01*
G01X5507380D01*
G01X5513426Y-4000500D01*
G01X5504282Y-4020464D01*
G01X5524195Y-4011270D01*
G01X5544160Y-4020464D01*
G01X5534965Y-4000500D01*
G01X5544160Y-3980536D01*
G01X5524195Y-3989730D01*
G37*
G36*
G01X7066940Y-3231236D02*
G01X7070090Y-3238043D01*
G01X7073748D01*
G01X7085533Y-3243428D01*
G01X7086905Y-3244088D01*
G01X7088276Y-3243428D01*
G01X7100062Y-3238043D01*
G01X7094677Y-3249828D01*
G01X7094017Y-3251200D01*
G01X7094677Y-3252572D01*
G01X7100062Y-3264357D01*
G01X7088276Y-3258972D01*
G01X7086905Y-3258312D01*
G01X7085533Y-3258972D01*
G01X7073748Y-3264357D01*
G01X7079132Y-3252572D01*
G01X7079793Y-3251200D01*
G01X7079132Y-3249828D01*
G01X7073748Y-3238043D01*
G01X7070090D01*
G01X7076135Y-3251200D01*
G01X7066940Y-3271114D01*
G01X7086905Y-3261970D01*
G01X7106818Y-3271114D01*
G01X7097674Y-3251200D01*
G01X7106818Y-3231236D01*
G01X7086905Y-3240430D01*
G37*
G36*
G01X5516982Y-3231236D02*
G01X5520080Y-3238043D01*
G01X5523738D01*
G01X5535524Y-3243428D01*
G01X5536895Y-3244088D01*
G01X5538267Y-3243428D01*
G01X5550052Y-3238043D01*
G01X5544668Y-3249828D01*
G01X5544007Y-3251200D01*
G01X5544668Y-3252572D01*
G01X5550052Y-3264357D01*
G01X5538267Y-3258972D01*
G01X5536895Y-3258312D01*
G01X5535524Y-3258972D01*
G01X5523738Y-3264357D01*
G01X5529123Y-3252572D01*
G01X5529783Y-3251200D01*
G01X5529123Y-3249828D01*
G01X5523738Y-3238043D01*
G01X5520080D01*
G01X5526126Y-3251200D01*
G01X5516982Y-3271114D01*
G01X5536895Y-3261970D01*
G01X5556860Y-3271114D01*
G01X5547665Y-3251200D01*
G01X5556860Y-3231236D01*
G01X5536895Y-3240430D01*
G37*
G36*
G01X7041540Y-1872336D02*
G01X7044690Y-1879143D01*
G01X7048348D01*
G01X7060133Y-1884528D01*
G01X7061505Y-1885188D01*
G01X7062876Y-1884528D01*
G01X7074662Y-1879143D01*
G01X7069277Y-1890928D01*
G01X7068617Y-1892300D01*
G01X7069277Y-1893672D01*
G01X7074662Y-1905457D01*
G01X7062876Y-1900072D01*
G01X7061505Y-1899412D01*
G01X7060133Y-1900072D01*
G01X7048348Y-1905457D01*
G01X7053732Y-1893672D01*
G01X7054393Y-1892300D01*
G01X7053732Y-1890928D01*
G01X7048348Y-1879143D01*
G01X7044690D01*
G01X7050735Y-1892300D01*
G01X7041540Y-1912214D01*
G01X7061505Y-1903070D01*
G01X7081418Y-1912214D01*
G01X7072274Y-1892300D01*
G01X7081418Y-1872336D01*
G01X7061505Y-1881530D01*
G37*
G36*
G01X5491582Y-1872336D02*
G01X5494680Y-1879143D01*
G01X5498338D01*
G01X5510124Y-1884528D01*
G01X5511495Y-1885188D01*
G01X5512867Y-1884528D01*
G01X5524652Y-1879143D01*
G01X5519268Y-1890928D01*
G01X5518607Y-1892300D01*
G01X5519268Y-1893672D01*
G01X5524652Y-1905457D01*
G01X5512867Y-1900072D01*
G01X5511495Y-1899412D01*
G01X5510124Y-1900072D01*
G01X5498338Y-1905457D01*
G01X5503723Y-1893672D01*
G01X5504383Y-1892300D01*
G01X5503723Y-1890928D01*
G01X5498338Y-1879143D01*
G01X5494680D01*
G01X5500726Y-1892300D01*
G01X5491582Y-1912214D01*
G01X5511495Y-1903070D01*
G01X5531460Y-1912214D01*
G01X5522265Y-1892300D01*
G01X5531460Y-1872336D01*
G01X5511495Y-1881530D01*
G37*
G36*
G01X5504282Y-2494636D02*
G01X5507380Y-2501443D01*
G01X5511038D01*
G01X5522824Y-2506828D01*
G01X5524195Y-2507488D01*
G01X5525567Y-2506828D01*
G01X5537352Y-2501443D01*
G01X5531968Y-2513228D01*
G01X5531307Y-2514600D01*
G01X5531968Y-2515972D01*
G01X5537352Y-2527757D01*
G01X5525567Y-2522372D01*
G01X5524195Y-2521712D01*
G01X5522824Y-2522372D01*
G01X5511038Y-2527757D01*
G01X5516423Y-2515972D01*
G01X5517083Y-2514600D01*
G01X5516423Y-2513228D01*
G01X5511038Y-2501443D01*
G01X5507380D01*
G01X5513426Y-2514600D01*
G01X5504282Y-2534514D01*
G01X5524195Y-2525370D01*
G01X5544160Y-2534514D01*
G01X5534965Y-2514600D01*
G01X5544160Y-2494636D01*
G01X5524195Y-2503830D01*
G37*
G36*
G01X7054240Y-2494636D02*
G01X7057390Y-2501443D01*
G01X7061048D01*
G01X7072833Y-2506828D01*
G01X7074205Y-2507488D01*
G01X7075576Y-2506828D01*
G01X7087362Y-2501443D01*
G01X7081977Y-2513228D01*
G01X7081317Y-2514600D01*
G01X7081977Y-2515972D01*
G01X7087362Y-2527757D01*
G01X7075576Y-2522372D01*
G01X7074205Y-2521712D01*
G01X7072833Y-2522372D01*
G01X7061048Y-2527757D01*
G01X7066432Y-2515972D01*
G01X7067093Y-2514600D01*
G01X7066432Y-2513228D01*
G01X7061048Y-2501443D01*
G01X7057390D01*
G01X7063435Y-2514600D01*
G01X7054240Y-2534514D01*
G01X7074205Y-2525370D01*
G01X7094118Y-2534514D01*
G01X7084974Y-2514600D01*
G01X7094118Y-2494636D01*
G01X7074205Y-2503830D01*
G37*
G36*
G01X7051091Y-1052474D02*
G01X7054190Y-1059231D01*
G01X7057847D01*
G01X7069633Y-1064666D01*
G01X7071055Y-1065276D01*
G01X7072427Y-1064666D01*
G01X7084212Y-1059231D01*
G01X7078777Y-1071016D01*
G01X7078167Y-1072388D01*
G01X7078777Y-1073810D01*
G01X7084212Y-1085596D01*
G01X7072427Y-1080160D01*
G01X7071055Y-1079500D01*
G01X7069633Y-1080160D01*
G01X7057847Y-1085596D01*
G01X7063283Y-1073810D01*
G01X7063892Y-1072388D01*
G01X7063283Y-1071016D01*
G01X7057847Y-1059231D01*
G01X7054190D01*
G01X7060235Y-1072388D01*
G01X7051091Y-1092352D01*
G01X7071055Y-1083158D01*
G01X7090969Y-1092352D01*
G01X7081825Y-1072388D01*
G01X7090969Y-1052474D01*
G01X7071055Y-1061618D01*
G37*
G36*
G01X5501081Y-1052474D02*
G01X5504180Y-1059231D01*
G01X5507838D01*
G01X5519623Y-1064666D01*
G01X5521046Y-1065276D01*
G01X5522417Y-1064666D01*
G01X5534203Y-1059231D01*
G01X5528767Y-1071016D01*
G01X5528158Y-1072388D01*
G01X5528767Y-1073810D01*
G01X5534203Y-1085596D01*
G01X5522417Y-1080160D01*
G01X5521046Y-1079500D01*
G01X5519623Y-1080160D01*
G01X5507838Y-1085596D01*
G01X5513273Y-1073810D01*
G01X5513934Y-1072388D01*
G01X5513273Y-1071016D01*
G01X5507838Y-1059231D01*
G01X5504180D01*
G01X5510276Y-1072388D01*
G01X5501081Y-1092352D01*
G01X5521046Y-1083158D01*
G01X5540959Y-1092352D01*
G01X5531815Y-1072388D01*
G01X5540959Y-1052474D01*
G01X5521046Y-1061618D01*
G37*
G36*
G01X5491582Y-195936D02*
G01X5494680Y-202743D01*
G01X5498338D01*
G01X5510124Y-208128D01*
G01X5511495Y-208788D01*
G01X5512867Y-208128D01*
G01X5524652Y-202743D01*
G01X5519268Y-214528D01*
G01X5518607Y-215900D01*
G01X5519268Y-217272D01*
G01X5524652Y-229057D01*
G01X5512867Y-223672D01*
G01X5511495Y-223012D01*
G01X5510124Y-223672D01*
G01X5498338Y-229057D01*
G01X5503723Y-217272D01*
G01X5504383Y-215900D01*
G01X5503723Y-214528D01*
G01X5498338Y-202743D01*
G01X5494680D01*
G01X5500726Y-215900D01*
G01X5491582Y-235814D01*
G01X5511495Y-226670D01*
G01X5531460Y-235814D01*
G01X5522265Y-215900D01*
G01X5531460Y-195936D01*
G01X5511495Y-205130D01*
G37*
G36*
G01X7041540Y-195936D02*
G01X7044690Y-202743D01*
G01X7048348D01*
G01X7060133Y-208128D01*
G01X7061505Y-208788D01*
G01X7062876Y-208128D01*
G01X7074662Y-202743D01*
G01X7069277Y-214528D01*
G01X7068617Y-215900D01*
G01X7069277Y-217272D01*
G01X7074662Y-229057D01*
G01X7062876Y-223672D01*
G01X7061505Y-223012D01*
G01X7060133Y-223672D01*
G01X7048348Y-229057D01*
G01X7053732Y-217272D01*
G01X7054393Y-215900D01*
G01X7053732Y-214528D01*
G01X7048348Y-202743D01*
G01X7044690D01*
G01X7050735Y-215900D01*
G01X7041540Y-235814D01*
G01X7061505Y-226670D01*
G01X7081418Y-235814D01*
G01X7072274Y-215900D01*
G01X7081418Y-195936D01*
G01X7061505Y-205130D01*
G37*
G36*
G01X4526686Y-2100936D02*
G01X4529785Y-2107743D01*
G01X4533443D01*
G01X4545228Y-2113128D01*
G01X4546600Y-2113788D01*
G01X4547972Y-2113128D01*
G01X4559757Y-2107743D01*
G01X4554372Y-2119528D01*
G01X4553712Y-2120900D01*
G01X4554372Y-2122272D01*
G01X4559757Y-2134057D01*
G01X4547972Y-2128672D01*
G01X4546600Y-2128012D01*
G01X4545228Y-2128672D01*
G01X4533443Y-2134057D01*
G01X4538828Y-2122272D01*
G01X4539488Y-2120900D01*
G01X4538828Y-2119528D01*
G01X4533443Y-2107743D01*
G01X4529785D01*
G01X4535830Y-2120900D01*
G01X4526686Y-2140814D01*
G01X4546600Y-2131670D01*
G01X4566564Y-2140814D01*
G01X4557370Y-2120900D01*
G01X4566564Y-2100936D01*
G01X4546600Y-2110130D01*
G37*
G36*
G01X4526686Y-1846936D02*
G01X4529785Y-1853743D01*
G01X4533443D01*
G01X4545228Y-1859128D01*
G01X4546600Y-1859788D01*
G01X4547972Y-1859128D01*
G01X4559757Y-1853743D01*
G01X4554372Y-1865528D01*
G01X4553712Y-1866900D01*
G01X4554372Y-1868272D01*
G01X4559757Y-1880057D01*
G01X4547972Y-1874672D01*
G01X4546600Y-1874012D01*
G01X4545228Y-1874672D01*
G01X4533443Y-1880057D01*
G01X4538828Y-1868272D01*
G01X4539488Y-1866900D01*
G01X4538828Y-1865528D01*
G01X4533443Y-1853743D01*
G01X4529785D01*
G01X4535830Y-1866900D01*
G01X4526686Y-1886814D01*
G01X4546600Y-1877670D01*
G01X4566564Y-1886814D01*
G01X4557370Y-1866900D01*
G01X4566564Y-1846936D01*
G01X4546600Y-1856130D01*
G37*
G36*
G01X4526686Y-1592936D02*
G01X4529785Y-1599743D01*
G01X4533443D01*
G01X4545228Y-1605128D01*
G01X4546600Y-1605788D01*
G01X4547972Y-1605128D01*
G01X4559757Y-1599743D01*
G01X4554372Y-1611528D01*
G01X4553712Y-1612900D01*
G01X4554372Y-1614272D01*
G01X4559757Y-1626057D01*
G01X4547972Y-1620672D01*
G01X4546600Y-1620012D01*
G01X4545228Y-1620672D01*
G01X4533443Y-1626057D01*
G01X4538828Y-1614272D01*
G01X4539488Y-1612900D01*
G01X4538828Y-1611528D01*
G01X4533443Y-1599743D01*
G01X4529785D01*
G01X4535830Y-1612900D01*
G01X4526686Y-1632814D01*
G01X4546600Y-1623670D01*
G01X4566564Y-1632814D01*
G01X4557370Y-1612900D01*
G01X4566564Y-1592936D01*
G01X4546600Y-1602130D01*
G37*
G36*
G01X4526686Y-1338936D02*
G01X4529785Y-1345743D01*
G01X4533443D01*
G01X4545228Y-1351128D01*
G01X4546600Y-1351788D01*
G01X4547972Y-1351128D01*
G01X4559757Y-1345743D01*
G01X4554372Y-1357528D01*
G01X4553712Y-1358900D01*
G01X4554372Y-1360272D01*
G01X4559757Y-1372057D01*
G01X4547972Y-1366672D01*
G01X4546600Y-1366012D01*
G01X4545228Y-1366672D01*
G01X4533443Y-1372057D01*
G01X4538828Y-1360272D01*
G01X4539488Y-1358900D01*
G01X4538828Y-1357528D01*
G01X4533443Y-1345743D01*
G01X4529785D01*
G01X4535830Y-1358900D01*
G01X4526686Y-1378814D01*
G01X4546600Y-1369670D01*
G01X4566564Y-1378814D01*
G01X4557370Y-1358900D01*
G01X4566564Y-1338936D01*
G01X4546600Y-1348130D01*
G37*
G36*
G01X7079640Y591414D02*
G01X7082739Y584657D01*
G01X7086448D01*
G01X7098233Y579272D01*
G01X7099605Y578612D01*
G01X7100976Y579272D01*
G01X7112762Y584657D01*
G01X7107377Y572872D01*
G01X7106717Y571500D01*
G01X7107377Y570128D01*
G01X7112762Y558343D01*
G01X7100976Y563728D01*
G01X7099605Y564388D01*
G01X7098233Y563728D01*
G01X7086448Y558343D01*
G01X7091832Y570128D01*
G01X7092493Y571500D01*
G01X7091832Y572872D01*
G01X7086448Y584657D01*
G01X7082739D01*
G01X7088835Y571500D01*
G01X7079640Y551536D01*
G01X7099605Y560730D01*
G01X7119518Y551536D01*
G01X7110374Y571500D01*
G01X7119518Y591414D01*
G01X7099605Y582270D01*
G37*
G36*
G01X5529682Y591464D02*
G01X5532780Y584657D01*
G01X5536438D01*
G01X5548224Y579272D01*
G01X5549595Y578612D01*
G01X5550967Y579272D01*
G01X5562752Y584657D01*
G01X5557368Y572872D01*
G01X5556707Y571500D01*
G01X5557368Y570128D01*
G01X5562752Y558343D01*
G01X5550967Y563728D01*
G01X5549595Y564388D01*
G01X5548224Y563728D01*
G01X5536438Y558343D01*
G01X5541823Y570128D01*
G01X5542483Y571500D01*
G01X5541823Y572872D01*
G01X5536438Y584657D01*
G01X5532780D01*
G01X5538826Y571500D01*
G01X5529682Y551586D01*
G01X5549595Y560730D01*
G01X5569560Y551586D01*
G01X5560365Y571500D01*
G01X5569560Y591464D01*
G01X5549595Y582270D01*
G37*
G04 Image End*
G54D10*

M02*
