;TYPE=PLATED
;Layer: PTH_Through
;EasyEDA Pro Client v2.1.64.d1969c9c.217bcf, 2024-10-29 18:51:19
;Gerber Generator version 0.3
M48
METRIC,LZ,000.00000
;Hole size 1 = 0.80000 METRIC
T01C0.80000
;Hole size 2 = 0.91440 METRIC
T02C0.91440
;Hole size 3 = 1.00000 METRIC
T03C1.00000
;Hole size 4 = 1.02001 METRIC
T04C1.02001
;Hole size 5 = 1.10002 METRIC
T05C1.10002
;Hole size 6 = 1.20000 METRIC
T06C1.20000
;Hole size 7 = 1.24998 METRIC
T07C1.24998
%
G05
G90
T01
X01206500Y03390900
X01968500Y03390900
X01206500Y03136900
X01968500Y03136900
X01206500Y02882900
X01968500Y02882900
X01206500Y02628900
X01968500Y02628900
X01337501Y03759200
X01837500Y03759200
X01337501Y04521200
X01837500Y04521200
X06993700Y04064000
X06493701Y04064000
X04669600Y05168900
X04169601Y05168900
X06087301Y05105400
X06587300Y05105400
X02425700Y02975801
X02425700Y03475800
T02
X03604509Y03429000
X04904501Y03429000
X04625091Y02171700
X03325099Y02171700
X04650491Y04127500
X03350499Y04127500
X04637791Y02616200
X03337799Y02616200
T03
X02022505Y04152900
X01152495Y04152900
X03527395Y04559300
X04397405Y04559300
X03501995Y01727200
X04372005Y01727200
X06108700Y02860705
X06108700Y01990695
X06096000Y04016405
X06096000Y03146395
T04
X02857500Y05435600
X03111500Y05435600
X03365500Y05435600
T05
X00876300Y02628900
X00876300Y02882900
X00876300Y03136900
X00876300Y03390900
T06
X02921000Y02891300
X02921000Y03941300
T07
X05397990Y04102103
X05651978Y04101102
X05143990Y04102103
X05384795Y02349998
X05638782Y02348997
X05130795Y02349998
M30