G04 Layer: TopSilkscreenLayer*
G04 EasyEDA Pro v2.1.64.d1969c9c.217bcf, 2024-10-29 18:51:19*
G04 Gerber Generator version 0.3*
G04 Scale: 100 percent, Rotated: No, Reflected: No*
G04 Dimensions in millimeters*
G04 Leading zeros omitted, absolute positions, 3 integers and 5 decimals*
%FSLAX35Y35*%
%MOMM*%
%ADD10C,0.1524*%
%ADD11C,0.254*%
%ADD12C,0.3*%
G75*


G04 Text Start*
G54D10*
G01X1268908Y3988333D02*
G01X1265860Y3994683D01*
G01X1259510Y4000779D01*
G01X1253414Y4003827D01*
G01X1240968D01*
G01X1234872Y4000779D01*
G01X1228522Y3994683D01*
G01X1225474Y3988333D01*
G01X1222426Y3979189D01*
G01Y3963695D01*
G01X1225474Y3954297D01*
G01X1228522Y3948201D01*
G01X1234872Y3941851D01*
G01X1240968Y3938803D01*
G01X1253414D01*
G01X1259510Y3941851D01*
G01X1265860Y3948201D01*
G01X1268908Y3954297D01*
G01X1329868Y4003827D02*
G01X1299134Y3960647D01*
G01X1345362D01*
G01X1329868Y4003827D02*
G01X1329868Y3938803D01*
G01X1375588Y3991381D02*
G01X1381684Y3994683D01*
G01X1390828Y4003827D01*
G01Y3938803D01*
G01X1268908Y4750333D02*
G01X1265860Y4756683D01*
G01X1259510Y4762779D01*
G01X1253414Y4765827D01*
G01X1240968D01*
G01X1234872Y4762779D01*
G01X1228522Y4756683D01*
G01X1225474Y4750333D01*
G01X1222426Y4741189D01*
G01Y4725695D01*
G01X1225474Y4716297D01*
G01X1228522Y4710201D01*
G01X1234872Y4703851D01*
G01X1240968Y4700803D01*
G01X1253414D01*
G01X1259510Y4703851D01*
G01X1265860Y4710201D01*
G01X1268908Y4716297D01*
G01X1329868Y4765827D02*
G01X1299134Y4722647D01*
G01X1345362D01*
G01X1329868Y4765827D02*
G01X1329868Y4700803D01*
G01X1378636Y4750333D02*
G01X1378636Y4753381D01*
G01X1381684Y4759731D01*
G01X1384732Y4762779D01*
G01X1390828Y4765827D01*
G01X1403274D01*
G01X1409624Y4762779D01*
G01X1412672Y4759731D01*
G01X1415720Y4753381D01*
G01Y4747285D01*
G01X1412672Y4741189D01*
G01X1406322Y4731791D01*
G01X1375588Y4700803D01*
G01X1418768D01*
G01X2173934Y3540291D02*
G01X2127452Y3540291D01*
G01X2118308Y3537243D01*
G01X2111958Y3530893D01*
G01X2108910Y3521749D01*
G01Y3515399D01*
G01X2111958Y3506255D01*
G01X2118308Y3500159D01*
G01X2127452Y3496857D01*
G01X2173934D01*
G01X2173934Y3460535D02*
G01X2173934Y3426499D01*
G01X2149296Y3445041D01*
G01Y3435897D01*
G01X2146248Y3429547D01*
G01X2142946Y3426499D01*
G01X2133802Y3423451D01*
G01X2127452D01*
G01X2118308Y3426499D01*
G01X2111958Y3432595D01*
G01X2108910Y3441993D01*
G01Y3451391D01*
G01X2111958Y3460535D01*
G01X2115260Y3463583D01*
G01X2121356Y3466631D01*
G01X2104880Y3808644D02*
G01X2104880Y3873668D01*
G01X2104880Y3808644D02*
G01X2083290Y3808644D01*
G01X2073892Y3811692D01*
G01X2067796Y3817788D01*
G01X2064748Y3824138D01*
G01X2061446Y3833282D01*
G01Y3848776D01*
G01X2064748Y3858174D01*
G01X2067796Y3864270D01*
G01X2073892Y3870620D01*
G01X2083290Y3873668D01*
G01X2104880D01*
G01X1991088Y3830234D02*
G01X1994136Y3839632D01*
G01X2000486Y3845728D01*
G01X2009630Y3848776D01*
G01X2012678D01*
G01X2022076Y3845728D01*
G01X2028172Y3839632D01*
G01X2031220Y3830234D01*
G01Y3827186D01*
G01X2028172Y3817788D01*
G01X2022076Y3811692D01*
G01X2012678Y3808644D01*
G01X2009630D01*
G01X2000486Y3811692D01*
G01X1994136Y3817788D01*
G01X1991088Y3830234D01*
G01Y3845728D01*
G01X1994136Y3861222D01*
G01X2000486Y3870620D01*
G01X2009630Y3873668D01*
G01X2015980D01*
G01X2025124Y3870620D01*
G01X2028172Y3864270D01*
G01X3370580Y5188966D02*
G01X3370580Y5253990D01*
G01X3327146Y5188966D02*
G01X3327146Y5253990D01*
G01X3370580Y5219954D02*
G01X3327146Y5219954D01*
G01X3293872Y5204460D02*
G01X3293872Y5201412D01*
G01X3290824Y5195062D01*
G01X3287776Y5192014D01*
G01X3281680Y5188966D01*
G01X3269234D01*
G01X3262884Y5192014D01*
G01X3259836Y5195062D01*
G01X3256788Y5201412D01*
G01Y5207508D01*
G01X3259836Y5213604D01*
G01X3266186Y5223002D01*
G01X3296920Y5253990D01*
G01X3253740D01*
G01X4504814Y2984762D02*
G01X4504814Y2938280D01*
G01X4507862Y2929136D01*
G01X4514212Y2922786D01*
G01X4523356Y2919738D01*
G01X4529706D01*
G01X4538850Y2922786D01*
G01X4544946Y2929136D01*
G01X4548248Y2938280D01*
G01Y2984762D01*
G01X4615558Y2984762D02*
G01X4584570Y2984762D01*
G01X4581522Y2957076D01*
G01X4584570Y2960124D01*
G01X4593714Y2963172D01*
G01X4603112D01*
G01X4612510Y2960124D01*
G01X4618606Y2953774D01*
G01X4621654Y2944630D01*
G01Y2938280D01*
G01X4618606Y2929136D01*
G01X4612510Y2922786D01*
G01X4603112Y2919738D01*
G01X4593714D01*
G01X4584570Y2922786D01*
G01X4581522Y2926088D01*
G01X4578474Y2932184D01*
G01X4518010Y4736866D02*
G01X4518010Y4690384D01*
G01X4521058Y4681240D01*
G01X4527408Y4674890D01*
G01X4536552Y4671842D01*
G01X4542902D01*
G01X4552046Y4674890D01*
G01X4558142Y4681240D01*
G01X4561444Y4690384D01*
G01Y4736866D01*
G01X4622404Y4736866D02*
G01X4591670Y4693686D01*
G01X4637898D01*
G01X4622404Y4736866D02*
G01X4622404Y4671842D01*
G01X5582920Y5529834D02*
G01X5582920Y5464810D01*
G01X5582920Y5529834D02*
G01X5610860Y5529834D01*
G01X5620004Y5526786D01*
G01X5623052Y5523738D01*
G01X5626354Y5517388D01*
G01Y5511292D01*
G01X5623052Y5505196D01*
G01X5620004Y5502148D01*
G01X5610860Y5498846D01*
G01X5582920D01*
G01X5604510Y5498846D02*
G01X5626354Y5464810D01*
G01X5656580Y5517388D02*
G01X5662676Y5520690D01*
G01X5671820Y5529834D01*
G01Y5464810D01*
G01X5732780Y5529834D02*
G01X5702046Y5486654D01*
G01X5748274D01*
G01X5732780Y5529834D02*
G01X5732780Y5464810D01*
G01X629666Y2475819D02*
G01X694690Y2475819D01*
G01X629666Y2519253D02*
G01X694690Y2519253D01*
G01X660654Y2475819D02*
G01X660654Y2519253D01*
G01X642112Y2549479D02*
G01X638810Y2555575D01*
G01X629666Y2564719D01*
G01X694690D01*
G01X4738192Y4939767D02*
G01X4741240Y4933417D01*
G01X4747590Y4927321D01*
G01X4753686Y4924273D01*
G01X4766132D01*
G01X4772228Y4927321D01*
G01X4778578Y4933417D01*
G01X4781626Y4939767D01*
G01X4784674Y4948911D01*
G01Y4964405D01*
G01X4781626Y4973803D01*
G01X4778578Y4979899D01*
G01X4772228Y4986249D01*
G01X4766132Y4989297D01*
G01X4753686D01*
G01X4747590Y4986249D01*
G01X4741240Y4979899D01*
G01X4738192Y4973803D01*
G01X4677232Y4924273D02*
G01X4707966Y4967453D01*
G01X4661738D01*
G01X4677232Y4924273D02*
G01X4677232Y4989297D01*
G01X4600778Y4924273D02*
G01X4631512Y4967453D01*
G01X4585284D01*
G01X4600778Y4924273D02*
G01X4600778Y4989297D01*
G01X4579620Y4780534D02*
G01X4579620Y4715510D01*
G01X4579620Y4780534D02*
G01X4601210Y4780534D01*
G01X4610608Y4777486D01*
G01X4616704Y4771390D01*
G01X4619752Y4765040D01*
G01X4623054Y4755896D01*
G01Y4740402D01*
G01X4619752Y4731004D01*
G01X4616704Y4724908D01*
G01X4610608Y4718558D01*
G01X4601210Y4715510D01*
G01X4579620D01*
G01X4653280Y4768088D02*
G01X4659376Y4771390D01*
G01X4668520Y4780534D01*
G01Y4715510D01*
G01X4717288Y4780534D02*
G01X4707890Y4777486D01*
G01X4701794Y4768088D01*
G01X4698746Y4752848D01*
G01Y4743450D01*
G01X4701794Y4727956D01*
G01X4707890Y4718558D01*
G01X4717288Y4715510D01*
G01X4723384D01*
G01X4732782Y4718558D01*
G01X4738878Y4727956D01*
G01X4741926Y4743450D01*
G01Y4752848D01*
G01X4738878Y4768088D01*
G01X4732782Y4777486D01*
G01X4723384Y4780534D01*
G01X4717288D01*
G01X3893820Y2050034D02*
G01X3893820Y1985010D01*
G01X3893820Y2050034D02*
G01X3915410Y2050034D01*
G01X3924808Y2046986D01*
G01X3930904Y2040890D01*
G01X3933952Y2034540D01*
G01X3937254Y2025396D01*
G01Y2009902D01*
G01X3933952Y2000504D01*
G01X3930904Y1994408D01*
G01X3924808Y1988058D01*
G01X3915410Y1985010D01*
G01X3893820D01*
G01X3967480Y2037588D02*
G01X3973576Y2040890D01*
G01X3982720Y2050034D01*
G01Y1985010D01*
G01X4012946Y2037588D02*
G01X4019042Y2040890D01*
G01X4028186Y2050034D01*
G01Y1985010D01*
G01X2163379Y3041170D02*
G01X2157029Y3038122D01*
G01X2150933Y3031772D01*
G01X2147885Y3025676D01*
G01Y3013230D01*
G01X2150933Y3007134D01*
G01X2157029Y3000784D01*
G01X2163379Y2997736D01*
G01X2172523Y2994688D01*
G01X2188017D01*
G01X2197415Y2997736D01*
G01X2203511Y3000784D01*
G01X2209861Y3007134D01*
G01X2212909Y3013230D01*
G01Y3025676D01*
G01X2209861Y3031772D01*
G01X2203511Y3038122D01*
G01X2197415Y3041170D01*
G01X2147885Y3102130D02*
G01X2191065Y3071396D01*
G01Y3117624D01*
G01X2147885Y3102130D02*
G01X2212909Y3102130D01*
G01X2147885Y3166392D02*
G01X2150933Y3156994D01*
G01X2160331Y3150898D01*
G01X2175571Y3147850D01*
G01X2184969D01*
G01X2200463Y3150898D01*
G01X2209861Y3156994D01*
G01X2212909Y3166392D01*
G01Y3172488D01*
G01X2209861Y3181886D01*
G01X2200463Y3187982D01*
G01X2184969Y3191030D01*
G01X2175571D01*
G01X2160331Y3187982D01*
G01X2150933Y3181886D01*
G01X2147885Y3172488D01*
G01Y3166392D01*
G01X2658679Y3231670D02*
G01X2652329Y3228622D01*
G01X2646233Y3222272D01*
G01X2643185Y3216176D01*
G01Y3203730D01*
G01X2646233Y3197634D01*
G01X2652329Y3191284D01*
G01X2658679Y3188236D01*
G01X2667823Y3185188D01*
G01X2683317D01*
G01X2692715Y3188236D01*
G01X2698811Y3191284D01*
G01X2705161Y3197634D01*
G01X2708209Y3203730D01*
G01Y3216176D01*
G01X2705161Y3222272D01*
G01X2698811Y3228622D01*
G01X2692715Y3231670D01*
G01X2643185Y3267992D02*
G01X2643185Y3302028D01*
G01X2667823Y3283486D01*
G01Y3292630D01*
G01X2670871Y3298980D01*
G01X2674173Y3302028D01*
G01X2683317Y3305076D01*
G01X2689667D01*
G01X2698811Y3302028D01*
G01X2705161Y3295932D01*
G01X2708209Y3286534D01*
G01Y3277136D01*
G01X2705161Y3267992D01*
G01X2701859Y3264944D01*
G01X2695763Y3261896D01*
G01X2664775Y3375434D02*
G01X2674173Y3372386D01*
G01X2680269Y3366036D01*
G01X2683317Y3356892D01*
G01Y3353844D01*
G01X2680269Y3344446D01*
G01X2674173Y3338350D01*
G01X2664775Y3335302D01*
G01X2661727D01*
G01X2652329Y3338350D01*
G01X2646233Y3344446D01*
G01X2643185Y3353844D01*
G01Y3356892D01*
G01X2646233Y3366036D01*
G01X2652329Y3372386D01*
G01X2664775Y3375434D01*
G01X2680269D01*
G01X2695763Y3372386D01*
G01X2705161Y3366036D01*
G01X2708209Y3356892D01*
G01Y3350542D01*
G01X2705161Y3341398D01*
G01X2698811Y3338350D01*
G01X4846320Y3650234D02*
G01X4846320Y3585210D01*
G01X4846320Y3650234D02*
G01X4874260Y3650234D01*
G01X4883404Y3647186D01*
G01X4886452Y3644138D01*
G01X4889754Y3637788D01*
G01Y3631692D01*
G01X4886452Y3625596D01*
G01X4883404Y3622548D01*
G01X4874260Y3619246D01*
G01X4846320D01*
G01X4867910Y3619246D02*
G01X4889754Y3585210D01*
G01X4923028Y3634740D02*
G01X4923028Y3637788D01*
G01X4926076Y3644138D01*
G01X4929124Y3647186D01*
G01X4935220Y3650234D01*
G01X4947666D01*
G01X4954016Y3647186D01*
G01X4957064Y3644138D01*
G01X4960112Y3637788D01*
G01Y3631692D01*
G01X4957064Y3625596D01*
G01X4950714Y3616198D01*
G01X4919980Y3585210D01*
G01X4963160D01*
G01X5030470Y3641090D02*
G01X5027422Y3647186D01*
G01X5018024Y3650234D01*
G01X5011928D01*
G01X5002530Y3647186D01*
G01X4996434Y3637788D01*
G01X4993386Y3622548D01*
G01Y3607054D01*
G01X4996434Y3594608D01*
G01X5002530Y3588258D01*
G01X5011928Y3585210D01*
G01X5014976D01*
G01X5024120Y3588258D01*
G01X5030470Y3594608D01*
G01X5033518Y3603752D01*
G01Y3607054D01*
G01X5030470Y3616198D01*
G01X5024120Y3622548D01*
G01X5014976Y3625596D01*
G01X5011928D01*
G01X5002530Y3622548D01*
G01X4996434Y3616198D01*
G01X4993386Y3607054D01*
G01X4579620Y4437634D02*
G01X4579620Y4372610D01*
G01X4579620Y4437634D02*
G01X4607560Y4437634D01*
G01X4616704Y4434586D01*
G01X4619752Y4431538D01*
G01X4623054Y4425188D01*
G01Y4419092D01*
G01X4619752Y4412996D01*
G01X4616704Y4409948D01*
G01X4607560Y4406646D01*
G01X4579620D01*
G01X4601210Y4406646D02*
G01X4623054Y4372610D01*
G01X4656328Y4422140D02*
G01X4656328Y4425188D01*
G01X4659376Y4431538D01*
G01X4662424Y4434586D01*
G01X4668520Y4437634D01*
G01X4680966D01*
G01X4687316Y4434586D01*
G01X4690364Y4431538D01*
G01X4693412Y4425188D01*
G01Y4419092D01*
G01X4690364Y4412996D01*
G01X4684014Y4403598D01*
G01X4653280Y4372610D01*
G01X4696460D01*
G01X4763770Y4437634D02*
G01X4732782Y4437634D01*
G01X4729734Y4409948D01*
G01X4732782Y4412996D01*
G01X4741926Y4416044D01*
G01X4751324D01*
G01X4760722Y4412996D01*
G01X4766818Y4406646D01*
G01X4769866Y4397502D01*
G01Y4391152D01*
G01X4766818Y4382008D01*
G01X4760722Y4375658D01*
G01X4751324Y4372610D01*
G01X4741926D01*
G01X4732782Y4375658D01*
G01X4729734Y4378960D01*
G01X4726686Y4385056D01*
G01X3622721Y2860832D02*
G01X3622721Y2795808D01*
G01X3622721Y2860832D02*
G01X3650661Y2860832D01*
G01X3659805Y2857784D01*
G01X3662853Y2854736D01*
G01X3666155Y2848386D01*
G01Y2842290D01*
G01X3662853Y2836194D01*
G01X3659805Y2833146D01*
G01X3650661Y2829844D01*
G01X3622721D01*
G01X3644311Y2829844D02*
G01X3666155Y2795808D01*
G01X3699429Y2845338D02*
G01X3699429Y2848386D01*
G01X3702477Y2854736D01*
G01X3705525Y2857784D01*
G01X3711621Y2860832D01*
G01X3724067D01*
G01X3730417Y2857784D01*
G01X3733465Y2854736D01*
G01X3736513Y2848386D01*
G01Y2842290D01*
G01X3733465Y2836194D01*
G01X3727115Y2826796D01*
G01X3696381Y2795808D01*
G01X3739561D01*
G01X3812967Y2860832D02*
G01X3781979Y2795808D01*
G01X3769787Y2860832D02*
G01X3812967Y2860832D01*
G01X3743988Y2449515D02*
G01X3743988Y2384491D01*
G01X3743988Y2449515D02*
G01X3771928Y2449515D01*
G01X3781072Y2446467D01*
G01X3784120Y2443419D01*
G01X3787422Y2437069D01*
G01Y2430973D01*
G01X3784120Y2424877D01*
G01X3781072Y2421829D01*
G01X3771928Y2418527D01*
G01X3743988D01*
G01X3765578Y2418527D02*
G01X3787422Y2384491D01*
G01X3820696Y2434021D02*
G01X3820696Y2437069D01*
G01X3823744Y2443419D01*
G01X3826792Y2446467D01*
G01X3832888Y2449515D01*
G01X3845334D01*
G01X3851684Y2446467D01*
G01X3854732Y2443419D01*
G01X3857780Y2437069D01*
G01Y2430973D01*
G01X3854732Y2424877D01*
G01X3848382Y2415479D01*
G01X3817648Y2384491D01*
G01X3860828D01*
G01X3921788Y2449515D02*
G01X3891054Y2406335D01*
G01X3937282D01*
G01X3921788Y2449515D02*
G01X3921788Y2384491D01*
G01X6954520Y3929634D02*
G01X6954520Y3864610D01*
G01X6954520Y3929634D02*
G01X6976110Y3929634D01*
G01X6985508Y3926586D01*
G01X6991604Y3920490D01*
G01X6994652Y3914140D01*
G01X6997954Y3904996D01*
G01Y3889502D01*
G01X6994652Y3880104D01*
G01X6991604Y3874008D01*
G01X6985508Y3867658D01*
G01X6976110Y3864610D01*
G01X6954520D01*
G01X7065264Y3920490D02*
G01X7062216Y3926586D01*
G01X7052818Y3929634D01*
G01X7046722D01*
G01X7037324Y3926586D01*
G01X7031228Y3917188D01*
G01X7028180Y3901948D01*
G01Y3886454D01*
G01X7031228Y3874008D01*
G01X7037324Y3867658D01*
G01X7046722Y3864610D01*
G01X7049770D01*
G01X7058914Y3867658D01*
G01X7065264Y3874008D01*
G01X7068312Y3883152D01*
G01Y3886454D01*
G01X7065264Y3895598D01*
G01X7058914Y3901948D01*
G01X7049770Y3904996D01*
G01X7046722D01*
G01X7037324Y3901948D01*
G01X7031228Y3895598D01*
G01X7028180Y3886454D01*
G01X7235256Y2712387D02*
G01X7235256Y2777411D01*
G01X7235256Y2712387D02*
G01X7207316Y2712387D01*
G01X7198172Y2715435D01*
G01X7195124Y2718483D01*
G01X7191822Y2724833D01*
G01Y2730929D01*
G01X7195124Y2737025D01*
G01X7198172Y2740073D01*
G01X7207316Y2743375D01*
G01X7235256D01*
G01X7213666Y2743375D02*
G01X7191822Y2777411D01*
G01X7158548Y2727881D02*
G01X7158548Y2724833D01*
G01X7155500Y2718483D01*
G01X7152452Y2715435D01*
G01X7146356Y2712387D01*
G01X7133910D01*
G01X7127560Y2715435D01*
G01X7124512Y2718483D01*
G01X7121464Y2724833D01*
G01Y2730929D01*
G01X7124512Y2737025D01*
G01X7130862Y2746423D01*
G01X7161596Y2777411D01*
G01X7118416D01*
G01X7082094Y2712387D02*
G01X7048058Y2712387D01*
G01X7066600Y2737025D01*
G01X7057456D01*
G01X7051106Y2740073D01*
G01X7048058Y2743375D01*
G01X7045010Y2752519D01*
G01Y2758869D01*
G01X7048058Y2768013D01*
G01X7054154Y2774363D01*
G01X7063552Y2777411D01*
G01X7072950D01*
G01X7082094Y2774363D01*
G01X7085142Y2771061D01*
G01X7088190Y2764965D01*
G01X6893578Y3874580D02*
G01X6896626Y3868230D01*
G01X6902976Y3862134D01*
G01X6909072Y3859086D01*
G01X6921518D01*
G01X6927614Y3862134D01*
G01X6933964Y3868230D01*
G01X6937012Y3874580D01*
G01X6940060Y3883724D01*
G01Y3899218D01*
G01X6937012Y3908616D01*
G01X6933964Y3914712D01*
G01X6927614Y3921062D01*
G01X6921518Y3924110D01*
G01X6909072D01*
G01X6902976Y3921062D01*
G01X6896626Y3914712D01*
G01X6893578Y3908616D01*
G01X6832618Y3859086D02*
G01X6863352Y3902266D01*
G01X6817124D01*
G01X6832618Y3859086D02*
G01X6832618Y3924110D01*
G01X6780802Y3859086D02*
G01X6746766Y3859086D01*
G01X6765308Y3883724D01*
G01X6756164D01*
G01X6749814Y3886772D01*
G01X6746766Y3890074D01*
G01X6743718Y3899218D01*
G01Y3905568D01*
G01X6746766Y3914712D01*
G01X6752862Y3921062D01*
G01X6762260Y3924110D01*
G01X6771658D01*
G01X6780802Y3921062D01*
G01X6783850Y3917760D01*
G01X6786898Y3911664D01*
G01X6156098Y4897882D02*
G01X6153050Y4904232D01*
G01X6146700Y4910328D01*
G01X6140604Y4913376D01*
G01X6128158D01*
G01X6122062Y4910328D01*
G01X6115712Y4904232D01*
G01X6112664Y4897882D01*
G01X6109616Y4888738D01*
G01Y4873244D01*
G01X6112664Y4863846D01*
G01X6115712Y4857750D01*
G01X6122062Y4851400D01*
G01X6128158Y4848352D01*
G01X6140604D01*
G01X6146700Y4851400D01*
G01X6153050Y4857750D01*
G01X6156098Y4863846D01*
G01X6189372Y4897882D02*
G01X6189372Y4900930D01*
G01X6192420Y4907280D01*
G01X6195468Y4910328D01*
G01X6201564Y4913376D01*
G01X6214010D01*
G01X6220360Y4910328D01*
G01X6223408Y4907280D01*
G01X6226456Y4900930D01*
G01Y4894834D01*
G01X6223408Y4888738D01*
G01X6217058Y4879340D01*
G01X6186324Y4848352D01*
G01X6229504D01*
G01X6296814Y4913376D02*
G01X6265826Y4913376D01*
G01X6262778Y4885690D01*
G01X6265826Y4888738D01*
G01X6274970Y4891786D01*
G01X6284368D01*
G01X6293766Y4888738D01*
G01X6299862Y4882388D01*
G01X6302910Y4873244D01*
G01Y4866894D01*
G01X6299862Y4857750D01*
G01X6293766Y4851400D01*
G01X6284368Y4848352D01*
G01X6274970D01*
G01X6265826Y4851400D01*
G01X6262778Y4854702D01*
G01X6259730Y4860798D01*
G01X6018708Y5334533D02*
G01X6015660Y5340883D01*
G01X6009310Y5346979D01*
G01X6003214Y5350027D01*
G01X5990768D01*
G01X5984672Y5346979D01*
G01X5978322Y5340883D01*
G01X5975274Y5334533D01*
G01X5972226Y5325389D01*
G01Y5309895D01*
G01X5975274Y5300497D01*
G01X5978322Y5294401D01*
G01X5984672Y5288051D01*
G01X5990768Y5285003D01*
G01X6003214D01*
G01X6009310Y5288051D01*
G01X6015660Y5294401D01*
G01X6018708Y5300497D01*
G01X6079668Y5350027D02*
G01X6048934Y5306847D01*
G01X6095162D01*
G01X6079668Y5350027D02*
G01X6079668Y5285003D01*
G01X6162472Y5350027D02*
G01X6131484Y5350027D01*
G01X6128436Y5322341D01*
G01X6131484Y5325389D01*
G01X6140628Y5328437D01*
G01X6150026D01*
G01X6159424Y5325389D01*
G01X6165520Y5319039D01*
G01X6168568Y5309895D01*
G01Y5303545D01*
G01X6165520Y5294401D01*
G01X6159424Y5288051D01*
G01X6150026Y5285003D01*
G01X6140628D01*
G01X6131484Y5288051D01*
G01X6128436Y5291353D01*
G01X6125388Y5297449D01*
G01X6680114Y1264587D02*
G01X6680114Y1329611D01*
G01X6680114Y1264587D02*
G01X6652174Y1264587D01*
G01X6643030Y1267635D01*
G01X6639982Y1270683D01*
G01X6636680Y1277033D01*
G01Y1283129D01*
G01X6639982Y1289225D01*
G01X6643030Y1292273D01*
G01X6652174Y1295575D01*
G01X6680114D01*
G01X6658524Y1295575D02*
G01X6636680Y1329611D01*
G01X6606454Y1277033D02*
G01X6600358Y1273731D01*
G01X6591214Y1264587D01*
G01Y1329611D01*
G01X6554892Y1264587D02*
G01X6520856Y1264587D01*
G01X6539398Y1289225D01*
G01X6530254D01*
G01X6523904Y1292273D01*
G01X6520856Y1295575D01*
G01X6517808Y1304719D01*
G01Y1311069D01*
G01X6520856Y1320213D01*
G01X6526952Y1326563D01*
G01X6536350Y1329611D01*
G01X6545748D01*
G01X6554892Y1326563D01*
G01X6557940Y1323261D01*
G01X6560988Y1317165D01*
G01X6452956Y2943080D02*
G01X6387932Y2943080D01*
G01X6452956Y2943080D02*
G01X6452956Y2921490D01*
G01X6449908Y2912092D01*
G01X6443812Y2905996D01*
G01X6437462Y2902948D01*
G01X6428318Y2899646D01*
G01X6412824D01*
G01X6403426Y2902948D01*
G01X6397330Y2905996D01*
G01X6390980Y2912092D01*
G01X6387932Y2921490D01*
G01Y2943080D01*
G01X6440510Y2869420D02*
G01X6443812Y2863324D01*
G01X6452956Y2854180D01*
G01X6387932D01*
G01X6437462Y2820906D02*
G01X6440510Y2820906D01*
G01X6446860Y2817858D01*
G01X6449908Y2814810D01*
G01X6452956Y2808714D01*
G01Y2796268D01*
G01X6449908Y2789918D01*
G01X6446860Y2786870D01*
G01X6440510Y2783822D01*
G01X6434414D01*
G01X6428318Y2786870D01*
G01X6418920Y2793220D01*
G01X6387932Y2823954D01*
G01Y2780774D01*
G01X6440256Y4098780D02*
G01X6375232Y4098780D01*
G01X6440256Y4098780D02*
G01X6440256Y4077190D01*
G01X6437208Y4067792D01*
G01X6431112Y4061696D01*
G01X6424762Y4058648D01*
G01X6415618Y4055346D01*
G01X6400124D01*
G01X6390726Y4058648D01*
G01X6384630Y4061696D01*
G01X6378280Y4067792D01*
G01X6375232Y4077190D01*
G01Y4098780D01*
G01X6427810Y4025120D02*
G01X6431112Y4019024D01*
G01X6440256Y4009880D01*
G01X6375232D01*
G01X6440256Y3973558D02*
G01X6440256Y3939522D01*
G01X6415618Y3958064D01*
G01Y3948920D01*
G01X6412570Y3942570D01*
G01X6409268Y3939522D01*
G01X6400124Y3936474D01*
G01X6393774D01*
G01X6384630Y3939522D01*
G01X6378280Y3945618D01*
G01X6375232Y3955016D01*
G01Y3964414D01*
G01X6378280Y3973558D01*
G01X6381582Y3976606D01*
G01X6387678Y3979654D01*
G04 Text End*

G04 PolygonModel Start*
G01X1505001Y3512518D02*
G01X1327861Y3512518D01*
G01X1327861Y3512518D02*
G01X1327861Y2507280D01*
G01X1327861Y2507280D02*
G01X1847139Y2507280D01*
G01X1847139Y2507280D02*
G01X1847139Y3512518D01*
G01X1847139Y3512518D02*
G01X1669999Y3512518D01*
G01X1505001Y3512520D02*
G03X1669999Y3512520I82499J0D01*
G01X6742938Y4594606D02*
G01X6742938Y4798822D01*
G01X6742938Y4798822D02*
G01X6342126Y4798822D01*
G01X6342126Y4798822D02*
G01X6211062Y4668012D01*
G01X6211062Y4668012D02*
G01X6211062Y4594606D01*
G01X6741922Y4473194D02*
G01X6741922Y4272026D01*
G01X6741922Y4272026D02*
G01X6339840Y4272026D01*
G01X6339840Y4272026D02*
G01X6211062Y4400804D01*
G01X6211062Y4400804D02*
G01X6211062Y4473194D01*
G36*
G01X6702600Y4430700D02*
G01X6702600Y4416301D01*
G01X6645001D01*
G01Y4430700D01*
G01X6702600D01*
G37*
G36*
G01X6251400Y4430700D02*
G01X6251400Y4416301D01*
G01X6308999D01*
G01Y4430700D01*
G01X6251400D01*
G37*
G36*
G01X6273000Y4471500D02*
G01X6273000Y4375501D01*
G01X6287399D01*
G01Y4471500D01*
G01X6273000D01*
G37*
G01X6036381Y1770459D02*
G01X5892886Y1770459D01*
G01X5892886Y1770459D02*
G01X5892886Y1379141D01*
G01X5892886Y1379141D02*
G01X6036381Y1379141D01*
G01X6536619Y1770459D02*
G01X6680114Y1770459D01*
G01X6680114Y1770459D02*
G01X6680114Y1379141D01*
G01X6680114Y1379141D02*
G01X6536619Y1379141D01*
G01X5132852Y5375430D02*
G01X4989358Y5375430D01*
G01X4989358Y5375430D02*
G01X4989358Y4984112D01*
G01X4989358Y4984112D02*
G01X5132852Y4984112D01*
G01X5633090Y5375430D02*
G01X5776585Y5375430D01*
G01X5776585Y5375430D02*
G01X5776585Y4984112D01*
G01X5776585Y4984112D02*
G01X5633090Y4984112D01*
G54D11*
G01X1847499Y4012900D02*
G01X1327501Y4012900D01*
G01X1327501Y4012900D02*
G01X1327501Y4292900D01*
G01X1847499Y4292900D02*
G01X1327501Y4292900D01*
G01X1847499Y4012900D02*
G01X1847499Y4292900D01*
G01X1751574Y4012900D02*
G01X1751574Y4292900D01*
G01X3702401Y4699300D02*
G01X4222399Y4699300D01*
G01X4222399Y4699300D02*
G01X4222399Y4419300D01*
G01X3702401Y4419300D02*
G01X4222399Y4419300D01*
G01X3702401Y4699300D02*
G01X3702401Y4419300D01*
G01X3798326Y4699300D02*
G01X3798326Y4419300D01*
G01X3677001Y1867200D02*
G01X4196999Y1867200D01*
G01X4196999Y1867200D02*
G01X4196999Y1587200D01*
G01X3677001Y1587200D02*
G01X4196999Y1587200D01*
G01X3677001Y1867200D02*
G01X3677001Y1587200D01*
G01X3772926Y1867200D02*
G01X3772926Y1587200D01*
G01X6248700Y2685699D02*
G01X6248700Y2165701D01*
G01X6248700Y2165701D02*
G01X5968700Y2165701D01*
G01X5968700Y2685699D02*
G01X5968700Y2165701D01*
G01X6248700Y2685699D02*
G01X5968700Y2685699D01*
G01X6248700Y2589774D02*
G01X5968700Y2589774D01*
G01X6236000Y3841399D02*
G01X6236000Y3321401D01*
G01X6236000Y3321401D02*
G01X5956000Y3321401D01*
G01X5956000Y3841399D02*
G01X5956000Y3321401D01*
G01X6236000Y3841399D02*
G01X5956000Y3841399D01*
G01X6236000Y3745474D02*
G01X5956000Y3745474D01*
G54D10*
G01X6591524Y3218259D02*
G01X6448029Y3218259D01*
G01X6448029Y3218259D02*
G01X6448029Y2826941D01*
G01X6448029Y2826941D02*
G01X6591524Y2826941D01*
G01X7091761Y3218259D02*
G01X7235256Y3218259D01*
G01X7235256Y3218259D02*
G01X7235256Y2826941D01*
G01X7235256Y2826941D02*
G01X7091761Y2826941D01*
G01X7124700Y3429000D02*
G01X6598067Y3430463D01*
G01X7124273Y3810000D02*
G01X6598920Y3808222D01*
G36*
G01X7086600Y3429000D02*
G01X7086600Y3497951D01*
G01X7132320D01*
G01Y3429000D01*
G01X7086600D01*
G37*
G36*
G01X7086600Y3810000D02*
G01X7086600Y3741049D01*
G01X7132320D01*
G01Y3810000D01*
G01X7086600D01*
G37*
G36*
G01X6591300Y3810000D02*
G01X6591300Y3741049D01*
G01X6637020D01*
G01Y3810000D01*
G01X6591300D01*
G37*
G36*
G01X6591300Y3429000D02*
G01X6591300Y3497951D01*
G01X6637020D01*
G01Y3429000D01*
G01X6591300D01*
G37*
G36*
G01X6921500Y3556000D02*
G01X6858000Y3619500D01*
G01X6921500Y3683000D01*
G01Y3556000D01*
G37*
G36*
G01X6794500Y3556000D02*
G01X6794500Y3683000D01*
G01X6858000Y3619500D01*
G01X6794500Y3556000D01*
G37*
G54D11*
G01X3797313Y3429000D02*
G01X3721113Y3429000D01*
G01X4711713Y3429000D02*
G01X4787913Y3429000D01*
G01X2621001Y2741303D02*
G01X2621001Y4091297D01*
G01X2621001Y4091297D02*
G01X3220999Y4091297D01*
G01X3220999Y4091297D02*
G01X3220999Y2741303D01*
G01X3220999Y2741303D02*
G01X2621001Y2741303D01*
G01X4432287Y2171700D02*
G01X4508487Y2171700D01*
G01X3517887Y2171700D02*
G01X3441687Y2171700D01*
G01X4457687Y4127500D02*
G01X4533887Y4127500D01*
G01X3543287Y4127500D02*
G01X3467087Y4127500D01*
G01X4444987Y2616200D02*
G01X4521187Y2616200D01*
G01X3530587Y2616200D02*
G01X3454387Y2616200D01*
G01X1227506Y3884193D02*
G01X1227506Y3634207D01*
G01X1227506Y3884193D02*
G01X1947494Y3884193D01*
G01X1947494Y3634207D02*
G01X1947494Y3884193D01*
G01X1947494Y3634207D02*
G01X1227506Y3634207D01*
G01X1227506Y4646193D02*
G01X1227506Y4396207D01*
G01X1227506Y4646193D02*
G01X1947494Y4646193D01*
G01X1947494Y4396207D02*
G01X1947494Y4646193D01*
G01X1947494Y4396207D02*
G01X1227506Y4396207D01*
G01X7103694Y3939007D02*
G01X7103694Y4188993D01*
G01X7103694Y3939007D02*
G01X6383706Y3939007D01*
G01X6383706Y4188993D02*
G01X6383706Y3939007D01*
G01X6383706Y4188993D02*
G01X7103694Y4188993D01*
G01X749300Y3538901D02*
G01X1003300Y3538901D01*
G01X749300Y2480899D02*
G01X749300Y3538901D01*
G01X749300Y2758252D02*
G01X1003300Y2758252D01*
G01X1003300Y2480899D02*
G01X1003300Y3538901D01*
G01X749300Y2480899D02*
G01X1003300Y2480899D01*
G01X4779594Y5043907D02*
G01X4779594Y5293893D01*
G01X4779594Y5043907D02*
G01X4059606Y5043907D01*
G01X4059606Y5293893D02*
G01X4059606Y5043907D01*
G01X4059606Y5293893D02*
G01X4779594Y5293893D01*
G01X5977306Y5230393D02*
G01X5977306Y4980407D01*
G01X5977306Y5230393D02*
G01X6697294Y5230393D01*
G01X6697294Y4980407D02*
G01X6697294Y5230393D01*
G01X6697294Y4980407D02*
G01X5977306Y4980407D01*
G01X4895063Y4271198D02*
G01X5888990Y4271198D01*
G01X4894704Y4341030D02*
G01X4896990Y3895603D01*
G01X4896990Y3895603D02*
G01X5888990Y3895603D01*
G01X5888990Y3895603D02*
G01X5888990Y4341602D01*
G01X5888990Y4341602D02*
G01X4894514Y4341348D01*
G01X4881867Y2519093D02*
G01X5875795Y2519093D01*
G01X4881509Y2588925D02*
G01X4883795Y2143498D01*
G01X4883795Y2143498D02*
G01X5875795Y2143498D01*
G01X5875795Y2143498D02*
G01X5875795Y2589497D01*
G01X5875795Y2589497D02*
G01X4881319Y2589243D01*
G01X3492500Y5308600D02*
G01X2730500Y5308600D01*
G01X2730500Y5308600D02*
G01X2730500Y5562600D01*
G01X3492500Y5562600D02*
G01X2730500Y5562600D01*
G01X3492500Y5308600D02*
G01X3492500Y5562600D01*
G01X3233656Y5308600D02*
G01X3233656Y5562600D01*
G01X2300707Y2865806D02*
G01X2550693Y2865806D01*
G01X2300707Y2865806D02*
G01X2300707Y3585794D01*
G01X2550693Y3585794D02*
G01X2300707Y3585794D01*
G01X2550693Y3585794D02*
G01X2550693Y2865806D01*
G04 PolygonModel End*

G04 Rect Start*
G01X4704499Y3264002D02*
G01X4704499Y3593998D01*
G01X3804501D01*
G01Y3264002D01*
G01X4704499D01*
G01X3525101Y2336698D02*
G01X3525101Y2006702D01*
G01X4425099D01*
G01Y2336698D01*
G01X3525101D01*
G01X3550501Y4292498D02*
G01X3550501Y3962502D01*
G01X4450499D01*
G01Y4292498D01*
G01X3550501D01*
G01X3537801Y2781198D02*
G01X3537801Y2451202D01*
G01X4437799D01*
G01Y2781198D01*
G01X3537801D01*
G04 Rect End*

G04 Circle Start*
G54D12*
G01X1267689Y3517900D02*
G03X1297711Y3517900I15011J0D01*
G03X1267689I-15011J0D01*
G04 Circle End*

M02*
