G04 Layer: DrillDrawingLayer*
G04 EasyEDA Pro v2.1.64.d1969c9c.217bcf, 2024-10-29 18:51:19*
G04 Gerber Generator version 0.3*
G04 Scale: 100 percent, Rotated: No, Reflected: No*
G04 Dimensions in millimeters*
G04 Leading zeros omitted, absolute positions, 3 integers and 5 decimals*
%FSLAX35Y35*%
%MOMM*%
%ADD10C,0.254*%
G75*


G04 Image Start*
G36*
G01X2901086Y2911246D02*
G01X2901086Y2907589D01*
G01X2904693D01*
G01X2937307D01*
G01Y2874975D01*
G01X2904693D01*
G01Y2907589D01*
G01X2901086D01*
G01Y2871368D01*
G01X2940964D01*
G01Y2911246D01*
G37*
G36*
G01X2901086Y3961232D02*
G01X2901086Y3957625D01*
G01X2904693D01*
G01X2937307D01*
G01Y3925011D01*
G01X2904693D01*
G01Y3957625D01*
G01X2901086D01*
G01Y3921354D01*
G01X2940964D01*
G01Y3961232D01*
G37*
G36*
G01X2857500Y5455564D02*
G01X2855468Y5455412D01*
G01X2853487Y5455158D01*
G01X2851556Y5454650D01*
G01X2849728Y5453990D01*
G01X2848000Y5453126D01*
G01X2846375Y5452110D01*
G01X2844800Y5450992D01*
G01X2843378Y5449722D01*
G01X2842108Y5448300D01*
G01X2840990Y5446725D01*
G01X2839974Y5445100D01*
G01X2839110Y5443372D01*
G01X2838450Y5441544D01*
G01X2837942Y5439613D01*
G01X2837688Y5437632D01*
G01X2837586Y5435600D01*
G01X2840888D01*
G01X2840990Y5437276D01*
G01X2841244Y5438953D01*
G01X2841650Y5440528D01*
G01X2842209Y5442052D01*
G01X2842870Y5443525D01*
G01X2843733Y5444896D01*
G01X2844698Y5446166D01*
G01X2845765Y5447335D01*
G01X2846934Y5448402D01*
G01X2848204Y5449367D01*
G01X2849575Y5450230D01*
G01X2851048Y5450891D01*
G01X2852572Y5451450D01*
G01X2854147Y5451856D01*
G01X2855824Y5452110D01*
G01X2857500Y5452212D01*
G01X2859176Y5452110D01*
G01X2860853Y5451856D01*
G01X2862428Y5451450D01*
G01X2863952Y5450891D01*
G01X2865425Y5450230D01*
G01X2866796Y5449367D01*
G01X2868066Y5448402D01*
G01X2869235Y5447335D01*
G01X2870302Y5446166D01*
G01X2871267Y5444896D01*
G01X2872130Y5443525D01*
G01X2872791Y5442052D01*
G01X2873350Y5440528D01*
G01X2873756Y5438953D01*
G01X2874010Y5437276D01*
G01X2874112Y5435600D01*
G01X2874010Y5433924D01*
G01X2873756Y5432247D01*
G01X2873350Y5430672D01*
G01X2872791Y5429148D01*
G01X2872130Y5427675D01*
G01X2871267Y5426304D01*
G01X2870302Y5425034D01*
G01X2869235Y5423865D01*
G01X2868066Y5422798D01*
G01X2866796Y5421833D01*
G01X2865425Y5420970D01*
G01X2863952Y5420309D01*
G01X2862428Y5419750D01*
G01X2860853Y5419344D01*
G01X2859176Y5419090D01*
G01X2857500Y5418988D01*
G01X2855824Y5419090D01*
G01X2854147Y5419344D01*
G01X2852572Y5419750D01*
G01X2851048Y5420309D01*
G01X2849575Y5420970D01*
G01X2848204Y5421833D01*
G01X2846934Y5422798D01*
G01X2845765Y5423865D01*
G01X2844698Y5425034D01*
G01X2843733Y5426304D01*
G01X2842870Y5427675D01*
G01X2842209Y5429148D01*
G01X2841650Y5430672D01*
G01X2841244Y5432247D01*
G01X2840990Y5433924D01*
G01X2840888Y5435600D01*
G01X2837586D01*
G01X2837688Y5433568D01*
G01X2837942Y5431587D01*
G01X2838450Y5429656D01*
G01X2839110Y5427828D01*
G01X2839974Y5426100D01*
G01X2840990Y5424475D01*
G01X2842108Y5422900D01*
G01X2843378Y5421478D01*
G01X2844800Y5420208D01*
G01X2846375Y5419090D01*
G01X2848000Y5418074D01*
G01X2849728Y5417210D01*
G01X2851556Y5416550D01*
G01X2853487Y5416042D01*
G01X2855468Y5415788D01*
G01X2857500Y5415636D01*
G01X2859532Y5415788D01*
G01X2861513Y5416042D01*
G01X2863444Y5416550D01*
G01X2865272Y5417210D01*
G01X2867000Y5418074D01*
G01X2868625Y5419090D01*
G01X2870200Y5420208D01*
G01X2871622Y5421478D01*
G01X2872892Y5422900D01*
G01X2874010Y5424475D01*
G01X2875026Y5426100D01*
G01X2875890Y5427828D01*
G01X2876550Y5429656D01*
G01X2877058Y5431587D01*
G01X2877312Y5433568D01*
G01X2877464Y5435600D01*
G01X2877312Y5437632D01*
G01X2877058Y5439613D01*
G01X2876550Y5441544D01*
G01X2875890Y5443372D01*
G01X2875026Y5445100D01*
G01X2874010Y5446725D01*
G01X2872892Y5448300D01*
G01X2871622Y5449722D01*
G01X2870200Y5450992D01*
G01X2868625Y5452110D01*
G01X2867000Y5453126D01*
G01X2865272Y5453990D01*
G01X2863444Y5454650D01*
G01X2861513Y5455158D01*
G01X2859532Y5455412D01*
G37*
G36*
G01X3111500Y5455564D02*
G01X3109468Y5455412D01*
G01X3107487Y5455158D01*
G01X3105556Y5454650D01*
G01X3103728Y5453990D01*
G01X3102000Y5453126D01*
G01X3100375Y5452110D01*
G01X3098800Y5450992D01*
G01X3097378Y5449722D01*
G01X3096108Y5448300D01*
G01X3094990Y5446725D01*
G01X3093974Y5445100D01*
G01X3093110Y5443372D01*
G01X3092450Y5441544D01*
G01X3091942Y5439613D01*
G01X3091688Y5437632D01*
G01X3091586Y5435600D01*
G01X3094888D01*
G01X3094990Y5437276D01*
G01X3095244Y5438953D01*
G01X3095650Y5440528D01*
G01X3096209Y5442052D01*
G01X3096870Y5443525D01*
G01X3097733Y5444896D01*
G01X3098698Y5446166D01*
G01X3099765Y5447335D01*
G01X3100934Y5448402D01*
G01X3102204Y5449367D01*
G01X3103575Y5450230D01*
G01X3105048Y5450891D01*
G01X3106572Y5451450D01*
G01X3108147Y5451856D01*
G01X3109824Y5452110D01*
G01X3111500Y5452212D01*
G01X3113176Y5452110D01*
G01X3114853Y5451856D01*
G01X3116428Y5451450D01*
G01X3117952Y5450891D01*
G01X3119425Y5450230D01*
G01X3120796Y5449367D01*
G01X3122066Y5448402D01*
G01X3123235Y5447335D01*
G01X3124302Y5446166D01*
G01X3125267Y5444896D01*
G01X3126130Y5443525D01*
G01X3126791Y5442052D01*
G01X3127350Y5440528D01*
G01X3127756Y5438953D01*
G01X3128010Y5437276D01*
G01X3128112Y5435600D01*
G01X3128010Y5433924D01*
G01X3127756Y5432247D01*
G01X3127350Y5430672D01*
G01X3126791Y5429148D01*
G01X3126130Y5427675D01*
G01X3125267Y5426304D01*
G01X3124302Y5425034D01*
G01X3123235Y5423865D01*
G01X3122066Y5422798D01*
G01X3120796Y5421833D01*
G01X3119425Y5420970D01*
G01X3117952Y5420309D01*
G01X3116428Y5419750D01*
G01X3114853Y5419344D01*
G01X3113176Y5419090D01*
G01X3111500Y5418988D01*
G01X3109824Y5419090D01*
G01X3108147Y5419344D01*
G01X3106572Y5419750D01*
G01X3105048Y5420309D01*
G01X3103575Y5420970D01*
G01X3102204Y5421833D01*
G01X3100934Y5422798D01*
G01X3099765Y5423865D01*
G01X3098698Y5425034D01*
G01X3097733Y5426304D01*
G01X3096870Y5427675D01*
G01X3096209Y5429148D01*
G01X3095650Y5430672D01*
G01X3095244Y5432247D01*
G01X3094990Y5433924D01*
G01X3094888Y5435600D01*
G01X3091586D01*
G01X3091688Y5433568D01*
G01X3091942Y5431587D01*
G01X3092450Y5429656D01*
G01X3093110Y5427828D01*
G01X3093974Y5426100D01*
G01X3094990Y5424475D01*
G01X3096108Y5422900D01*
G01X3097378Y5421478D01*
G01X3098800Y5420208D01*
G01X3100375Y5419090D01*
G01X3102000Y5418074D01*
G01X3103728Y5417210D01*
G01X3105556Y5416550D01*
G01X3107487Y5416042D01*
G01X3109468Y5415788D01*
G01X3111500Y5415636D01*
G01X3113532Y5415788D01*
G01X3115513Y5416042D01*
G01X3117444Y5416550D01*
G01X3119272Y5417210D01*
G01X3121000Y5418074D01*
G01X3122625Y5419090D01*
G01X3124200Y5420208D01*
G01X3125622Y5421478D01*
G01X3126892Y5422900D01*
G01X3128010Y5424475D01*
G01X3129026Y5426100D01*
G01X3129890Y5427828D01*
G01X3130550Y5429656D01*
G01X3131058Y5431587D01*
G01X3131312Y5433568D01*
G01X3131464Y5435600D01*
G01X3131312Y5437632D01*
G01X3131058Y5439613D01*
G01X3130550Y5441544D01*
G01X3129890Y5443372D01*
G01X3129026Y5445100D01*
G01X3128010Y5446725D01*
G01X3126892Y5448300D01*
G01X3125622Y5449722D01*
G01X3124200Y5450992D01*
G01X3122625Y5452110D01*
G01X3121000Y5453126D01*
G01X3119272Y5453990D01*
G01X3117444Y5454650D01*
G01X3115513Y5455158D01*
G01X3113532Y5455412D01*
G37*
G36*
G01X3365500Y5455564D02*
G01X3363468Y5455412D01*
G01X3361487Y5455158D01*
G01X3359556Y5454650D01*
G01X3357728Y5453990D01*
G01X3356000Y5453126D01*
G01X3354375Y5452110D01*
G01X3352800Y5450992D01*
G01X3351378Y5449722D01*
G01X3350108Y5448300D01*
G01X3348990Y5446725D01*
G01X3347974Y5445100D01*
G01X3347110Y5443372D01*
G01X3346450Y5441544D01*
G01X3345942Y5439613D01*
G01X3345688Y5437632D01*
G01X3345586Y5435600D01*
G01X3348888D01*
G01X3348990Y5437276D01*
G01X3349244Y5438953D01*
G01X3349650Y5440528D01*
G01X3350209Y5442052D01*
G01X3350870Y5443525D01*
G01X3351733Y5444896D01*
G01X3352698Y5446166D01*
G01X3353765Y5447335D01*
G01X3354934Y5448402D01*
G01X3356204Y5449367D01*
G01X3357575Y5450230D01*
G01X3359048Y5450891D01*
G01X3360572Y5451450D01*
G01X3362147Y5451856D01*
G01X3363824Y5452110D01*
G01X3365500Y5452212D01*
G01X3367176Y5452110D01*
G01X3368853Y5451856D01*
G01X3370428Y5451450D01*
G01X3371952Y5450891D01*
G01X3373425Y5450230D01*
G01X3374796Y5449367D01*
G01X3376066Y5448402D01*
G01X3377235Y5447335D01*
G01X3378302Y5446166D01*
G01X3379267Y5444896D01*
G01X3380130Y5443525D01*
G01X3380791Y5442052D01*
G01X3381350Y5440528D01*
G01X3381756Y5438953D01*
G01X3382010Y5437276D01*
G01X3382112Y5435600D01*
G01X3382010Y5433924D01*
G01X3381756Y5432247D01*
G01X3381350Y5430672D01*
G01X3380791Y5429148D01*
G01X3380130Y5427675D01*
G01X3379267Y5426304D01*
G01X3378302Y5425034D01*
G01X3377235Y5423865D01*
G01X3376066Y5422798D01*
G01X3374796Y5421833D01*
G01X3373425Y5420970D01*
G01X3371952Y5420309D01*
G01X3370428Y5419750D01*
G01X3368853Y5419344D01*
G01X3367176Y5419090D01*
G01X3365500Y5418988D01*
G01X3363824Y5419090D01*
G01X3362147Y5419344D01*
G01X3360572Y5419750D01*
G01X3359048Y5420309D01*
G01X3357575Y5420970D01*
G01X3356204Y5421833D01*
G01X3354934Y5422798D01*
G01X3353765Y5423865D01*
G01X3352698Y5425034D01*
G01X3351733Y5426304D01*
G01X3350870Y5427675D01*
G01X3350209Y5429148D01*
G01X3349650Y5430672D01*
G01X3349244Y5432247D01*
G01X3348990Y5433924D01*
G01X3348888Y5435600D01*
G01X3345586D01*
G01X3345688Y5433568D01*
G01X3345942Y5431587D01*
G01X3346450Y5429656D01*
G01X3347110Y5427828D01*
G01X3347974Y5426100D01*
G01X3348990Y5424475D01*
G01X3350108Y5422900D01*
G01X3351378Y5421478D01*
G01X3352800Y5420208D01*
G01X3354375Y5419090D01*
G01X3356000Y5418074D01*
G01X3357728Y5417210D01*
G01X3359556Y5416550D01*
G01X3361487Y5416042D01*
G01X3363468Y5415788D01*
G01X3365500Y5415636D01*
G01X3367532Y5415788D01*
G01X3369513Y5416042D01*
G01X3371444Y5416550D01*
G01X3373272Y5417210D01*
G01X3375000Y5418074D01*
G01X3376625Y5419090D01*
G01X3378200Y5420208D01*
G01X3379622Y5421478D01*
G01X3380892Y5422900D01*
G01X3382010Y5424475D01*
G01X3383026Y5426100D01*
G01X3383890Y5427828D01*
G01X3384550Y5429656D01*
G01X3385058Y5431587D01*
G01X3385312Y5433568D01*
G01X3385464Y5435600D01*
G01X3385312Y5437632D01*
G01X3385058Y5439613D01*
G01X3384550Y5441544D01*
G01X3383890Y5443372D01*
G01X3383026Y5445100D01*
G01X3382010Y5446725D01*
G01X3380892Y5448300D01*
G01X3379622Y5449722D01*
G01X3378200Y5450992D01*
G01X3376625Y5452110D01*
G01X3375000Y5453126D01*
G01X3373272Y5453990D01*
G01X3371444Y5454650D01*
G01X3369513Y5455158D01*
G01X3367532Y5455412D01*
G37*
G36*
G01X856336Y2646172D02*
G01X858266Y2642819D01*
G01X862127D01*
G01X890473D01*
G01X883412Y2630576D01*
G01X876300Y2618283D01*
G01X869188Y2630576D01*
G01X862127Y2642819D01*
G01X858266D01*
G01X866343Y2628900D01*
G01X876300Y2611628D01*
G01X886257Y2628900D01*
G01X896264Y2646172D01*
G37*
G36*
G01X856336Y2900172D02*
G01X858266Y2896819D01*
G01X862127D01*
G01X890473D01*
G01X883412Y2884576D01*
G01X876300Y2872283D01*
G01X869188Y2884576D01*
G01X862127Y2896819D01*
G01X858266D01*
G01X866343Y2882900D01*
G01X876300Y2865628D01*
G01X886257Y2882900D01*
G01X896264Y2900172D01*
G37*
G36*
G01X856336Y3154172D02*
G01X858266Y3150819D01*
G01X862127D01*
G01X890473D01*
G01X883412Y3138576D01*
G01X876300Y3126283D01*
G01X869188Y3138576D01*
G01X862127Y3150819D01*
G01X858266D01*
G01X866343Y3136900D01*
G01X876300Y3119628D01*
G01X886257Y3136900D01*
G01X896264Y3154172D01*
G37*
G36*
G01X856336Y3408172D02*
G01X858266Y3404819D01*
G01X862127D01*
G01X890473D01*
G01X883412Y3392576D01*
G01X876300Y3380283D01*
G01X869188Y3392576D01*
G01X862127Y3404819D01*
G01X858266D01*
G01X866343Y3390900D01*
G01X876300Y3373628D01*
G01X886257Y3390900D01*
G01X896264Y3408172D01*
G37*
G36*
G01X5398008Y4125112D02*
G01X5392217Y4112057D01*
G01X5378044Y4113632D01*
G01X5386476Y4102100D01*
G01X5381142Y4094836D01*
G01X5385359D01*
G01X5389220Y4100068D01*
G01X5390693Y4102100D01*
G01X5389220Y4104132D01*
G01X5385359Y4109364D01*
G01X5391861Y4108704D01*
G01X5394350Y4108399D01*
G01X5395366Y4110685D01*
G01X5398008Y4116680D01*
G01X5400599Y4110685D01*
G01X5401615Y4108399D01*
G01X5404104Y4108653D01*
G01X5410606Y4109364D01*
G01X5406746Y4104132D01*
G01X5405272Y4102100D01*
G01X5406746Y4100068D01*
G01X5410606Y4094836D01*
G01X5404104Y4095547D01*
G01X5401615Y4095801D01*
G01X5400650Y4093515D01*
G01X5398008Y4087520D01*
G01X5395366Y4093515D01*
G01X5394350Y4095801D01*
G01X5391861Y4095547D01*
G01X5385359Y4094836D01*
G01X5381142D01*
G01X5378044Y4090568D01*
G01X5392217Y4092143D01*
G01X5398008Y4079088D01*
G01X5403748Y4092143D01*
G01X5417922Y4090568D01*
G01X5409489Y4102100D01*
G01X5417922Y4113632D01*
G01X5403748Y4112057D01*
G37*
G36*
G01X5651957Y4124147D02*
G01X5646217Y4111092D01*
G01X5632044Y4112616D01*
G01X5640476Y4101084D01*
G01X5635142Y4093820D01*
G01X5639359D01*
G01X5643220Y4099103D01*
G01X5644693Y4101084D01*
G01X5643220Y4103116D01*
G01X5639359Y4108399D01*
G01X5645861Y4107688D01*
G01X5648350Y4107434D01*
G01X5649366Y4109720D01*
G01X5651957Y4115664D01*
G01X5654599Y4109669D01*
G01X5655615Y4107383D01*
G01X5658104Y4107688D01*
G01X5664606Y4108399D01*
G01X5660746Y4103116D01*
G01X5659272Y4101084D01*
G01X5660746Y4099103D01*
G01X5664606Y4093820D01*
G01X5658104Y4094531D01*
G01X5655615Y4094785D01*
G01X5651957Y4086555D01*
G01X5649366Y4092499D01*
G01X5648350Y4094785D01*
G01X5645861Y4094531D01*
G01X5639359Y4093820D01*
G01X5635142D01*
G01X5632044Y4089603D01*
G01X5646217Y4091127D01*
G01X5651957Y4078072D01*
G01X5657748Y4091127D01*
G01X5671922Y4089603D01*
G01X5663489Y4101084D01*
G01X5671922Y4112616D01*
G01X5657748Y4111092D01*
G37*
G36*
G01X5144008Y4125112D02*
G01X5138217Y4112057D01*
G01X5124044Y4113632D01*
G01X5132476Y4102100D01*
G01X5127142Y4094836D01*
G01X5131359D01*
G01X5135220Y4100068D01*
G01X5136693Y4102100D01*
G01X5135220Y4104132D01*
G01X5131359Y4109364D01*
G01X5137861Y4108704D01*
G01X5140350Y4108399D01*
G01X5141366Y4110685D01*
G01X5144008Y4116680D01*
G01X5146599Y4110685D01*
G01X5147615Y4108399D01*
G01X5150104Y4108653D01*
G01X5156606Y4109364D01*
G01X5152746Y4104132D01*
G01X5151272Y4102100D01*
G01X5152746Y4100068D01*
G01X5156606Y4094836D01*
G01X5150104Y4095547D01*
G01X5147615Y4095801D01*
G01X5146650Y4093515D01*
G01X5144008Y4087520D01*
G01X5141366Y4093515D01*
G01X5140350Y4095801D01*
G01X5137861Y4095547D01*
G01X5131359Y4094836D01*
G01X5127142D01*
G01X5124044Y4090568D01*
G01X5138217Y4092143D01*
G01X5144008Y4079088D01*
G01X5149748Y4092143D01*
G01X5163922Y4090568D01*
G01X5155489Y4102100D01*
G01X5163922Y4113632D01*
G01X5149748Y4112057D01*
G37*
G36*
G01X5384800Y2373020D02*
G01X5379060Y2359965D01*
G01X5364836Y2361489D01*
G01X5373268Y2350008D01*
G01X5367934Y2342693D01*
G01X5372202D01*
G01X5376012Y2347976D01*
G01X5377485Y2350008D01*
G01X5376012Y2351989D01*
G01X5372202Y2357272D01*
G01X5378653Y2356561D01*
G01X5381142Y2356307D01*
G01X5382158Y2358593D01*
G01X5384800Y2364588D01*
G01X5387442Y2358593D01*
G01X5388458Y2356307D01*
G01X5390896Y2356561D01*
G01X5397398Y2357272D01*
G01X5393538Y2351989D01*
G01X5392064Y2350008D01*
G01X5393538Y2347976D01*
G01X5397398Y2342693D01*
G01X5390896Y2343404D01*
G01X5388458Y2343709D01*
G01X5387442Y2341423D01*
G01X5384800Y2335428D01*
G01X5382158Y2341423D01*
G01X5381142Y2343709D01*
G01X5378653Y2343404D01*
G01X5372202Y2342693D01*
G01X5367934D01*
G01X5364836Y2338476D01*
G01X5379060Y2340051D01*
G01X5384800Y2326996D01*
G01X5390540Y2340051D01*
G01X5404714Y2338476D01*
G01X5396281Y2350008D01*
G01X5404714Y2361489D01*
G01X5390540Y2359965D01*
G37*
G36*
G01X5638800Y2372004D02*
G01X5633009Y2358949D01*
G01X5618836Y2360524D01*
G01X5627268Y2348992D01*
G01X5621934Y2341728D01*
G01X5626151D01*
G01X5630012Y2346960D01*
G01X5631485Y2348992D01*
G01X5630012Y2351024D01*
G01X5626151Y2356307D01*
G01X5632653Y2355596D01*
G01X5635142Y2355291D01*
G01X5636158Y2357577D01*
G01X5638800Y2363572D01*
G01X5641391Y2357577D01*
G01X5642407Y2355291D01*
G01X5644896Y2355596D01*
G01X5651398Y2356256D01*
G01X5647538Y2351024D01*
G01X5646064Y2348992D01*
G01X5647538Y2346960D01*
G01X5651398Y2341728D01*
G01X5644896Y2342439D01*
G01X5642407Y2342693D01*
G01X5641442Y2340407D01*
G01X5638800Y2334412D01*
G01X5636158Y2340407D01*
G01X5635142Y2342693D01*
G01X5632653Y2342439D01*
G01X5626151Y2341728D01*
G01X5621934D01*
G01X5618836Y2337511D01*
G01X5633009Y2339035D01*
G01X5638800Y2325980D01*
G01X5644540Y2339035D01*
G01X5658714Y2337511D01*
G01X5650281Y2348992D01*
G01X5658714Y2360524D01*
G01X5644540Y2358949D01*
G37*
G36*
G01X5130800Y2373020D02*
G01X5125060Y2359965D01*
G01X5110836Y2361489D01*
G01X5119268Y2350008D01*
G01X5113934Y2342693D01*
G01X5118202D01*
G01X5122012Y2347976D01*
G01X5123485Y2350008D01*
G01X5122012Y2351989D01*
G01X5118202Y2357272D01*
G01X5124653Y2356561D01*
G01X5127142Y2356307D01*
G01X5128158Y2358593D01*
G01X5130800Y2364588D01*
G01X5133442Y2358593D01*
G01X5134458Y2356307D01*
G01X5136896Y2356561D01*
G01X5143398Y2357272D01*
G01X5139538Y2351989D01*
G01X5138064Y2350008D01*
G01X5139538Y2347976D01*
G01X5143398Y2342693D01*
G01X5136896Y2343404D01*
G01X5134458Y2343709D01*
G01X5133442Y2341423D01*
G01X5130800Y2335428D01*
G01X5128158Y2341423D01*
G01X5127142Y2343709D01*
G01X5124653Y2343404D01*
G01X5118202Y2342693D01*
G01X5113934D01*
G01X5110836Y2338476D01*
G01X5125060Y2340051D01*
G01X5130800Y2326996D01*
G01X5136540Y2340051D01*
G01X5150714Y2338476D01*
G01X5142281Y2350008D01*
G01X5150714Y2361489D01*
G01X5136540Y2359965D01*
G37*
G36*
G01X3584550Y3448964D02*
G01X3587699Y3442157D01*
G01X3591357D01*
G01X3603142Y3436772D01*
G01X3604514Y3436112D01*
G01X3605886Y3436772D01*
G01X3617671Y3442157D01*
G01X3612286Y3430372D01*
G01X3611626Y3429000D01*
G01X3612286Y3427628D01*
G01X3617671Y3415843D01*
G01X3605886Y3421228D01*
G01X3604514Y3421888D01*
G01X3603142Y3421228D01*
G01X3591357Y3415843D01*
G01X3596742Y3427628D01*
G01X3597402Y3429000D01*
G01X3596742Y3430372D01*
G01X3591357Y3442157D01*
G01X3587699D01*
G01X3593744Y3429000D01*
G01X3584550Y3409036D01*
G01X3604514Y3418230D01*
G01X3624428Y3409036D01*
G01X3615284Y3429000D01*
G01X3624428Y3448964D01*
G01X3604514Y3439770D01*
G37*
G36*
G01X4884572Y3448964D02*
G01X4887671Y3442157D01*
G01X4891329D01*
G01X4903114Y3436772D01*
G01X4904486Y3436112D01*
G01X4905908Y3436772D01*
G01X4917694Y3442157D01*
G01X4912258Y3430372D01*
G01X4911598Y3429000D01*
G01X4912258Y3427628D01*
G01X4917694Y3415843D01*
G01X4905908Y3421228D01*
G01X4904486Y3421888D01*
G01X4903114Y3421228D01*
G01X4891329Y3415843D01*
G01X4896764Y3427628D01*
G01X4897374Y3429000D01*
G01X4896764Y3430372D01*
G01X4891329Y3442157D01*
G01X4887671D01*
G01X4893716Y3429000D01*
G01X4884572Y3409036D01*
G01X4904486Y3418230D01*
G01X4924450Y3409036D01*
G01X4915256Y3429000D01*
G01X4924450Y3448964D01*
G01X4904486Y3439770D01*
G37*
G36*
G01X4605172Y2191664D02*
G01X4608271Y2184857D01*
G01X4611929D01*
G01X4623714Y2179472D01*
G01X4625086Y2178812D01*
G01X4626458Y2179472D01*
G01X4638243Y2184857D01*
G01X4632858Y2173072D01*
G01X4632198Y2171700D01*
G01X4632858Y2170328D01*
G01X4638243Y2158543D01*
G01X4626458Y2163928D01*
G01X4625086Y2164588D01*
G01X4623714Y2163928D01*
G01X4611929Y2158543D01*
G01X4617314Y2170328D01*
G01X4617974Y2171700D01*
G01X4617314Y2173072D01*
G01X4611929Y2184857D01*
G01X4608271D01*
G01X4614316Y2171700D01*
G01X4605172Y2151786D01*
G01X4625086Y2160930D01*
G01X4645050Y2151786D01*
G01X4635856Y2171700D01*
G01X4645050Y2191664D01*
G01X4625086Y2182470D01*
G37*
G36*
G01X3305150Y2191664D02*
G01X3308299Y2184857D01*
G01X3311906D01*
G01X3323692Y2179472D01*
G01X3325114Y2178812D01*
G01X3326486Y2179472D01*
G01X3338271Y2184857D01*
G01X3332836Y2173072D01*
G01X3332226Y2171700D01*
G01X3332836Y2170328D01*
G01X3338271Y2158543D01*
G01X3326486Y2163928D01*
G01X3325114Y2164588D01*
G01X3323692Y2163928D01*
G01X3311906Y2158543D01*
G01X3317342Y2170328D01*
G01X3318002Y2171700D01*
G01X3317342Y2173072D01*
G01X3311906Y2184857D01*
G01X3308299D01*
G01X3314344Y2171700D01*
G01X3305150Y2151786D01*
G01X3325114Y2160930D01*
G01X3345028Y2151786D01*
G01X3335884Y2171700D01*
G01X3345028Y2191664D01*
G01X3325114Y2182470D01*
G37*
G36*
G01X4630572Y4147464D02*
G01X4633671Y4140657D01*
G01X4637329D01*
G01X4649114Y4135272D01*
G01X4650486Y4134612D01*
G01X4651858Y4135272D01*
G01X4663643Y4140657D01*
G01X4658258Y4128872D01*
G01X4657598Y4127500D01*
G01X4658258Y4126128D01*
G01X4663643Y4114343D01*
G01X4651858Y4119728D01*
G01X4650486Y4120388D01*
G01X4649114Y4119728D01*
G01X4637329Y4114343D01*
G01X4642714Y4126128D01*
G01X4643374Y4127500D01*
G01X4642714Y4128872D01*
G01X4637329Y4140657D01*
G01X4633671D01*
G01X4639716Y4127500D01*
G01X4630572Y4107536D01*
G01X4650486Y4116730D01*
G01X4670450Y4107536D01*
G01X4661256Y4127500D01*
G01X4670450Y4147464D01*
G01X4650486Y4138270D01*
G37*
G36*
G01X3330550Y4147464D02*
G01X3333699Y4140657D01*
G01X3337306D01*
G01X3349092Y4135272D01*
G01X3350514Y4134612D01*
G01X3351886Y4135272D01*
G01X3363671Y4140657D01*
G01X3358236Y4128872D01*
G01X3357626Y4127500D01*
G01X3358236Y4126128D01*
G01X3363671Y4114343D01*
G01X3351886Y4119728D01*
G01X3350514Y4120388D01*
G01X3349092Y4119728D01*
G01X3337306Y4114343D01*
G01X3342742Y4126128D01*
G01X3343402Y4127500D01*
G01X3342742Y4128872D01*
G01X3337306Y4140657D01*
G01X3333699D01*
G01X3339744Y4127500D01*
G01X3330550Y4107536D01*
G01X3350514Y4116730D01*
G01X3370428Y4107536D01*
G01X3361284Y4127500D01*
G01X3370428Y4147464D01*
G01X3350514Y4138270D01*
G37*
G36*
G01X4617872Y2636164D02*
G01X4620971Y2629357D01*
G01X4624629D01*
G01X4636414Y2623972D01*
G01X4637786Y2623312D01*
G01X4639158Y2623972D01*
G01X4650943Y2629357D01*
G01X4645558Y2617572D01*
G01X4644898Y2616200D01*
G01X4645558Y2614828D01*
G01X4650943Y2603043D01*
G01X4639158Y2608428D01*
G01X4637786Y2609088D01*
G01X4636414Y2608428D01*
G01X4624629Y2603043D01*
G01X4630014Y2614828D01*
G01X4630674Y2616200D01*
G01X4630014Y2617572D01*
G01X4624629Y2629357D01*
G01X4620971D01*
G01X4627016Y2616200D01*
G01X4617872Y2596286D01*
G01X4637786Y2605430D01*
G01X4657750Y2596286D01*
G01X4648556Y2616200D01*
G01X4657750Y2636164D01*
G01X4637786Y2626970D01*
G37*
G36*
G01X3317850Y2636164D02*
G01X3320999Y2629357D01*
G01X3324606D01*
G01X3336392Y2623972D01*
G01X3337814Y2623312D01*
G01X3339186Y2623972D01*
G01X3350971Y2629357D01*
G01X3345536Y2617572D01*
G01X3344926Y2616200D01*
G01X3345536Y2614828D01*
G01X3350971Y2603043D01*
G01X3339186Y2608428D01*
G01X3337814Y2609088D01*
G01X3336392Y2608428D01*
G01X3324606Y2603043D01*
G01X3330042Y2614828D01*
G01X3330702Y2616200D01*
G01X3330042Y2617572D01*
G01X3324606Y2629357D01*
G01X3320999D01*
G01X3327044Y2616200D01*
G01X3317850Y2596286D01*
G01X3337814Y2605430D01*
G01X3357728Y2596286D01*
G01X3348584Y2616200D01*
G01X3357728Y2636164D01*
G01X3337814Y2626970D01*
G37*
G36*
G01X2013458Y4172864D02*
G01X2013458Y4161942D01*
G01X2002587D01*
G01Y4147160D01*
G01X2005889D01*
G01Y4158640D01*
G01X2016760D01*
G01Y4169512D01*
G01X2028241D01*
G01Y4158640D01*
G01X2039112D01*
G01Y4147160D01*
G01X2028241D01*
G01Y4136288D01*
G01X2016760D01*
G01Y4147160D01*
G01X2005889D01*
G01X2002587D01*
G01Y4143858D01*
G01X2013458D01*
G01Y4132936D01*
G01X2031594D01*
G01Y4143858D01*
G01X2042465D01*
G01Y4161942D01*
G01X2031543D01*
G01Y4172864D01*
G37*
G36*
G01X1143457Y4172864D02*
G01X1143457Y4161942D01*
G01X1132535D01*
G01Y4147160D01*
G01X1135888D01*
G01Y4158640D01*
G01X1146759D01*
G01Y4169512D01*
G01X1158240D01*
G01Y4158640D01*
G01X1169111D01*
G01Y4147160D01*
G01X1158240D01*
G01Y4136288D01*
G01X1146759D01*
G01Y4147160D01*
G01X1135888D01*
G01X1132535D01*
G01Y4143858D01*
G01X1143457D01*
G01Y4132936D01*
G01X1161542D01*
G01Y4143858D01*
G01X1172413D01*
G01Y4161942D01*
G01X1161542D01*
G01Y4172864D01*
G37*
G36*
G01X3518357Y4579264D02*
G01X3518357Y4568342D01*
G01X3507435D01*
G01Y4553560D01*
G01X3510788D01*
G01Y4565040D01*
G01X3521659D01*
G01Y4575912D01*
G01X3533140D01*
G01Y4565040D01*
G01X3544011D01*
G01Y4553560D01*
G01X3533140D01*
G01Y4542688D01*
G01X3521659D01*
G01Y4553560D01*
G01X3510788D01*
G01X3507435D01*
G01Y4550258D01*
G01X3518357D01*
G01Y4539336D01*
G01X3536442D01*
G01Y4550258D01*
G01X3547313D01*
G01Y4568342D01*
G01X3536442D01*
G01Y4579264D01*
G37*
G36*
G01X4388358Y4579264D02*
G01X4388358Y4568342D01*
G01X4377487D01*
G01Y4553560D01*
G01X4380789D01*
G01Y4565040D01*
G01X4391660D01*
G01Y4575912D01*
G01X4403141D01*
G01Y4565040D01*
G01X4414012D01*
G01Y4553560D01*
G01X4403141D01*
G01Y4542688D01*
G01X4391660D01*
G01Y4553560D01*
G01X4380789D01*
G01X4377487D01*
G01Y4550258D01*
G01X4388358D01*
G01Y4539336D01*
G01X4406494D01*
G01Y4550258D01*
G01X4417365D01*
G01Y4568342D01*
G01X4406443D01*
G01Y4579264D01*
G37*
G36*
G01X3492957Y1747164D02*
G01X3492957Y1736242D01*
G01X3482035D01*
G01Y1721460D01*
G01X3485388D01*
G01Y1732940D01*
G01X3496259D01*
G01Y1743812D01*
G01X3507740D01*
G01Y1732940D01*
G01X3518611D01*
G01Y1721460D01*
G01X3507740D01*
G01Y1710588D01*
G01X3496259D01*
G01Y1721460D01*
G01X3485388D01*
G01X3482035D01*
G01Y1718158D01*
G01X3492957D01*
G01Y1707286D01*
G01X3511042D01*
G01Y1718158D01*
G01X3521913D01*
G01Y1736242D01*
G01X3511042D01*
G01Y1747164D01*
G37*
G36*
G01X4362958Y1747164D02*
G01X4362958Y1736242D01*
G01X4352087D01*
G01Y1721460D01*
G01X4355389D01*
G01Y1732940D01*
G01X4366260D01*
G01Y1743812D01*
G01X4377741D01*
G01Y1732940D01*
G01X4388612D01*
G01Y1721460D01*
G01X4377741D01*
G01Y1710588D01*
G01X4366260D01*
G01Y1721460D01*
G01X4355389D01*
G01X4352087D01*
G01Y1718158D01*
G01X4362958D01*
G01Y1707286D01*
G01X4381094D01*
G01Y1718158D01*
G01X4391965D01*
G01Y1736242D01*
G01X4381043D01*
G01Y1747164D01*
G37*
G36*
G01X6099658Y2880665D02*
G01X6099658Y2869743D01*
G01X6088786D01*
G01Y2854960D01*
G01X6092088D01*
G01Y2866441D01*
G01X6102960D01*
G01Y2877312D01*
G01X6114440D01*
G01Y2866441D01*
G01X6125312D01*
G01Y2854960D01*
G01X6114440D01*
G01Y2844089D01*
G01X6102960D01*
G01Y2854960D01*
G01X6092088D01*
G01X6088786D01*
G01Y2851658D01*
G01X6099658D01*
G01Y2840787D01*
G01X6117742D01*
G01Y2851658D01*
G01X6128664D01*
G01Y2869743D01*
G01X6117742D01*
G01Y2880665D01*
G37*
G36*
G01X6099658Y2010613D02*
G01X6099658Y1999742D01*
G01X6088786D01*
G01Y1984959D01*
G01X6092088D01*
G01Y1996440D01*
G01X6102960D01*
G01Y2007311D01*
G01X6114440D01*
G01Y1996440D01*
G01X6125312D01*
G01Y1984959D01*
G01X6114440D01*
G01Y1974088D01*
G01X6102960D01*
G01Y1984959D01*
G01X6092088D01*
G01X6088786D01*
G01Y1981606D01*
G01X6099658D01*
G01Y1970735D01*
G01X6117742D01*
G01Y1981657D01*
G01X6128664D01*
G01Y1999742D01*
G01X6117742D01*
G01Y2010613D01*
G37*
G36*
G01X6086958Y4036365D02*
G01X6086958Y4025443D01*
G01X6076086D01*
G01Y4010660D01*
G01X6079388D01*
G01Y4022141D01*
G01X6090260D01*
G01Y4033012D01*
G01X6101740D01*
G01Y4022141D01*
G01X6112612D01*
G01Y4010660D01*
G01X6101740D01*
G01Y3999789D01*
G01X6090260D01*
G01Y4010660D01*
G01X6079388D01*
G01X6076086D01*
G01Y4007358D01*
G01X6086958D01*
G01Y3996487D01*
G01X6105042D01*
G01Y4007358D01*
G01X6115964D01*
G01Y4025443D01*
G01X6105042D01*
G01Y4036365D01*
G37*
G36*
G01X6086958Y3166313D02*
G01X6086958Y3155442D01*
G01X6076086D01*
G01Y3140659D01*
G01X6079388D01*
G01Y3152140D01*
G01X6090260D01*
G01Y3163011D01*
G01X6101740D01*
G01Y3152140D01*
G01X6112612D01*
G01Y3140659D01*
G01X6101740D01*
G01Y3129788D01*
G01X6090260D01*
G01Y3140659D01*
G01X6079388D01*
G01X6076086D01*
G01Y3137306D01*
G01X6086958D01*
G01Y3126435D01*
G01X6105042D01*
G01Y3137357D01*
G01X6115964D01*
G01Y3155442D01*
G01X6105042D01*
G01Y3166313D01*
G37*
G36*
G01X1186586Y3410864D02*
G01X1186586Y3407207D01*
G01X1190193D01*
G01X1198829D01*
G01X1206500Y3391865D01*
G01X1214171Y3407207D01*
G01X1222807D01*
G01Y3398571D01*
G01X1207465Y3390900D01*
G01X1222807Y3383229D01*
G01Y3374593D01*
G01X1214171D01*
G01X1206500Y3389935D01*
G01X1198829Y3374593D01*
G01X1190193D01*
G01Y3383229D01*
G01X1205535Y3390900D01*
G01X1190193Y3398571D01*
G01Y3407207D01*
G01X1186586D01*
G01Y3396336D01*
G01X1197458Y3390900D01*
G01X1186586Y3385464D01*
G01Y3370986D01*
G01X1201064D01*
G01X1206500Y3381858D01*
G01X1211936Y3370986D01*
G01X1226464D01*
G01Y3385464D01*
G01X1215542Y3390900D01*
G01X1226464Y3396336D01*
G01Y3410864D01*
G01X1211936D01*
G01X1206500Y3399942D01*
G01X1201064Y3410864D01*
G37*
G36*
G01X1948586Y3410864D02*
G01X1948586Y3407207D01*
G01X1952193D01*
G01X1960829D01*
G01X1968500Y3391865D01*
G01X1976171Y3407207D01*
G01X1984807D01*
G01Y3398571D01*
G01X1969465Y3390900D01*
G01X1984807Y3383229D01*
G01Y3374593D01*
G01X1976171D01*
G01X1968500Y3389935D01*
G01X1960829Y3374593D01*
G01X1952193D01*
G01Y3383229D01*
G01X1967535Y3390900D01*
G01X1952193Y3398571D01*
G01Y3407207D01*
G01X1948586D01*
G01Y3396336D01*
G01X1959458Y3390900D01*
G01X1948586Y3385464D01*
G01Y3370986D01*
G01X1963064D01*
G01X1968500Y3381858D01*
G01X1973936Y3370986D01*
G01X1988464D01*
G01Y3385464D01*
G01X1977542Y3390900D01*
G01X1988464Y3396336D01*
G01Y3410864D01*
G01X1973936D01*
G01X1968500Y3399942D01*
G01X1963064Y3410864D01*
G37*
G36*
G01X1186586Y3156864D02*
G01X1186586Y3153207D01*
G01X1190193D01*
G01X1198829D01*
G01X1206500Y3137865D01*
G01X1214171Y3153207D01*
G01X1222807D01*
G01Y3144571D01*
G01X1207465Y3136900D01*
G01X1222807Y3129229D01*
G01Y3120593D01*
G01X1214171D01*
G01X1206500Y3135935D01*
G01X1198829Y3120593D01*
G01X1190193D01*
G01Y3129229D01*
G01X1205535Y3136900D01*
G01X1190193Y3144571D01*
G01Y3153207D01*
G01X1186586D01*
G01Y3142336D01*
G01X1197458Y3136900D01*
G01X1186586Y3131464D01*
G01Y3116986D01*
G01X1201064D01*
G01X1206500Y3127858D01*
G01X1211936Y3116986D01*
G01X1226464D01*
G01Y3131464D01*
G01X1215542Y3136900D01*
G01X1226464Y3142336D01*
G01Y3156864D01*
G01X1211936D01*
G01X1206500Y3145942D01*
G01X1201064Y3156864D01*
G37*
G36*
G01X1948586Y3156864D02*
G01X1948586Y3153207D01*
G01X1952193D01*
G01X1960829D01*
G01X1968500Y3137865D01*
G01X1976171Y3153207D01*
G01X1984807D01*
G01Y3144571D01*
G01X1969465Y3136900D01*
G01X1984807Y3129229D01*
G01Y3120593D01*
G01X1976171D01*
G01X1968500Y3135935D01*
G01X1960829Y3120593D01*
G01X1952193D01*
G01Y3129229D01*
G01X1967535Y3136900D01*
G01X1952193Y3144571D01*
G01Y3153207D01*
G01X1948586D01*
G01Y3142336D01*
G01X1959458Y3136900D01*
G01X1948586Y3131464D01*
G01Y3116986D01*
G01X1963064D01*
G01X1968500Y3127858D01*
G01X1973936Y3116986D01*
G01X1988464D01*
G01Y3131464D01*
G01X1977542Y3136900D01*
G01X1988464Y3142336D01*
G01Y3156864D01*
G01X1973936D01*
G01X1968500Y3145942D01*
G01X1963064Y3156864D01*
G37*
G36*
G01X1186586Y2902864D02*
G01X1186586Y2899207D01*
G01X1190193D01*
G01X1198829D01*
G01X1206500Y2883865D01*
G01X1214171Y2899207D01*
G01X1222807D01*
G01Y2890571D01*
G01X1207465Y2882900D01*
G01X1222807Y2875229D01*
G01Y2866593D01*
G01X1214171D01*
G01X1206500Y2881935D01*
G01X1198829Y2866593D01*
G01X1190193D01*
G01Y2875229D01*
G01X1205535Y2882900D01*
G01X1190193Y2890571D01*
G01Y2899207D01*
G01X1186586D01*
G01Y2888336D01*
G01X1197458Y2882900D01*
G01X1186586Y2877464D01*
G01Y2862986D01*
G01X1201064D01*
G01X1206500Y2873858D01*
G01X1211936Y2862986D01*
G01X1226464D01*
G01Y2877464D01*
G01X1215542Y2882900D01*
G01X1226464Y2888336D01*
G01Y2902864D01*
G01X1211936D01*
G01X1206500Y2891942D01*
G01X1201064Y2902864D01*
G37*
G36*
G01X1948586Y2902864D02*
G01X1948586Y2899207D01*
G01X1952193D01*
G01X1960829D01*
G01X1968500Y2883865D01*
G01X1976171Y2899207D01*
G01X1984807D01*
G01Y2890571D01*
G01X1969465Y2882900D01*
G01X1984807Y2875229D01*
G01Y2866593D01*
G01X1976171D01*
G01X1968500Y2881935D01*
G01X1960829Y2866593D01*
G01X1952193D01*
G01Y2875229D01*
G01X1967535Y2882900D01*
G01X1952193Y2890571D01*
G01Y2899207D01*
G01X1948586D01*
G01Y2888336D01*
G01X1959458Y2882900D01*
G01X1948586Y2877464D01*
G01Y2862986D01*
G01X1963064D01*
G01X1968500Y2873858D01*
G01X1973936Y2862986D01*
G01X1988464D01*
G01Y2877464D01*
G01X1977542Y2882900D01*
G01X1988464Y2888336D01*
G01Y2902864D01*
G01X1973936D01*
G01X1968500Y2891942D01*
G01X1963064Y2902864D01*
G37*
G36*
G01X1186586Y2648864D02*
G01X1186586Y2645207D01*
G01X1190193D01*
G01X1198829D01*
G01X1206500Y2629865D01*
G01X1214171Y2645207D01*
G01X1222807D01*
G01Y2636571D01*
G01X1207465Y2628900D01*
G01X1222807Y2621229D01*
G01Y2612593D01*
G01X1214171D01*
G01X1206500Y2627935D01*
G01X1198829Y2612593D01*
G01X1190193D01*
G01Y2621229D01*
G01X1205535Y2628900D01*
G01X1190193Y2636571D01*
G01Y2645207D01*
G01X1186586D01*
G01Y2634336D01*
G01X1197458Y2628900D01*
G01X1186586Y2623464D01*
G01Y2608986D01*
G01X1201064D01*
G01X1206500Y2619858D01*
G01X1211936Y2608986D01*
G01X1226464D01*
G01Y2623464D01*
G01X1215542Y2628900D01*
G01X1226464Y2634336D01*
G01Y2648864D01*
G01X1211936D01*
G01X1206500Y2637942D01*
G01X1201064Y2648864D01*
G37*
G36*
G01X1948586Y2648864D02*
G01X1948586Y2645207D01*
G01X1952193D01*
G01X1960829D01*
G01X1968500Y2629865D01*
G01X1976171Y2645207D01*
G01X1984807D01*
G01Y2636571D01*
G01X1969465Y2628900D01*
G01X1984807Y2621229D01*
G01Y2612593D01*
G01X1976171D01*
G01X1968500Y2627935D01*
G01X1960829Y2612593D01*
G01X1952193D01*
G01Y2621229D01*
G01X1967535Y2628900D01*
G01X1952193Y2636571D01*
G01Y2645207D01*
G01X1948586D01*
G01Y2634336D01*
G01X1959458Y2628900D01*
G01X1948586Y2623464D01*
G01Y2608986D01*
G01X1963064D01*
G01X1968500Y2619858D01*
G01X1973936Y2608986D01*
G01X1988464D01*
G01Y2623464D01*
G01X1977542Y2628900D01*
G01X1988464Y2634336D01*
G01Y2648864D01*
G01X1973936D01*
G01X1968500Y2637942D01*
G01X1963064Y2648864D01*
G37*
G36*
G01X1317549Y3779164D02*
G01X1317549Y3775507D01*
G01X1321206D01*
G01X1329842D01*
G01X1337513Y3760165D01*
G01X1345184Y3775507D01*
G01X1353820D01*
G01Y3766871D01*
G01X1344930Y3762451D01*
G01X1338478Y3759200D01*
G01X1344930Y3755949D01*
G01X1353820Y3751529D01*
G01Y3742893D01*
G01X1345184D01*
G01X1337513Y3758235D01*
G01X1329842Y3742893D01*
G01X1321206D01*
G01Y3751529D01*
G01X1336548Y3759200D01*
G01X1321206Y3766871D01*
G01Y3775507D01*
G01X1317549D01*
G01Y3764636D01*
G01X1328420Y3759200D01*
G01X1317549Y3753764D01*
G01Y3739286D01*
G01X1332078D01*
G01X1337513Y3750158D01*
G01X1342949Y3739286D01*
G01X1357427D01*
G01Y3753764D01*
G01X1346556Y3759200D01*
G01X1357427Y3764636D01*
G01Y3779164D01*
G01X1342949D01*
G01X1337513Y3768242D01*
G01X1332078Y3779164D01*
G37*
G36*
G01X1817573Y3779164D02*
G01X1817573Y3775507D01*
G01X1821180D01*
G01X1829816D01*
G01X1837487Y3760165D01*
G01X1845158Y3775507D01*
G01X1853794D01*
G01Y3766871D01*
G01X1838452Y3759200D01*
G01X1853794Y3751529D01*
G01Y3742893D01*
G01X1845158D01*
G01X1837487Y3758235D01*
G01X1829816Y3742893D01*
G01X1821180D01*
G01Y3751529D01*
G01X1830070Y3755949D01*
G01X1836522Y3759200D01*
G01X1830070Y3762451D01*
G01X1821180Y3766871D01*
G01Y3775507D01*
G01X1817573D01*
G01Y3764636D01*
G01X1828444Y3759200D01*
G01X1817573Y3753764D01*
G01Y3739286D01*
G01X1832051D01*
G01X1837487Y3750158D01*
G01X1842922Y3739286D01*
G01X1857451D01*
G01Y3753764D01*
G01X1846580Y3759200D01*
G01X1857451Y3764636D01*
G01Y3779164D01*
G01X1842922D01*
G01X1837487Y3768242D01*
G01X1832051Y3779164D01*
G37*
G36*
G01X1317549Y4541164D02*
G01X1317549Y4537507D01*
G01X1321206D01*
G01X1329842D01*
G01X1337513Y4522165D01*
G01X1345184Y4537507D01*
G01X1353820D01*
G01Y4528871D01*
G01X1344930Y4524451D01*
G01X1338478Y4521200D01*
G01X1344930Y4517949D01*
G01X1353820Y4513529D01*
G01Y4504893D01*
G01X1345184D01*
G01X1337513Y4520235D01*
G01X1329842Y4504893D01*
G01X1321206D01*
G01Y4513529D01*
G01X1336548Y4521200D01*
G01X1321206Y4528871D01*
G01Y4537507D01*
G01X1317549D01*
G01Y4526636D01*
G01X1328420Y4521200D01*
G01X1317549Y4515764D01*
G01Y4501286D01*
G01X1332078D01*
G01X1337513Y4512158D01*
G01X1342949Y4501286D01*
G01X1357427D01*
G01Y4515764D01*
G01X1346556Y4521200D01*
G01X1357427Y4526636D01*
G01Y4541164D01*
G01X1342949D01*
G01X1337513Y4530242D01*
G01X1332078Y4541164D01*
G37*
G36*
G01X1817573Y4541164D02*
G01X1817573Y4537507D01*
G01X1821180D01*
G01X1829816D01*
G01X1837487Y4522165D01*
G01X1845158Y4537507D01*
G01X1853794D01*
G01Y4528871D01*
G01X1838452Y4521200D01*
G01X1853794Y4513529D01*
G01Y4504893D01*
G01X1845158D01*
G01X1837487Y4520235D01*
G01X1829816Y4504893D01*
G01X1821180D01*
G01Y4513529D01*
G01X1830070Y4517949D01*
G01X1836522Y4521200D01*
G01X1830070Y4524451D01*
G01X1821180Y4528871D01*
G01Y4537507D01*
G01X1817573D01*
G01Y4526636D01*
G01X1828444Y4521200D01*
G01X1817573Y4515764D01*
G01Y4501286D01*
G01X1832051D01*
G01X1837487Y4512158D01*
G01X1842922Y4501286D01*
G01X1857451D01*
G01Y4515764D01*
G01X1846580Y4521200D01*
G01X1857451Y4526636D01*
G01Y4541164D01*
G01X1842922D01*
G01X1837487Y4530242D01*
G01X1832051Y4541164D01*
G37*
G36*
G01X6973773Y4083964D02*
G01X6973773Y4080307D01*
G01X6977380D01*
G01X6986016D01*
G01X6993687Y4064965D01*
G01X7001358Y4080307D01*
G01X7009994D01*
G01Y4071671D01*
G01X6994652Y4064000D01*
G01X7009994Y4056329D01*
G01Y4047693D01*
G01X7001358D01*
G01X6993687Y4063035D01*
G01X6986016Y4047693D01*
G01X6977380D01*
G01Y4056329D01*
G01X6986270Y4060749D01*
G01X6992722Y4064000D01*
G01X6986270Y4067251D01*
G01X6977380Y4071671D01*
G01Y4080307D01*
G01X6973773D01*
G01Y4069436D01*
G01X6984644Y4064000D01*
G01X6973773Y4058564D01*
G01Y4044086D01*
G01X6988251D01*
G01X6993687Y4054958D01*
G01X6999122Y4044086D01*
G01X7013651D01*
G01Y4058564D01*
G01X7002780Y4064000D01*
G01X7013651Y4069436D01*
G01Y4083964D01*
G01X6999122D01*
G01X6993687Y4073042D01*
G01X6988251Y4083964D01*
G37*
G36*
G01X6473749Y4083964D02*
G01X6473749Y4080307D01*
G01X6477406D01*
G01X6486042D01*
G01X6493713Y4064965D01*
G01X6501384Y4080307D01*
G01X6510020D01*
G01Y4071671D01*
G01X6501130Y4067251D01*
G01X6494678Y4064000D01*
G01X6501130Y4060749D01*
G01X6510020Y4056329D01*
G01Y4047693D01*
G01X6501384D01*
G01X6493713Y4063035D01*
G01X6486042Y4047693D01*
G01X6477406D01*
G01Y4056329D01*
G01X6492748Y4064000D01*
G01X6477406Y4071671D01*
G01Y4080307D01*
G01X6473749D01*
G01Y4069436D01*
G01X6484620Y4064000D01*
G01X6473749Y4058564D01*
G01Y4044086D01*
G01X6488278D01*
G01X6493713Y4054958D01*
G01X6499149Y4044086D01*
G01X6513627D01*
G01Y4058564D01*
G01X6502756Y4064000D01*
G01X6513627Y4069436D01*
G01Y4083964D01*
G01X6499149D01*
G01X6493713Y4073042D01*
G01X6488278Y4083964D01*
G37*
G36*
G01X4649673Y5188864D02*
G01X4649673Y5185207D01*
G01X4653280D01*
G01X4661916D01*
G01X4669587Y5169865D01*
G01X4677258Y5185207D01*
G01X4685894D01*
G01Y5176571D01*
G01X4670552Y5168900D01*
G01X4685894Y5161229D01*
G01Y5152593D01*
G01X4677258D01*
G01X4669587Y5167935D01*
G01X4661916Y5152593D01*
G01X4653280D01*
G01Y5161229D01*
G01X4662170Y5165649D01*
G01X4668622Y5168900D01*
G01X4662170Y5172151D01*
G01X4653280Y5176571D01*
G01Y5185207D01*
G01X4649673D01*
G01Y5174336D01*
G01X4660544Y5168900D01*
G01X4649673Y5163464D01*
G01Y5148986D01*
G01X4664151D01*
G01X4669587Y5159858D01*
G01X4675022Y5148986D01*
G01X4689551D01*
G01Y5163464D01*
G01X4678680Y5168900D01*
G01X4689551Y5174336D01*
G01Y5188864D01*
G01X4675022D01*
G01X4669587Y5177942D01*
G01X4664151Y5188864D01*
G37*
G36*
G01X4149649Y5188864D02*
G01X4149649Y5185207D01*
G01X4153306D01*
G01X4161942D01*
G01X4169613Y5169865D01*
G01X4177284Y5185207D01*
G01X4185920D01*
G01Y5176571D01*
G01X4177030Y5172151D01*
G01X4170578Y5168900D01*
G01X4177030Y5165649D01*
G01X4185920Y5161229D01*
G01Y5152593D01*
G01X4177284D01*
G01X4169613Y5167935D01*
G01X4161942Y5152593D01*
G01X4153306D01*
G01Y5161229D01*
G01X4168648Y5168900D01*
G01X4153306Y5176571D01*
G01Y5185207D01*
G01X4149649D01*
G01Y5174336D01*
G01X4160520Y5168900D01*
G01X4149649Y5163464D01*
G01Y5148986D01*
G01X4164178D01*
G01X4169613Y5159858D01*
G01X4175049Y5148986D01*
G01X4189527D01*
G01Y5163464D01*
G01X4178656Y5168900D01*
G01X4189527Y5174336D01*
G01Y5188864D01*
G01X4175049D01*
G01X4169613Y5177942D01*
G01X4164178Y5188864D01*
G37*
G36*
G01X6067349Y5125364D02*
G01X6067349Y5121707D01*
G01X6071006D01*
G01X6079642D01*
G01X6087313Y5106365D01*
G01X6094984Y5121707D01*
G01X6103620D01*
G01Y5113071D01*
G01X6094730Y5108651D01*
G01X6088278Y5105400D01*
G01X6094730Y5102149D01*
G01X6103620Y5097729D01*
G01Y5089093D01*
G01X6094984D01*
G01X6087313Y5104435D01*
G01X6079642Y5089093D01*
G01X6071006D01*
G01Y5097729D01*
G01X6086348Y5105400D01*
G01X6071006Y5113071D01*
G01Y5121707D01*
G01X6067349D01*
G01Y5110836D01*
G01X6078220Y5105400D01*
G01X6067349Y5099964D01*
G01Y5085486D01*
G01X6081878D01*
G01X6087313Y5096358D01*
G01X6092749Y5085486D01*
G01X6107227D01*
G01Y5099964D01*
G01X6096356Y5105400D01*
G01X6107227Y5110836D01*
G01Y5125364D01*
G01X6092749D01*
G01X6087313Y5114442D01*
G01X6081878Y5125364D01*
G37*
G36*
G01X6567373Y5125364D02*
G01X6567373Y5121707D01*
G01X6570980D01*
G01X6579616D01*
G01X6587287Y5106365D01*
G01X6594958Y5121707D01*
G01X6603594D01*
G01Y5113071D01*
G01X6588252Y5105400D01*
G01X6603594Y5097729D01*
G01Y5089093D01*
G01X6594958D01*
G01X6587287Y5104435D01*
G01X6579616Y5089093D01*
G01X6570980D01*
G01Y5097729D01*
G01X6579870Y5102149D01*
G01X6586322Y5105400D01*
G01X6579870Y5108651D01*
G01X6570980Y5113071D01*
G01Y5121707D01*
G01X6567373D01*
G01Y5110836D01*
G01X6578244Y5105400D01*
G01X6567373Y5099964D01*
G01Y5085486D01*
G01X6581851D01*
G01X6587287Y5096358D01*
G01X6592722Y5085486D01*
G01X6607251D01*
G01Y5099964D01*
G01X6596380Y5105400D01*
G01X6607251Y5110836D01*
G01Y5125364D01*
G01X6592722D01*
G01X6587287Y5114442D01*
G01X6581851Y5125364D01*
G37*
G36*
G01X2405786Y2995727D02*
G01X2405786Y2992120D01*
G01X2409393D01*
G01X2418029D01*
G01X2422449Y2983230D01*
G01X2425700Y2976778D01*
G01X2428951Y2983230D01*
G01X2433371Y2992120D01*
G01X2442007D01*
G01Y2983484D01*
G01X2426665Y2975813D01*
G01X2442007Y2968142D01*
G01Y2959506D01*
G01X2433371D01*
G01X2425700Y2974848D01*
G01X2418029Y2959506D01*
G01X2409393D01*
G01Y2968142D01*
G01X2424735Y2975813D01*
G01X2409393Y2983484D01*
G01Y2992120D01*
G01X2405786D01*
G01Y2981249D01*
G01X2416658Y2975813D01*
G01X2405786Y2970378D01*
G01Y2955849D01*
G01X2420264D01*
G01X2425700Y2966720D01*
G01X2431136Y2955849D01*
G01X2445664D01*
G01Y2970378D01*
G01X2434742Y2975813D01*
G01X2445664Y2981249D01*
G01Y2995727D01*
G01X2431136D01*
G01X2425700Y2984856D01*
G01X2420264Y2995727D01*
G37*
G36*
G01X2405786Y3495751D02*
G01X2405786Y3492094D01*
G01X2409393D01*
G01X2418029D01*
G01X2425700Y3476752D01*
G01X2433371Y3492094D01*
G01X2442007D01*
G01Y3483458D01*
G01X2426665Y3475787D01*
G01X2442007Y3468116D01*
G01Y3459480D01*
G01X2433371D01*
G01X2428951Y3468370D01*
G01X2425700Y3474822D01*
G01X2422449Y3468370D01*
G01X2418029Y3459480D01*
G01X2409393D01*
G01Y3468116D01*
G01X2424735Y3475787D01*
G01X2409393Y3483458D01*
G01Y3492094D01*
G01X2405786D01*
G01Y3481222D01*
G01X2416658Y3475787D01*
G01X2405786Y3470351D01*
G01Y3455873D01*
G01X2420264D01*
G01X2425700Y3466744D01*
G01X2431136Y3455873D01*
G01X2445664D01*
G01Y3470351D01*
G01X2434742Y3475787D01*
G01X2445664Y3481222D01*
G01Y3495751D01*
G01X2431136D01*
G01X2425700Y3484880D01*
G01X2420264Y3495751D01*
G37*
G04 Image End*
G54D10*

M02*
