;TYPE=PLATED
;Layer: PTH_Through
;EasyEDA Pro Client v2.1.64.d1969c9c.217bcf, 2024-09-27 00:26:44
;Gerber Generator version 0.3
M48
METRIC,LZ,000.00000
;Hole size 1 = 0.80000 METRIC
T01C0.80000
;Hole size 2 = 1.00000 METRIC
T02C1.00000
;Hole size 3 = 1.10002 METRIC
T03C1.10002
;Hole size 4 = 1.19990 METRIC
T04C1.19990
;Hole size 5 = 1.40000 METRIC
T05C1.40000
;Hole size 6 = 1.60000 METRIC
T06C1.60000
;Hole size 7 = 4.00000 METRIC
T07C4.00000
%
G05
G90
T01
X04809236Y06362700
X04309364Y06362700
T02
X07175500Y03165505
X07175500Y02295495
X07188200Y05121305
X07188200Y04251295
X05359400Y00698500
X05613400Y00698500
T03
X05270800Y01092200
X03720800Y01092200
X05283500Y01841500
X03733500Y01841500
X05258100Y03200400
X03708100Y03200400
X03720800Y02578100
X05270800Y02578100
X05267630Y04020299
X03717630Y04020299
X03708100Y04876800
X05258100Y04876800
X05296200Y05664200
X03746200Y05664200
T04
X03124200Y06096701
X03124200Y04596699
X07036501Y06045200
X05536499Y06045200
T05
X00800100Y04142900
X00800100Y03642901
X00800100Y03142899
T06
X02324100Y02892900
X02324100Y03392899
X02324100Y03892901
T07
X03206712Y06782689
X03206712Y01268717
M30