G04 Layer: TopSilkscreenLayer*
G04 EasyEDA Pro v2.1.64.d1969c9c.217bcf, 2024-09-27 00:26:44*
G04 Gerber Generator version 0.3*
G04 Scale: 100 percent, Rotated: No, Reflected: No*
G04 Dimensions in millimeters*
G04 Leading zeros omitted, absolute positions, 3 integers and 5 decimals*
%FSLAX35Y35*%
%MOMM*%
%ADD10C,0.1524*%
%ADD11C,0.254*%
G75*


G04 Text Start*
G54D10*
G01X7519756Y3247880D02*
G01X7454732Y3247880D01*
G01X7519756Y3247880D02*
G01X7519756Y3226290D01*
G01X7516708Y3216892D01*
G01X7510612Y3210796D01*
G01X7504262Y3207748D01*
G01X7495118Y3204446D01*
G01X7479624D01*
G01X7470226Y3207748D01*
G01X7464130Y3210796D01*
G01X7457780Y3216892D01*
G01X7454732Y3226290D01*
G01Y3247880D01*
G01X7507310Y3174220D02*
G01X7510612Y3168124D01*
G01X7519756Y3158980D01*
G01X7454732D01*
G01X7504262Y3125706D02*
G01X7507310Y3125706D01*
G01X7513660Y3122658D01*
G01X7516708Y3119610D01*
G01X7519756Y3113514D01*
G01Y3101068D01*
G01X7516708Y3094718D01*
G01X7513660Y3091670D01*
G01X7507310Y3088622D01*
G01X7501214D01*
G01X7495118Y3091670D01*
G01X7485720Y3098020D01*
G01X7454732Y3128754D01*
G01Y3085574D01*
G01X5343185Y747565D02*
G01X5343185Y812589D01*
G01X5343185Y747565D02*
G01X5315245Y747565D01*
G01X5306101Y750613D01*
G01X5303053Y753661D01*
G01X5299751Y760011D01*
G01Y766107D01*
G01X5303053Y772203D01*
G01X5306101Y775251D01*
G01X5315245Y778553D01*
G01X5343185D01*
G01X5321595Y778553D02*
G01X5299751Y812589D01*
G01X5266477Y763059D02*
G01X5266477Y760011D01*
G01X5263429Y753661D01*
G01X5260381Y750613D01*
G01X5254285Y747565D01*
G01X5241839D01*
G01X5235489Y750613D01*
G01X5232441Y753661D01*
G01X5229393Y760011D01*
G01Y766107D01*
G01X5232441Y772203D01*
G01X5238791Y781601D01*
G01X5269525Y812589D01*
G01X5226345D01*
G01X5355885Y1496865D02*
G01X5355885Y1561889D01*
G01X5355885Y1496865D02*
G01X5327945Y1496865D01*
G01X5318801Y1499913D01*
G01X5315753Y1502961D01*
G01X5312451Y1509311D01*
G01Y1515407D01*
G01X5315753Y1521503D01*
G01X5318801Y1524551D01*
G01X5327945Y1527853D01*
G01X5355885D01*
G01X5334295Y1527853D02*
G01X5312451Y1561889D01*
G01X5276129Y1496865D02*
G01X5242093Y1496865D01*
G01X5260635Y1521503D01*
G01X5251491D01*
G01X5245141Y1524551D01*
G01X5242093Y1527853D01*
G01X5239045Y1536997D01*
G01Y1543347D01*
G01X5242093Y1552491D01*
G01X5248189Y1558841D01*
G01X5257587Y1561889D01*
G01X5266985D01*
G01X5276129Y1558841D01*
G01X5279177Y1555539D01*
G01X5282225Y1549443D01*
G01X5330485Y2855765D02*
G01X5330485Y2920789D01*
G01X5330485Y2855765D02*
G01X5302545Y2855765D01*
G01X5293401Y2858813D01*
G01X5290353Y2861861D01*
G01X5287051Y2868211D01*
G01Y2874307D01*
G01X5290353Y2880403D01*
G01X5293401Y2883451D01*
G01X5302545Y2886753D01*
G01X5330485D01*
G01X5308895Y2886753D02*
G01X5287051Y2920789D01*
G01X5226091Y2855765D02*
G01X5256825Y2898945D01*
G01X5210597D01*
G01X5226091Y2855765D02*
G01X5226091Y2920789D01*
G01X3648415Y2922735D02*
G01X3648415Y2857711D01*
G01X3648415Y2922735D02*
G01X3676355Y2922735D01*
G01X3685499Y2919687D01*
G01X3688547Y2916639D01*
G01X3691849Y2910289D01*
G01Y2904193D01*
G01X3688547Y2898097D01*
G01X3685499Y2895049D01*
G01X3676355Y2891747D01*
G01X3648415D01*
G01X3670005Y2891747D02*
G01X3691849Y2857711D01*
G01X3759159Y2922735D02*
G01X3728171Y2922735D01*
G01X3725123Y2895049D01*
G01X3728171Y2898097D01*
G01X3737315Y2901145D01*
G01X3746713D01*
G01X3756111Y2898097D01*
G01X3762207Y2891747D01*
G01X3765255Y2882603D01*
G01Y2876253D01*
G01X3762207Y2867109D01*
G01X3756111Y2860759D01*
G01X3746713Y2857711D01*
G01X3737315D01*
G01X3728171Y2860759D01*
G01X3725123Y2864061D01*
G01X3722075Y2870157D01*
G01X5339080Y3626866D02*
G01X5339080Y3691890D01*
G01X5339080Y3626866D02*
G01X5311140Y3626866D01*
G01X5301996Y3629914D01*
G01X5298948Y3632962D01*
G01X5295646Y3639312D01*
G01Y3645408D01*
G01X5298948Y3651504D01*
G01X5301996Y3654552D01*
G01X5311140Y3657854D01*
G01X5339080D01*
G01X5317490Y3657854D02*
G01X5295646Y3691890D01*
G01X5228336Y3636010D02*
G01X5231384Y3629914D01*
G01X5240782Y3626866D01*
G01X5246878D01*
G01X5256276Y3629914D01*
G01X5262372Y3639312D01*
G01X5265420Y3654552D01*
G01Y3670046D01*
G01X5262372Y3682492D01*
G01X5256276Y3688842D01*
G01X5246878Y3691890D01*
G01X5243830D01*
G01X5234686Y3688842D01*
G01X5228336Y3682492D01*
G01X5225288Y3673348D01*
G01Y3670046D01*
G01X5228336Y3660902D01*
G01X5234686Y3654552D01*
G01X5243830Y3651504D01*
G01X5246878D01*
G01X5256276Y3654552D01*
G01X5262372Y3660902D01*
G01X5265420Y3670046D01*
G01X3635715Y5221435D02*
G01X3635715Y5156411D01*
G01X3635715Y5221435D02*
G01X3663655Y5221435D01*
G01X3672799Y5218387D01*
G01X3675847Y5215339D01*
G01X3679149Y5208989D01*
G01Y5202893D01*
G01X3675847Y5196797D01*
G01X3672799Y5193749D01*
G01X3663655Y5190447D01*
G01X3635715D01*
G01X3657305Y5190447D02*
G01X3679149Y5156411D01*
G01X3752555Y5221435D02*
G01X3721567Y5156411D01*
G01X3709375Y5221435D02*
G01X3752555Y5221435D01*
G01X7111355Y5513517D02*
G01X7114403Y5507167D01*
G01X7120753Y5501071D01*
G01X7126849Y5498023D01*
G01X7139295D01*
G01X7145391Y5501071D01*
G01X7151741Y5507167D01*
G01X7154789Y5513517D01*
G01X7157837Y5522661D01*
G01Y5538155D01*
G01X7154789Y5547553D01*
G01X7151741Y5553649D01*
G01X7145391Y5559999D01*
G01X7139295Y5563047D01*
G01X7126849D01*
G01X7120753Y5559999D01*
G01X7114403Y5553649D01*
G01X7111355Y5547553D01*
G01X7075033Y5498023D02*
G01X7040997Y5498023D01*
G01X7059539Y5522661D01*
G01X7050395D01*
G01X7044045Y5525709D01*
G01X7040997Y5529011D01*
G01X7037949Y5538155D01*
G01Y5544505D01*
G01X7040997Y5553649D01*
G01X7047093Y5559999D01*
G01X7056491Y5563047D01*
G01X7065889D01*
G01X7075033Y5559999D01*
G01X7078081Y5556697D01*
G01X7081129Y5550601D01*
G01X6989181Y5498023D02*
G01X6998579Y5501071D01*
G01X7004675Y5510469D01*
G01X7007723Y5525709D01*
G01Y5535107D01*
G01X7004675Y5550601D01*
G01X6998579Y5559999D01*
G01X6989181Y5563047D01*
G01X6983085D01*
G01X6973687Y5559999D01*
G01X6967591Y5550601D01*
G01X6964543Y5535107D01*
G01Y5525709D01*
G01X6967591Y5510469D01*
G01X6973687Y5501071D01*
G01X6983085Y5498023D01*
G01X6989181D01*
G01X3655883Y6171555D02*
G01X3662233Y6174603D01*
G01X3668329Y6180953D01*
G01X3671377Y6187049D01*
G01Y6199495D01*
G01X3668329Y6205591D01*
G01X3662233Y6211941D01*
G01X3655883Y6214989D01*
G01X3646739Y6218037D01*
G01X3631245D01*
G01X3621847Y6214989D01*
G01X3615751Y6211941D01*
G01X3609401Y6205591D01*
G01X3606353Y6199495D01*
G01Y6187049D01*
G01X3609401Y6180953D01*
G01X3615751Y6174603D01*
G01X3621847Y6171555D01*
G01X3655883Y6138281D02*
G01X3658931Y6138281D01*
G01X3665281Y6135233D01*
G01X3668329Y6132185D01*
G01X3671377Y6126089D01*
G01Y6113643D01*
G01X3668329Y6107293D01*
G01X3665281Y6104245D01*
G01X3658931Y6101197D01*
G01X3652835D01*
G01X3646739Y6104245D01*
G01X3637341Y6110595D01*
G01X3606353Y6141329D01*
G01Y6098149D01*
G01X3649787Y6027791D02*
G01X3640389Y6030839D01*
G01X3634293Y6037189D01*
G01X3631245Y6046333D01*
G01Y6049381D01*
G01X3634293Y6058779D01*
G01X3640389Y6064875D01*
G01X3649787Y6067923D01*
G01X3652835D01*
G01X3662233Y6064875D01*
G01X3668329Y6058779D01*
G01X3671377Y6049381D01*
G01Y6046333D01*
G01X3668329Y6037189D01*
G01X3662233Y6030839D01*
G01X3649787Y6027791D01*
G01X3634293D01*
G01X3618799Y6030839D01*
G01X3609401Y6037189D01*
G01X3606353Y6046333D01*
G01Y6052683D01*
G01X3609401Y6061827D01*
G01X3615751Y6064875D01*
G01X4066073Y2000039D02*
G01X4063025Y2006389D01*
G01X4056675Y2012485D01*
G01X4050579Y2015533D01*
G01X4038133D01*
G01X4032037Y2012485D01*
G01X4025687Y2006389D01*
G01X4022639Y2000039D01*
G01X4019591Y1990895D01*
G01Y1975401D01*
G01X4022639Y1966003D01*
G01X4025687Y1959907D01*
G01X4032037Y1953557D01*
G01X4038133Y1950509D01*
G01X4050579D01*
G01X4056675Y1953557D01*
G01X4063025Y1959907D01*
G01X4066073Y1966003D01*
G01X4099347Y2000039D02*
G01X4099347Y2003087D01*
G01X4102395Y2009437D01*
G01X4105443Y2012485D01*
G01X4111539Y2015533D01*
G01X4123985D01*
G01X4130335Y2012485D01*
G01X4133383Y2009437D01*
G01X4136431Y2003087D01*
G01Y1996991D01*
G01X4133383Y1990895D01*
G01X4127033Y1981497D01*
G01X4096299Y1950509D01*
G01X4139479D01*
G01X4184945Y2015533D02*
G01X4175801Y2012485D01*
G01X4172753Y2006389D01*
G01Y2000039D01*
G01X4175801Y1993943D01*
G01X4181897Y1990895D01*
G01X4194343Y1987847D01*
G01X4203741Y1984545D01*
G01X4209837Y1978449D01*
G01X4212885Y1972353D01*
G01Y1962955D01*
G01X4209837Y1956859D01*
G01X4206789Y1953557D01*
G01X4197391Y1950509D01*
G01X4184945D01*
G01X4175801Y1953557D01*
G01X4172753Y1956859D01*
G01X4169705Y1962955D01*
G01Y1972353D01*
G01X4172753Y1978449D01*
G01X4178849Y1984545D01*
G01X4188247Y1987847D01*
G01X4200439Y1990895D01*
G01X4206789Y1993943D01*
G01X4209837Y2000039D01*
G01Y2006389D01*
G01X4206789Y2012485D01*
G01X4197391Y2015533D01*
G01X4184945D01*
G01X6904479Y5380444D02*
G01X6901431Y5386540D01*
G01X6895335Y5392890D01*
G01X6888985Y5395938D01*
G01X6879841Y5398986D01*
G01X6864347D01*
G01X6854949Y5395938D01*
G01X6848853Y5392890D01*
G01X6842503Y5386540D01*
G01X6839455Y5380444D01*
G01Y5367998D01*
G01X6842503Y5361902D01*
G01X6848853Y5355552D01*
G01X6854949Y5352504D01*
G01X6864347Y5349456D01*
G01X6879841D01*
G01X6888985Y5352504D01*
G01X6895335Y5355552D01*
G01X6901431Y5361902D01*
G01X6904479Y5367998D01*
G01Y5380444D01*
G01X6851901Y5371046D02*
G01X6833359Y5352504D01*
G01X6882889Y5279098D02*
G01X6873491Y5282146D01*
G01X6867395Y5288496D01*
G01X6864347Y5297640D01*
G01Y5300688D01*
G01X6867395Y5310086D01*
G01X6873491Y5316182D01*
G01X6882889Y5319230D01*
G01X6885937D01*
G01X6895335Y5316182D01*
G01X6901431Y5310086D01*
G01X6904479Y5300688D01*
G01Y5297640D01*
G01X6901431Y5288496D01*
G01X6895335Y5282146D01*
G01X6882889Y5279098D01*
G01X6867395D01*
G01X6851901Y5282146D01*
G01X6842503Y5288496D01*
G01X6839455Y5297640D01*
G01Y5303990D01*
G01X6842503Y5313134D01*
G01X6848853Y5316182D01*
G01X7532456Y5203680D02*
G01X7467432Y5203680D01*
G01X7532456Y5203680D02*
G01X7532456Y5182090D01*
G01X7529408Y5172692D01*
G01X7523312Y5166596D01*
G01X7516962Y5163548D01*
G01X7507818Y5160246D01*
G01X7492324D01*
G01X7482926Y5163548D01*
G01X7476830Y5166596D01*
G01X7470480Y5172692D01*
G01X7467432Y5182090D01*
G01Y5203680D01*
G01X7520010Y5130020D02*
G01X7523312Y5123924D01*
G01X7532456Y5114780D01*
G01X7467432D01*
G01X7532456Y5078458D02*
G01X7532456Y5044422D01*
G01X7507818Y5062964D01*
G01Y5053820D01*
G01X7504770Y5047470D01*
G01X7501468Y5044422D01*
G01X7492324Y5041374D01*
G01X7485974D01*
G01X7476830Y5044422D01*
G01X7470480Y5050518D01*
G01X7467432Y5059916D01*
G01Y5069314D01*
G01X7470480Y5078458D01*
G01X7473782Y5081506D01*
G01X7479878Y5084554D01*
G01X6883662Y3261744D02*
G01X6880614Y3267840D01*
G01X6874518Y3274190D01*
G01X6868168Y3277238D01*
G01X6859024Y3280286D01*
G01X6843530D01*
G01X6834132Y3277238D01*
G01X6828036Y3274190D01*
G01X6821686Y3267840D01*
G01X6818638Y3261744D01*
G01Y3249298D01*
G01X6821686Y3243202D01*
G01X6828036Y3236852D01*
G01X6834132Y3233804D01*
G01X6843530Y3230756D01*
G01X6859024D01*
G01X6868168Y3233804D01*
G01X6874518Y3236852D01*
G01X6880614Y3243202D01*
G01X6883662Y3249298D01*
G01Y3261744D01*
G01X6831084Y3252346D02*
G01X6812542Y3233804D01*
G01X6871216Y3200530D02*
G01X6874518Y3194434D01*
G01X6883662Y3185290D01*
G01X6818638D01*
G01X6883662Y3136522D02*
G01X6880614Y3145920D01*
G01X6871216Y3152016D01*
G01X6855976Y3155064D01*
G01X6846578D01*
G01X6831084Y3152016D01*
G01X6821686Y3145920D01*
G01X6818638Y3136522D01*
G01Y3130426D01*
G01X6821686Y3121028D01*
G01X6831084Y3114932D01*
G01X6846578Y3111884D01*
G01X6855976D01*
G01X6871216Y3114932D01*
G01X6880614Y3121028D01*
G01X6883662Y3130426D01*
G01Y3136522D01*
G01X2895054Y7243191D02*
G01X2888704Y7249287D01*
G01X2879560Y7252335D01*
G01X2867114D01*
G01X2857716Y7249287D01*
G01X2851620Y7243191D01*
G01Y7236841D01*
G01X2854668Y7230745D01*
G01X2857716Y7227697D01*
G01X2864066Y7224649D01*
G01X2882608Y7218299D01*
G01X2888704Y7215251D01*
G01X2891752Y7212203D01*
G01X2895054Y7205853D01*
G01Y7196709D01*
G01X2888704Y7190359D01*
G01X2879560Y7187311D01*
G01X2867114D01*
G01X2857716Y7190359D01*
G01X2851620Y7196709D01*
G01X2971508Y7236841D02*
G01X2968460Y7243191D01*
G01X2962364Y7249287D01*
G01X2956014Y7252335D01*
G01X2943822D01*
G01X2937472Y7249287D01*
G01X2931376Y7243191D01*
G01X2928328Y7236841D01*
G01X2925280Y7227697D01*
G01Y7212203D01*
G01X2928328Y7202805D01*
G01X2931376Y7196709D01*
G01X2937472Y7190359D01*
G01X2943822Y7187311D01*
G01X2956014D01*
G01X2962364Y7190359D01*
G01X2968460Y7196709D01*
G01X2971508Y7202805D01*
G01X3001734Y7252335D02*
G01X3001734Y7187311D01*
G01X3001734Y7252335D02*
G01X3029420Y7252335D01*
G01X3038818Y7249287D01*
G01X3041866Y7246239D01*
G01X3044914Y7239889D01*
G01Y7233793D01*
G01X3041866Y7227697D01*
G01X3038818Y7224649D01*
G01X3029420Y7221347D01*
G01X3001734D01*
G01X3023324Y7221347D02*
G01X3044914Y7187311D01*
G01X3075140Y7252335D02*
G01X3075140Y7187311D01*
G01X3075140Y7252335D02*
G01X3115272Y7252335D01*
G01X3075140Y7221347D02*
G01X3099778Y7221347D01*
G01X3075140Y7187311D02*
G01X3115272Y7187311D01*
G01X3145498Y7252335D02*
G01X3160738Y7187311D01*
G01X3176232Y7252335D02*
G01X3160738Y7187311D01*
G01X3176232Y7252335D02*
G01X3191726Y7187311D01*
G01X3207220Y7252335D02*
G01X3191726Y7187311D01*
G01X3237446Y7239889D02*
G01X3243542Y7243191D01*
G01X3252686Y7252335D01*
G01Y7187311D01*
G01X2895054Y1729219D02*
G01X2888704Y1735315D01*
G01X2879560Y1738363D01*
G01X2867114D01*
G01X2857716Y1735315D01*
G01X2851620Y1729219D01*
G01Y1722869D01*
G01X2854668Y1716773D01*
G01X2857716Y1713725D01*
G01X2864066Y1710677D01*
G01X2882608Y1704327D01*
G01X2888704Y1701279D01*
G01X2891752Y1698231D01*
G01X2895054Y1691881D01*
G01Y1682737D01*
G01X2888704Y1676387D01*
G01X2879560Y1673339D01*
G01X2867114D01*
G01X2857716Y1676387D01*
G01X2851620Y1682737D01*
G01X2971508Y1722869D02*
G01X2968460Y1729219D01*
G01X2962364Y1735315D01*
G01X2956014Y1738363D01*
G01X2943822D01*
G01X2937472Y1735315D01*
G01X2931376Y1729219D01*
G01X2928328Y1722869D01*
G01X2925280Y1713725D01*
G01Y1698231D01*
G01X2928328Y1688833D01*
G01X2931376Y1682737D01*
G01X2937472Y1676387D01*
G01X2943822Y1673339D01*
G01X2956014D01*
G01X2962364Y1676387D01*
G01X2968460Y1682737D01*
G01X2971508Y1688833D01*
G01X3001734Y1738363D02*
G01X3001734Y1673339D01*
G01X3001734Y1738363D02*
G01X3029420Y1738363D01*
G01X3038818Y1735315D01*
G01X3041866Y1732267D01*
G01X3044914Y1725917D01*
G01Y1719821D01*
G01X3041866Y1713725D01*
G01X3038818Y1710677D01*
G01X3029420Y1707375D01*
G01X3001734D01*
G01X3023324Y1707375D02*
G01X3044914Y1673339D01*
G01X3075140Y1738363D02*
G01X3075140Y1673339D01*
G01X3075140Y1738363D02*
G01X3115272Y1738363D01*
G01X3075140Y1707375D02*
G01X3099778Y1707375D01*
G01X3075140Y1673339D02*
G01X3115272Y1673339D01*
G01X3145498Y1738363D02*
G01X3160738Y1673339D01*
G01X3176232Y1738363D02*
G01X3160738Y1673339D01*
G01X3176232Y1738363D02*
G01X3191726Y1673339D01*
G01X3207220Y1738363D02*
G01X3191726Y1673339D01*
G01X3268180Y1738363D02*
G01X3237446Y1695183D01*
G01X3283674D01*
G01X3268180Y1738363D02*
G01X3268180Y1673339D01*
G01X5745480Y451866D02*
G01X5745480Y516890D01*
G01X5702046Y451866D02*
G01X5702046Y516890D01*
G01X5745480Y482854D02*
G01X5702046Y482854D01*
G01X5668772Y467360D02*
G01X5668772Y464312D01*
G01X5665724Y457962D01*
G01X5662676Y454914D01*
G01X5656580Y451866D01*
G01X5644134D01*
G01X5637784Y454914D01*
G01X5634736Y457962D01*
G01X5631688Y464312D01*
G01Y470408D01*
G01X5634736Y476504D01*
G01X5641086Y485902D01*
G01X5671820Y516890D01*
G01X5628640D01*
G01X5368585Y5319565D02*
G01X5368585Y5384589D01*
G01X5368585Y5319565D02*
G01X5340645Y5319565D01*
G01X5331501Y5322613D01*
G01X5328453Y5325661D01*
G01X5325151Y5332011D01*
G01Y5338107D01*
G01X5328453Y5344203D01*
G01X5331501Y5347251D01*
G01X5340645Y5350553D01*
G01X5368585D01*
G01X5346995Y5350553D02*
G01X5325151Y5384589D01*
G01X5294925Y5332011D02*
G01X5288829Y5328709D01*
G01X5279685Y5319565D01*
G01Y5384589D01*
G01X1808734Y4030980D02*
G01X1762252Y4030980D01*
G01X1753108Y4027932D01*
G01X1746758Y4021582D01*
G01X1743710Y4012438D01*
G01Y4006088D01*
G01X1746758Y3996944D01*
G01X1753108Y3990848D01*
G01X1762252Y3987546D01*
G01X1808734D01*
G01X1796288Y3957320D02*
G01X1799590Y3951224D01*
G01X1808734Y3942080D01*
G01X1743710D01*
G04 Text End*

G04 PolygonModel Start*
G54D11*
G01X7315500Y2990499D02*
G01X7315500Y2470501D01*
G01X7315500Y2470501D02*
G01X7035500Y2470501D01*
G01X7035500Y2990499D02*
G01X7035500Y2470501D01*
G01X7315500Y2990499D02*
G01X7035500Y2990499D01*
G01X7315500Y2894574D02*
G01X7035500Y2894574D01*
G01X7328200Y4946299D02*
G01X7328200Y4426301D01*
G01X7328200Y4426301D02*
G01X7048200Y4426301D01*
G01X7048200Y4946299D02*
G01X7048200Y4426301D01*
G01X7328200Y4946299D02*
G01X7048200Y4946299D01*
G01X7328200Y4850374D02*
G01X7048200Y4850374D01*
G54D10*
G01X5753598Y4673313D02*
G01X5753598Y4370931D01*
G01X6784838Y4673313D02*
G01X6784838Y4370931D01*
G01X5753598Y4370931D02*
G01X6784838Y4370931D01*
G01X5732780Y2554613D02*
G01X5732780Y2252231D01*
G01X6764020Y2554613D02*
G01X6764020Y2252231D01*
G01X5732780Y2252231D02*
G01X6764020Y2252231D01*
G54D11*
G01X5070800Y1317201D02*
G01X5070800Y867199D01*
G01X5070800Y867199D02*
G01X3920800Y867199D01*
G01X3920800Y867199D02*
G01X3920800Y1317201D01*
G01X3921760Y1318260D02*
G01X5069840Y1318260D01*
G01X5083500Y2066501D02*
G01X5083500Y1616499D01*
G01X5083500Y1616499D02*
G01X3933500Y1616499D01*
G01X3933500Y1616499D02*
G01X3933500Y2066501D01*
G01X3934460Y2067560D02*
G01X5082540Y2067560D01*
G01X5058100Y3425401D02*
G01X5058100Y2975399D01*
G01X5058100Y2975399D02*
G01X3908100Y2975399D01*
G01X3908100Y2975399D02*
G01X3908100Y3425401D01*
G01X3909060Y3426460D02*
G01X5057140Y3426460D01*
G01X3920800Y2353099D02*
G01X3920800Y2803101D01*
G01X3920800Y2803101D02*
G01X5070800Y2803101D01*
G01X5070800Y2803101D02*
G01X5070800Y2353099D01*
G01X5069840Y2352040D02*
G01X3921760Y2352040D01*
G01X5067630Y4245300D02*
G01X5067630Y3795298D01*
G01X5067630Y3795298D02*
G01X3917630Y3795298D01*
G01X3917630Y3795298D02*
G01X3917630Y4245300D01*
G01X3918590Y4246359D02*
G01X5066670Y4246359D01*
G01X3908100Y4651799D02*
G01X3908100Y5101801D01*
G01X3908100Y5101801D02*
G01X5058100Y5101801D01*
G01X5058100Y5101801D02*
G01X5058100Y4651799D01*
G01X5057140Y4650740D02*
G01X3909060Y4650740D01*
G01X4919299Y6487701D02*
G01X4919299Y6237702D01*
G01X4919299Y6487701D02*
G01X4199301Y6487701D01*
G01X4919299Y6237702D02*
G01X4199301Y6237702D01*
G01X4199301Y6237702D02*
G01X4199301Y6487701D01*
G01X3549203Y6206701D02*
G01X3549203Y4486697D01*
G01X3549203Y4486697D02*
G01X2699200Y4486697D01*
G01X2699197Y6206703D02*
G01X3549200Y6206703D01*
G01X2699197Y4486697D02*
G01X2699200Y6206703D01*
G01X7146501Y5620197D02*
G01X5426497Y5620197D01*
G01X5426497Y5620197D02*
G01X5426497Y6470200D01*
G01X7146503Y6470203D02*
G01X7146503Y5620200D01*
G01X5426497Y6470203D02*
G01X7146503Y6470200D01*
G01X5096200Y5889201D02*
G01X5096200Y5439199D01*
G01X5096200Y5439199D02*
G01X3946200Y5439199D01*
G01X3946200Y5439199D02*
G01X3946200Y5889201D01*
G01X3947160Y5890260D02*
G01X5095240Y5890260D01*
G01X2959316Y7030085D02*
G01X3067012Y6922389D01*
G01X3346412Y6642989D02*
G01X3454108Y6535293D01*
G01X3454108Y7030085D02*
G01X3346412Y6922389D01*
G01X3067012Y6642989D02*
G01X2959316Y6535293D01*
G01X2959316Y1516113D02*
G01X3067012Y1408417D01*
G01X3346412Y1129017D02*
G01X3454108Y1021321D01*
G01X3454108Y1516113D02*
G01X3346412Y1408417D01*
G01X3067012Y1129017D02*
G01X2959316Y1021321D01*
G01X2484100Y4152900D02*
G01X2484100Y2628900D01*
G01X324101Y4406900D02*
G01X1324105Y4406900D01*
G01X324101Y4406900D02*
G01X324101Y2882900D01*
G01X2484100Y2628900D02*
G01X1324105Y2628900D01*
G01X1324105Y2882900D02*
G01X1324105Y4152900D01*
G01X1324105Y2882900D02*
G01X1324105Y2628900D01*
G01X324101Y2882900D02*
G01X1324105Y2882900D01*
G01X1324105Y4406900D02*
G01X1324105Y4152900D01*
G01X1324105Y4152900D02*
G01X2484100Y4152900D01*
G04 PolygonModel End*

G04 Rect Start*
G01X5740400Y571500D02*
G01X5740400Y825500D01*
G01X5232400D01*
G01Y571500D01*
G01X5740400D01*
G04 Rect End*

G04 Circle Start*
G01X5900925Y3909405D02*
G03X5926325Y3909405I12700J0D01*
G03X5900925I-12700J0D01*
G01X5880108Y1790705D02*
G03X5905508Y1790705I12700J0D01*
G03X5880108I-12700J0D01*
G01X2856700Y6782689D02*
G03X3556724Y6782689I350012J0D01*
G03X2856700I-350012J0D01*
G01X2856700Y1268717D02*
G03X3556724Y1268717I350012J0D01*
G03X2856700I-350012J0D01*
G04 Circle End*

M02*
