G04 Layer: TopLayer*
G04 EasyEDA Pro v2.1.64.d1969c9c.217bcf, 2024-09-27 00:26:44*
G04 Gerber Generator version 0.3*
G04 Scale: 100 percent, Rotated: No, Reflected: No*
G04 Dimensions in millimeters*
G04 Leading zeros omitted, absolute positions, 3 integers and 5 decimals*
%FSLAX35Y35*%
%MOMM*%
%ADD10C,1.8*%
%ADD11R,1.13401X3.35854*%
%ADD12R,10.5664X7.18053*%
%ADD13C,1.6*%
%ADD14C,4.5*%
%ADD15R,1.8X1.8*%
%ADD16C,2.2*%
%ADD17C,2.4*%
%ADD18C,2.286*%
%ADD19C,2.54*%
%ADD20C,2.032*%
%ADD21C,1.524*%
%ADD22C,1.4986*%
G75*


G04 Pad Start*
G54D10*
G01X7175500Y3165500D03*
G01X7175500Y2295500D03*
G01X7188200Y5121300D03*
G01X7188200Y4251300D03*
G54D11*
G01X6015225Y3990431D03*
G01X6523225Y3990431D03*
G54D12*
G01X6269225Y5047579D03*
G54D11*
G01X5994408Y1871731D03*
G01X6502408Y1871731D03*
G54D12*
G01X6248408Y2928879D03*
G54D13*
G01X5270805Y1092200D03*
G01X3720795Y1092200D03*
G01X5283505Y1841500D03*
G01X3733495Y1841500D03*
G01X5258105Y3200400D03*
G01X3708095Y3200400D03*
G01X3720795Y2578100D03*
G01X5270805Y2578100D03*
G01X5267635Y4020299D03*
G01X3717625Y4020299D03*
G01X3708095Y4876800D03*
G01X5258105Y4876800D03*
G54D10*
G01X4809236Y6362700D03*
G01X4309364Y6362700D03*
G01X3124200Y6096711D03*
G01X3124200Y4596689D03*
G01X7036511Y6045200D03*
G01X5536489Y6045200D03*
G54D13*
G01X5296205Y5664200D03*
G01X3746195Y5664200D03*
G54D14*
G01X3206712Y6782689D03*
G01X3206712Y1268717D03*
G54D10*
G01X5359400Y698500D03*
G54D15*
G01X5613400Y698500D03*
G54D16*
G01X800100Y4142900D03*
G01X800100Y3642901D03*
G01X800100Y3142899D03*
G54D17*
G01X2324100Y2892900D03*
G01X2324100Y3392899D03*
G01X2324100Y3892901D03*
G04 Pad End*

G04 Track Start*
G54D18*
G01X3431126Y3733800D02*
G01X3717625Y4020299D01*
G54D19*
G01X5994400Y2197100D02*
G01X5994400Y1871739D01*
G01X5994408Y1871731D02*
G01X5994408Y1587500D01*
G54D20*
G01X6015225Y4224525D02*
G01X6019800Y4229100D01*
G01X6015225Y3990431D02*
G01X6015225Y3738375D01*
G01X6032500Y3721100D01*
G01X5267635Y4020299D02*
G01X5985358Y4020299D01*
G01X6015225Y3990431D01*
G01Y4224525D01*
G54D19*
G01X5258105Y4876800D02*
G01X5258105Y4029829D01*
G01X5267635Y4020299D01*
G54D20*
G01X5296205Y5664200D02*
G01X5536489Y5904484D01*
G01X5536489Y5780316D02*
G01X6269225Y5047579D01*
G01X5536489Y6045200D02*
G01X5536489Y5904484D01*
G01Y5780316D01*
G01X4809236Y6362700D02*
G01X5218989Y6362700D01*
G01X5536489Y6045200D01*
G01X3124200Y6096711D02*
G01X4043375Y6096711D01*
G01X4309364Y6362700D01*
G54D21*
G01X4309364Y5478069D02*
G01X4309364Y6362700D01*
G54D18*
G01X3124200Y4596689D02*
G01X4228694Y4596689D01*
G01X5296205Y5664200D01*
G54D21*
G01X6527800Y1846339D02*
G01X6502408Y1871731D01*
G54D20*
G01X7188200Y5121300D02*
G01X6342946Y5121300D01*
G01X6269225Y5047579D01*
G01X4309364Y6362700D02*
G01X4842764Y6896100D01*
G01X6185611D01*
G01X7036511Y6045200D01*
G54D22*
G01X3720795Y1854200D02*
G01X3733495Y1841500D01*
G54D19*
G01X5270805Y2578100D02*
G01X5270805Y3187700D01*
G01X5258105Y3200400D01*
G01X5270805Y2578100D02*
G01X5651805Y2197100D01*
G01X5994400D01*
G54D18*
G01X7175500Y3165500D02*
G01X6485029Y3165500D01*
G01X6248408Y2928879D01*
G01X6362700Y3098800D02*
G01X6523225Y3259325D01*
G01Y3990431D01*
G01X6927332D01*
G01X7188200Y4251300D01*
G54D19*
G01X5283505Y1841500D02*
G01X5283505Y1612595D01*
G01X5689600Y1206500D01*
G01X6196387D01*
G01X6502408Y1512521D01*
G54D20*
G01X6527800Y1935457D02*
G01X6527800Y1846339D01*
G54D19*
G01X6887843Y2295500D02*
G01X7175500Y2295500D01*
G01X6527800Y1935457D02*
G01X6887843Y2295500D01*
G01X6502408Y1512521D02*
G01X6502408Y1871731D01*
G54D20*
G01X6515100Y2197100D02*
G01X6527800Y1935457D01*
G54D19*
G01X3720795Y1092200D02*
G01X4610100Y1981505D01*
G01X5532387Y3644900D02*
G01X6248408Y2928879D01*
G01X4610100Y1981505D02*
G01X4610100Y3124200D01*
G01X5130800Y3644900D01*
G01X5532387D01*
G01X5270805Y1092200D02*
G01X5613400Y749605D01*
G01Y698500D01*
G01X2324100Y3905601D02*
G01X2457099Y3905601D01*
G01X2628900Y3733800D01*
G54D18*
G01X800100Y4155600D02*
G01X2308700Y5664200D01*
G01X3746195D01*
G01X3720795Y2266593D02*
G01X3688688Y2298700D01*
G54D22*
G01X3720795Y2578100D02*
G01X3720795Y2266593D01*
G01Y1854200D01*
G54D18*
G01X2324100Y3405599D02*
G01X2529299Y3200400D01*
G01X3708095D01*
G54D19*
G01X2628900Y3733800D02*
G01X3431126Y3733800D01*
G54D18*
G01X3688688Y2298700D02*
G01X2413000Y2298700D01*
G01X1068799Y3642901D01*
G01X800100D01*
G01X800100Y3142899D02*
G01X2336800Y1606199D01*
G01Y1295400D01*
G01X3060700Y571500D01*
G01X4750105Y571500D02*
G01X5270805Y1092200D01*
G01X3060700Y571500D02*
G01X4750105Y571500D01*
G01X2879838Y5229338D02*
G01X4060634Y5229338D01*
G01X1068799Y3642901D02*
G01X1293401Y3642901D01*
G54D21*
G01X3708095Y4876800D02*
G01X4060634Y5229338D01*
G01X4309364Y5478069D01*
G54D18*
G01X1293401Y3642901D02*
G01X2879838Y5229338D01*
G54D19*
G01X6515100Y1884423D02*
G01X6502408Y1871731D01*
G01X6515100Y2260600D02*
G01X6515100Y2197100D01*
G01Y1884423D01*
G04 Track End*

M02*
